<svg width="52" height="52" viewBox="0 0 52 52" fill="none" xmlns="http://www.w3.org/2000/svg">
<rect width="52" height="52" fill="white"/>
<path d="M48.6451 20.129H38.5806V13.4193H48.6451V20.129Z" fill="#2AB1A3"/>
<path d="M3.35486 31.0322H10.0645V37.7419H3.35486V31.0322Z" fill="#2AB1A3"/>
<path d="M9.22583 8.38708H10.9032V10.0645H9.22583V8.38708Z" fill="#1C1C1B"/>
<path d="M12.5806 8.38708H14.258V10.0645H12.5806V8.38708Z" fill="#1C1C1B"/>
<path d="M21.8065 35.2258H30.1936V36.9032H21.8065V35.2258Z" fill="#1C1C1B"/>
<path d="M50.3226 0H36.9032C35.9781 0 35.2258 0.752323 35.2258 1.67742H6.70968C3.93439 1.67742 1.67742 3.93439 1.67742 6.70968V20.129C0.752323 20.129 0 20.8814 0 21.8065V40.2581C0 41.1832 0.752323 41.9355 1.67742 41.9355H11.7419C12.667 41.9355 13.4194 41.1832 13.4194 40.2581H20.9677V42.1041C14.8502 42.5259 11.7419 43.5953 11.7419 45.2903V48.6452C11.7419 51.7584 22.6552 52 26 52C29.3448 52 40.2581 51.7584 40.2581 48.6452V45.2903C40.2581 43.5953 37.1498 42.5259 31.0323 42.1041V40.2581H45.2903C48.0656 40.2581 50.3226 38.0011 50.3226 35.2258V26.8387C51.2477 26.8387 52 26.0864 52 25.1613V1.67742C52 0.752323 51.2477 0 50.3226 0ZM30.1935 38.5806H29.3548H22.6452H21.8065C20.8814 38.5806 20.129 37.8283 20.129 36.9032V33.5484H31.871V36.9032C31.871 37.8283 31.1186 38.5806 30.1935 38.5806ZM13.4194 31.871V21.8065C13.4194 20.8814 12.667 20.129 11.7419 20.129H6.70968V6.70968H35.2258V13.1652L33.1584 10.0645H26H18.8416L14.9089 15.964L26 30.753L35.2258 18.4516V25.1613C35.2258 26.0864 35.9781 26.8387 36.9032 26.8387H45.2903V31.871H13.4194ZM31.481 15.0968L29.2441 11.7419H32.2601L34.497 15.0968H31.481ZM27.2287 11.7419L29.4647 15.0968H22.5353L24.7713 11.7419H26H27.2287ZM29.822 16.7742L26 26.9654L22.178 16.7742H29.822ZM20.519 15.0968H17.503L19.7399 11.7419H22.7559L20.519 15.0968ZM20.3865 16.7742L23.1593 24.1699L17.6129 16.7742H20.3865ZM31.6135 16.7742H34.3871L28.8399 24.1699L31.6135 16.7742ZM3.35484 6.70968C3.35484 4.85948 4.85948 3.35484 6.70968 3.35484H35.2258V5.03226H6.70968C5.78458 5.03226 5.03226 5.78458 5.03226 6.70968V20.129H3.35484V6.70968ZM1.67742 40.2581V21.8065H11.7419L11.7436 40.2581H1.67742ZM13.4194 33.5484H18.4516V36.9032C18.4516 37.5146 18.6202 38.0858 18.9079 38.5806H13.4194V33.5484ZM30.8243 43.7714C35.9043 44.1195 37.9508 44.9062 38.4792 45.2945C37.6371 45.942 33.545 46.9677 26 46.9677C18.455 46.9677 14.3629 45.942 13.5208 45.2937C14.0484 44.9054 16.0957 44.1186 21.1757 43.7706C21.5632 44.6638 22.4506 45.2903 23.4839 45.2903H28.5161C29.5494 45.2903 30.4368 44.6638 30.8243 43.7714V43.7714ZM26 50.3226C18.0868 50.3226 13.9695 49.1937 13.4194 48.5571V47.091C16.6106 48.5059 23.4696 48.6452 26 48.6452C28.5304 48.6452 35.3894 48.5059 38.5806 47.0902V48.5563C38.0305 49.1937 33.9132 50.3226 26 50.3226V50.3226ZM29.3548 42.7742C29.3548 43.2372 28.9791 43.6129 28.5161 43.6129H23.4839C23.0209 43.6129 22.6452 43.2372 22.6452 42.7742V40.2581H29.3548V42.7742ZM48.6452 35.2258C48.6452 37.076 47.1405 38.5806 45.2903 38.5806H33.0921C33.3798 38.0858 33.5484 37.5146 33.5484 36.9032V33.5484H45.2903C46.2154 33.5484 46.9677 32.7961 46.9677 31.871V26.8387H48.6452V35.2258ZM36.9032 25.1613V1.67742H50.3226L50.3243 25.1613H36.9032Z" fill="#1C1C1B"/>
<path d="M38.5806 5.03228H40.258V6.7097H38.5806V8.38712H40.258V10.0645H38.5806V11.742H48.6451V10.0645H46.9677V8.38712H48.6451V6.7097H46.9677V5.03228H48.6451V3.35486H38.5806V5.03228ZM45.2903 10.0645H41.9355V8.38712H45.2903V10.0645ZM45.2903 6.7097H41.9355V5.03228H45.2903V6.7097Z" fill="#1C1C1B"/>
<path d="M38.5806 21.8064H40.258V23.4838H38.5806V21.8064Z" fill="#1C1C1B"/>
<path d="M41.9355 21.8064H48.6452V23.4838H41.9355V21.8064Z" fill="#1C1C1B"/>
<path d="M33.5484 28.5161H43.6129V30.1935H33.5484V28.5161Z" fill="#1C1C1B"/>
<path d="M3.35486 30.1936H10.0645V31.871H3.35486V30.1936Z" fill="#1C1C1B"/>
<path d="M3.35486 33.5483H10.0645V35.2258H3.35486V33.5483Z" fill="#1C1C1B"/>
<path d="M3.35486 36.9032H10.0645V38.5806H3.35486V36.9032Z" fill="#1C1C1B"/>
<path d="M10.0645 28.5161H3.35486V23.4839H10.0645V28.5161Z" fill="#2AB1A3"/>
</svg>
