<svg width="52" height="52" viewBox="0 0 52 52" fill="none" xmlns="http://www.w3.org/2000/svg">
<rect width="52" height="52" fill="white"/>
<path d="M15.517 31.4776L22.6452 31.0323L23.4277 28.1773C19.5956 27.1641 16.6635 23.9485 16.0613 19.9646C15.4926 19.6963 15.0968 19.1217 15.0968 18.4516V15.0968C15.0968 14.4778 15.4364 13.9427 15.9355 13.6517V13.1745C15.9355 11.2681 17.0124 9.52606 18.7175 8.6731L19.2903 8.3871H32.7097L33.2825 8.67394C34.9876 9.52606 36.0645 11.2689 36.0645 13.1745V13.6517C36.5635 13.9419 36.9032 14.477 36.9032 15.0968V18.4516C36.9032 19.1217 36.5073 19.6963 35.9387 19.9646C35.3365 23.9494 32.4035 27.165 28.5723 28.1773L29.3548 31.0323L36.483 31.4776C37.7428 31.5565 38.8943 31.9917 39.8672 32.6644C42.3481 29.9965 43.6129 27.7537 43.6129 26C43.6129 24.7755 43.2933 21.081 42.6618 15.0213C41.7702 6.45806 34.6068 0 26 0C17.3931 0 10.2297 6.45806 9.33818 15.0213C8.70663 21.081 8.38708 24.7755 8.38708 26C8.38708 27.7537 9.65186 29.9965 12.1328 32.6644C13.1057 31.9917 14.2572 31.5565 15.517 31.4776Z" fill="#2AB1A3"/>
<path d="M22.6452 40.2581H20.129V41.9355H22.6452C23.1073 41.9355 23.4839 42.3121 23.4839 42.7742C23.4839 43.2363 23.1073 43.6129 22.6452 43.6129H20.129V45.2903H22.6452C23.1073 45.2903 23.4839 45.6669 23.4839 46.129C23.4839 46.5912 23.1073 46.9677 22.6452 46.9677H20.129V48.6452H22.6452C24.0324 48.6452 25.1613 47.5163 25.1613 46.129C25.1613 45.4824 24.9088 44.8978 24.5071 44.4516C24.9097 44.0054 25.1613 43.4208 25.1613 42.7742C25.1613 41.387 24.0324 40.2581 22.6452 40.2581Z" fill="#1C1C1B"/>
<path d="M29.3549 40.2581H26.8387V48.6452H29.3549C31.6672 48.6452 33.5484 46.7639 33.5484 44.4516C33.5484 42.1393 31.6672 40.2581 29.3549 40.2581ZM29.3549 46.9677H28.5162V41.9355H29.3549C30.7421 41.9355 31.871 43.0644 31.871 44.4516C31.871 45.8388 30.7421 46.9677 29.3549 46.9677Z" fill="#1C1C1B"/>
<path d="M46.9677 25.1612H45.2903V34.1564C44.5539 34.4281 43.7395 34.6865 42.8623 34.9297C41.6914 32.474 39.2927 30.8125 36.5359 30.6405L30.0057 30.2321L29.593 28.7258C33.1718 27.4534 35.9538 24.3485 36.6894 20.4905C37.3234 20.0334 37.7419 19.292 37.7419 18.4516V15.0967C37.7419 14.3561 37.414 13.6961 36.9032 13.2348V13.1744C36.9032 10.9367 35.6594 8.92466 33.6574 7.92324L32.9076 7.54834H19.0924L18.3426 7.92324C16.3406 8.92466 15.0968 10.9367 15.0968 13.1744V13.2348C14.586 13.6952 14.2581 14.3561 14.2581 15.0967V18.4516C14.2581 19.292 14.6766 20.0334 15.3115 20.4905C16.047 24.3485 18.829 27.4543 22.4078 28.7258L21.9952 30.2321L15.465 30.6405C12.7081 30.8125 10.3094 32.474 9.13858 34.9297C8.26129 34.6865 7.4469 34.4281 6.71052 34.1564V25.1612H5.03226C2.25697 25.1612 0 27.4182 0 30.1935V43.6129C0 49.0603 13.3959 52 26 52C38.6041 52 52 49.0603 52 43.6129V30.1935C52 27.4182 49.743 25.1612 46.9677 25.1612ZM46.9677 26.8387C48.8179 26.8387 50.3226 28.3433 50.3226 30.1935C50.3226 31.2922 49.1266 32.4329 46.9677 33.4569V26.8387ZM16.7742 19.2903C16.3121 19.2903 15.9355 18.9137 15.9355 18.4516V15.0967C15.9355 14.6346 16.3121 14.258 16.7742 14.258H35.2258C35.6879 14.258 36.0645 14.6346 36.0645 15.0967V18.4516C36.0645 18.9137 35.6879 19.2903 35.2258 19.2903H28.9875C28.6017 19.2903 28.267 19.0286 28.1739 18.6554L27.8569 17.3847C27.6422 16.5309 26.879 15.9354 26 15.9354C25.121 15.9354 24.3578 16.5309 24.1439 17.3847L23.8269 18.6554C23.733 19.0286 23.3983 19.2903 23.0125 19.2903H16.7742ZM19.0924 9.42369L19.4883 9.22576H32.5109L32.9068 9.42369C34.1573 10.0485 34.9935 11.2252 35.1839 12.5806H16.8161C17.0065 11.2261 17.8419 10.0485 19.0924 9.42369ZM17.1449 20.9677H23.0134C24.1699 20.9677 25.1739 20.1835 25.4548 19.0613L25.7719 17.7915C25.8247 17.581 26.1761 17.5818 26.229 17.7915L26.546 19.0621C26.8261 20.1835 27.8301 20.9677 28.9875 20.9677H34.8559C33.7455 24.861 30.1281 27.6774 26.0008 27.6774C21.8735 27.6774 18.2554 24.861 17.1449 20.9677ZM26 29.3548C26.6718 29.3548 27.3319 29.291 27.9752 29.1703L28.475 30.9936C28.0859 32.0227 27.1079 32.7096 26 32.7096C24.8929 32.7096 23.915 32.0227 23.525 30.9936L24.0248 29.1703C24.6681 29.291 25.3282 29.3548 26 29.3548ZM15.569 32.3146L22.0958 31.907C22.8054 33.4066 24.31 34.3871 26 34.3871C27.69 34.3871 29.1946 33.4058 29.9042 31.907L36.431 32.3146C38.4624 32.4412 40.2505 33.6037 41.2083 35.3491C37.1565 36.2909 31.9565 36.9032 26 36.9032C20.0435 36.9032 14.8435 36.2909 10.7925 35.3491C11.7503 33.6037 13.5376 32.4421 15.569 32.3146ZM5.03226 26.8387V33.4569C2.87342 32.4329 1.67742 31.2922 1.67742 30.1935C1.67742 28.3433 3.18206 26.8387 5.03226 26.8387ZM26 50.3225C11.6665 50.3225 1.67742 46.7865 1.67742 43.6129V33.316C5.65206 36.7547 16.0688 38.5806 26 38.5806C35.9312 38.5806 46.3479 36.7547 50.3226 33.316V43.6129C50.3226 46.7865 40.3335 50.3225 26 50.3225Z" fill="#1C1C1B"/>
<path d="M4.74292 38.7585C7.1064 39.6592 9.96976 40.3897 13.2525 40.9282L13.5242 39.2726C10.3514 38.7517 7.59789 38.0506 5.33924 37.1901L4.74292 38.7585Z" fill="#1C1C1B"/>
<path d="M15.0171 41.1941C15.5874 41.2721 16.1577 41.3434 16.7264 41.4079L16.9159 39.7414C16.3599 39.6785 15.803 39.6089 15.2461 39.5317L15.0171 41.1941Z" fill="#1C1C1B"/>
<path d="M36.7833 46.1988L37.04 47.8569C41.5036 47.1658 45.386 45.9958 47.4249 44.7269L46.5384 43.3027C45.1042 44.1943 41.7896 45.4238 36.7833 46.1988Z" fill="#1C1C1B"/>
<path d="M29.3548 22.6451H27.6774C27.6774 23.5702 26.9251 24.3226 26 24.3226C25.0749 24.3226 24.3226 23.5702 24.3226 22.6451H22.6451C22.6451 24.4953 24.1498 26 26 26C27.8502 26 29.3548 24.4953 29.3548 22.6451Z" fill="#1C1C1B"/>
<path d="M37.5507 29.0336C39.3221 26.8848 40.2581 24.3863 40.2581 21.8064H38.5807C38.5807 23.9921 37.7772 26.1224 36.2566 27.9667L37.5507 29.0336Z" fill="#1C1C1B"/>
<path d="M15.4507 27.9844C14.1214 26.364 13.4194 24.5171 13.4194 22.6451H11.7419C11.7419 24.9097 12.5756 27.1238 14.1532 29.0487L15.4507 27.9844Z" fill="#1C1C1B"/>
</svg>
