<svg width="52" height="52" viewBox="0 0 52 52" fill="none" xmlns="http://www.w3.org/2000/svg">
<rect width="52" height="52" fill="white"/>
<path d="M21.8064 31.871H8.38708V10.0646H21.8064V31.871Z" fill="#2AB1A3"/>
<path d="M47.8064 8.3871H46.9677V2.51613C46.9677 1.1289 45.8388 0 44.4516 0H7.54839C6.16116 0 5.03226 1.1289 5.03226 2.51613V8.3871H4.19355C1.88123 8.3871 0 10.2683 0 12.5806V37.7419C0 40.0543 1.88123 41.9355 4.19355 41.9355H20.9677V43.6129H16.1334C15.1739 43.6129 14.3117 44.1455 13.8823 45.0035L12.5806 47.6085V52H39.4194V47.6085L38.1168 45.0035C37.6883 44.1455 36.8252 43.6129 35.8666 43.6129H31.0323V41.9355H47.8064C50.1188 41.9355 52 40.0543 52 37.7419V12.5806C52 10.2683 50.1188 8.3871 47.8064 8.3871ZM47.8064 10.0645C49.1937 10.0645 50.3226 11.1934 50.3226 12.5806V33.5484H46.9677V10.0645H47.8064ZM19.2903 35.2258H22.6452V36.9032H20.129C19.6661 36.9032 19.2903 36.5266 19.2903 36.0645V35.2258ZM24.3226 35.2258H27.6774V36.9032H24.3226V35.2258ZM29.3548 35.2258H32.7097V36.0645C32.7097 36.5266 32.3339 36.9032 31.871 36.9032H29.3548V35.2258ZM6.70968 33.5484V8.3871H18.7988L20.4763 6.70968H45.2903V33.5484H6.70968ZM7.54839 1.67742H44.4516C44.9146 1.67742 45.2903 2.054 45.2903 2.51613V5.03226H19.7818L18.1044 6.70968H6.70968V2.51613C6.70968 2.054 7.08542 1.67742 7.54839 1.67742ZM4.19355 10.0645H5.03226V33.5484H1.67742V12.5806C1.67742 11.1934 2.80632 10.0645 4.19355 10.0645ZM16.1334 45.2903H20.9677V46.9677H14.7764L15.3836 45.7541C15.527 45.4681 15.8139 45.2903 16.1334 45.2903ZM14.2581 50.3226V48.6452H37.7419V50.3226H14.2581ZM35.8666 45.2903C36.1861 45.2903 36.4738 45.4681 36.6172 45.7541L37.2236 46.9677H31.0323V45.2903H35.8666ZM29.3548 46.9677H22.6452V41.9355H29.3548V46.9677ZM47.8064 40.2581H4.19355C2.80632 40.2581 1.67742 39.1292 1.67742 37.7419V35.2258H17.6129V36.0645C17.6129 37.4517 18.7418 38.5806 20.129 38.5806H31.871C33.2582 38.5806 34.3871 37.4517 34.3871 36.0645V35.2258H50.3226V37.7419C50.3226 39.1292 49.1937 40.2581 47.8064 40.2581Z" fill="#1C1C1B"/>
<path d="M8.38708 3.35486H10.0645V5.03228H8.38708V3.35486Z" fill="#1C1C1B"/>
<path d="M11.7419 3.35486H13.4194V5.03228H11.7419V3.35486Z" fill="#1C1C1B"/>
<path d="M15.0968 3.35486H16.7742V5.03228H15.0968V3.35486Z" fill="#1C1C1B"/>
<path d="M41.0968 25.1613V19.2903H37.9743L34.3871 17.1382V13.4193H40.2581V8.38708H26.8387V13.4193H32.7097V17.1382L29.1225 19.2903H26V25.1613H23.4839V31.871H30.1936V25.1613H27.6774V20.9677H29.1225L33.5484 23.6231L37.9743 20.9677H39.4194V25.1613H36.9032V31.871H43.6129V25.1613H41.0968ZM28.5161 10.0645H38.5807V11.7419H28.5161V10.0645ZM28.5161 30.1935H25.1613V26.8387H28.5161V30.1935ZM33.5484 21.6672L30.9845 20.129L33.5484 18.5908L36.1123 20.129L33.5484 21.6672ZM41.9355 30.1935H38.5807V26.8387H41.9355V30.1935Z" fill="#1C1C1B"/>
<path d="M11.7419 13.4193H18.4516V15.0967H11.7419V13.4193Z" fill="#1C1C1B"/>
<path d="M11.7419 16.7742H18.4516V18.4516H11.7419V16.7742Z" fill="#1C1C1B"/>
<path d="M11.7419 20.129H18.4516V21.8064H11.7419V20.129Z" fill="#1C1C1B"/>
<path d="M11.7419 23.4839H18.4516V25.1613H11.7419V23.4839Z" fill="#1C1C1B"/>
<path d="M11.7419 26.8387H18.4516V28.5162H11.7419V26.8387Z" fill="#1C1C1B"/>
</svg>
