<svg width="52" height="52" viewBox="0 0 52 52" fill="none" xmlns="http://www.w3.org/2000/svg">
<rect width="52" height="52" fill="white"/>
<path d="M0.838745 26.8386V31.0322C0.838745 32.8849 2.34087 34.387 4.19358 34.387H37.742C39.5947 34.387 41.0968 32.8849 41.0968 31.0322V26.8386H0.838745Z" fill="#2AB1A3"/>
<path d="M25.1613 19.2903H36.9032V23.4838H25.1613V19.2903Z" fill="#2AB1A3"/>
<path d="M25.1613 5.03223H26.8387V6.70965H25.1613V5.03223Z" fill="#1C1C1B"/>
<path d="M28.5161 5.03223H30.1935V6.70965H28.5161V5.03223Z" fill="#1C1C1B"/>
<path d="M31.871 5.03223H33.5484V6.70965H31.871V5.03223Z" fill="#1C1C1B"/>
<path d="M35.2258 21.8064H36.9032V23.4838H35.2258V21.8064Z" fill="#1C1C1B"/>
<path d="M31.871 21.8064H33.5484V23.4838H31.871V21.8064Z" fill="#1C1C1B"/>
<path d="M25.1613 21.8064H30.1935V23.4838H25.1613V21.8064Z" fill="#1C1C1B"/>
<path d="M25.1613 18.4517H36.9032V20.1291H25.1613V18.4517Z" fill="#1C1C1B"/>
<path d="M46.129 28.5161H48.6452C50.4954 28.5161 52 27.0115 52 25.1613C52 23.3111 50.4954 21.8065 48.6452 21.8065H41.0968C40.6346 21.8065 40.2581 21.4307 40.2581 20.9677C40.2581 20.5048 40.6346 20.129 41.0968 20.129H46.129C47.5163 20.129 48.6452 19.0001 48.6452 17.6129V16.6895C50.5566 16.2995 52 14.6061 52 12.5806C52 10.2683 50.1188 8.3871 47.8064 8.3871H41.9355V4.19355C41.9355 1.88123 40.0543 0 37.7419 0H4.19355C1.88123 0 0 1.88123 0 4.19355V31.0323C0 33.3446 1.88123 35.2258 4.19355 35.2258H11.7419V38.5806H5.87097C4.48374 38.5806 3.35484 39.7095 3.35484 41.0968V49.4839C3.35484 50.8711 4.48374 52 5.87097 52H36.0645C37.4517 52 38.5806 50.8711 38.5806 49.4839V49.1853C39.9654 50.8996 42.0814 52 44.4516 52C48.6133 52 52 48.6141 52 44.4516V38.5806C52 34.8811 48.9899 31.871 45.2903 31.871V29.3548C45.2903 28.8919 45.6669 28.5161 46.129 28.5161ZM45.2903 33.5484V38.5806H43.6129V33.5484H45.2903ZM41.9355 38.5806H38.5806C38.5806 36.3941 39.9838 34.5347 41.9355 33.8419V38.5806ZM30.1935 35.2258H37.7419C37.7671 35.2258 37.7906 35.2191 37.8157 35.2183C37.2395 36.2079 36.9032 37.3545 36.9032 38.5806V38.735C36.6399 38.641 36.3597 38.5806 36.0645 38.5806H30.1935V35.2258ZM21.8065 12.0078V13.1543L20.5165 12.5806L21.8065 12.0078ZM20.129 10.9175L17.5601 12.059C17.3001 9.9949 15.553 8.3871 13.4194 8.3871C11.107 8.3871 9.22581 10.2683 9.22581 12.5806C9.22581 13.8052 9.76258 14.898 10.6021 15.6654C8.866 16.3934 7.45613 17.7765 6.70968 19.5545V6.70968H20.129V10.9175ZM13.4194 15.0968C12.0321 15.0968 10.9032 13.9679 10.9032 12.5806C10.9032 11.1934 12.0321 10.0645 13.4194 10.0645C14.8066 10.0645 15.9355 11.1934 15.9355 12.5806C15.9355 13.9679 14.8066 15.0968 13.4194 15.0968ZM7.98032 21.0206C8.60516 18.5204 10.842 16.7742 13.4194 16.7742C15.9967 16.7742 18.2335 18.5204 18.8584 21.0206L19.0546 21.8065H7.78406L7.98032 21.0206ZM20.129 19.5545C19.3826 17.7765 17.9727 16.3934 16.2366 15.6663C16.9537 15.0112 17.4326 14.1146 17.5609 13.1032L20.129 14.2438V19.5545ZM23.4839 11.2622L25.1613 10.5166V14.6447L23.4839 13.8991V11.2622ZM45.2903 11.7419H26.8387V10.0645H45.2903V11.7419ZM26.8387 13.4194H45.2903V15.0968H26.8387V13.4194ZM46.129 18.4516H41.9355V16.7742H46.9677V17.6129C46.9677 18.0759 46.5912 18.4516 46.129 18.4516ZM50.3226 12.5806C50.3226 13.9679 49.1937 15.0968 47.8064 15.0968H46.9677V10.0645H47.8064C49.1937 10.0645 50.3226 11.1934 50.3226 12.5806ZM1.67742 31.0323V4.19355C1.67742 2.80632 2.80632 1.67742 4.19355 1.67742H37.7419C39.1292 1.67742 40.2581 2.80632 40.2581 4.19355V8.3871H25.8222L21.8065 10.1719V5.03226H5.03226V23.4839H21.8065V14.9894L25.8222 16.7742H40.2581V18.6059C39.2843 18.9532 38.5806 19.8757 38.5806 20.9677C38.5806 22.0597 39.2843 22.9823 40.2581 23.3295V31.0323C40.2581 32.4195 39.1292 33.5484 37.7419 33.5484H4.19355C2.80632 33.5484 1.67742 32.4195 1.67742 31.0323ZM28.5161 35.2258V40.2581H13.4194V35.2258H28.5161ZM36.9032 49.4839C36.9032 49.9468 36.5266 50.3226 36.0645 50.3226H5.87097C5.40884 50.3226 5.03226 49.9468 5.03226 49.4839V41.0968C5.03226 40.6338 5.40884 40.2581 5.87097 40.2581H11.7419C11.7419 41.1832 12.4943 41.9355 13.4194 41.9355H28.5161C29.4412 41.9355 30.1935 41.1832 30.1935 40.2581H36.0645C36.5266 40.2581 36.9032 40.6338 36.9032 41.0968V41.9355V44.4516V49.4839ZM44.4516 50.3226C41.2142 50.3226 38.5806 47.6882 38.5806 44.4516V41.9355V40.2581H50.3226V44.4516C50.3226 47.6882 47.689 50.3226 44.4516 50.3226ZM50.3226 38.5806H46.9677V33.8419C48.9194 34.5347 50.3226 36.3941 50.3226 38.5806ZM43.6129 29.3548V31.871C42.973 31.871 42.3565 31.9666 41.7694 32.1343C41.8667 31.7812 41.9355 31.4164 41.9355 31.0323V23.4839H48.6452C49.5703 23.4839 50.3226 24.2362 50.3226 25.1613C50.3226 26.0864 49.5703 26.8387 48.6452 26.8387H46.129C44.7418 26.8387 43.6129 27.9676 43.6129 29.3548Z" fill="#1C1C1B"/>
</svg>
