<svg width="52" height="52" viewBox="0 0 52 52" fill="none" xmlns="http://www.w3.org/2000/svg">
<rect width="52" height="52" fill="white"/>
<path d="M50.3226 0H13.4194C12.4942 0 11.7419 0.7523 11.7419 1.67742V3.35484C11.7419 4.27996 12.4942 5.03226 13.4194 5.03226V12.5806H2.51613C1.12906 12.5806 0 13.7097 0 15.0968C0 16.4838 1.12906 17.6129 2.51613 17.6129H13.4194V20.9956H15.0968V17.6129H26.6532V15.9355H2.51613C2.05418 15.9355 1.67742 15.5595 1.67742 15.0968C1.67742 14.634 2.05418 14.2581 2.51613 14.2581H26.6532V12.5806H15.0968V5.03226H48.6452V25.1613H23.1837V26.8387H28.2274L23.6985 41.9355H21.6824V43.6129H24.9475L26.457 38.5806H37.2865L38.7961 43.6129H45.5799L40.5476 26.8387H50.3226V5.03226C51.2477 5.03226 52 4.27996 52 3.35484V1.67742C52 0.7523 51.2477 0 50.3226 0ZM29.979 26.8387H33.763L35.7758 33.5484H27.9661L29.979 26.8387ZM26.9595 36.9032L27.4628 35.2258H36.2791L36.7824 36.9032H26.9595ZM43.3242 41.9355H40.0435L35.5145 26.8387H38.7952L43.3242 41.9355ZM13.4194 3.35484V1.67742H50.3226L50.3234 3.35484H13.4194Z" fill="#1C1C1B"/>
<path d="M41.6386 23.0756C40.831 23.0756 40.0099 22.4028 39.2097 21.7479C38.792 21.4064 38.0155 20.77 37.7403 20.7597C37.4667 20.77 36.6903 21.4064 36.2726 21.7479C35.2352 22.5981 34.1623 23.4774 33.1249 22.8782C32.0639 22.2652 32.3071 20.8044 32.5217 19.516C32.6122 18.9717 32.7641 18.0601 32.6528 17.821C32.5127 17.6387 31.6805 17.3279 31.407 17.2255L31.9951 15.6546C32.9329 16.0051 33.738 16.3467 34.107 16.9847C34.5239 17.7051 34.3552 18.7191 34.1766 19.7928C34.1004 20.2507 33.9821 20.9645 34.0095 21.331C34.331 21.1717 34.865 20.7331 35.209 20.451C36.067 19.7474 36.8782 19.0831 37.7403 19.0831C38.6023 19.0831 39.4136 19.7474 40.2724 20.451C40.616 20.7331 41.1504 21.1709 41.4715 21.331C41.5002 20.9645 41.381 20.2507 41.3048 19.792C41.1263 18.7191 40.9575 17.7059 41.3744 16.9847C41.7786 16.2861 42.7197 15.9372 43.7169 15.569C44.1613 15.4048 44.9414 15.1152 45.2232 14.8896C44.9414 14.6639 44.1604 14.3765 43.7169 14.211C42.7205 13.842 41.7786 13.4931 41.3744 12.7945C40.9567 12.0741 41.1263 11.0601 41.3048 9.98675C41.381 9.52849 41.4993 8.81468 41.4715 8.44857C41.1504 8.60787 40.616 9.04647 40.2724 9.32823C39.4144 10.0318 38.6032 10.696 37.7411 10.696C36.8791 10.696 36.0678 10.0318 35.209 9.32823C34.865 9.04647 34.331 8.60869 34.0095 8.44857C33.9813 8.81468 34.1004 9.52849 34.1766 9.98756C34.3552 11.0601 34.5239 12.0733 34.107 12.7945C33.7028 13.4939 32.7609 13.8428 31.7629 14.2118L31.5188 14.3015L30.9307 12.731L31.1797 12.6384C31.6764 12.4541 32.5074 12.147 32.6601 11.9459C32.7641 11.7186 32.6122 10.8078 32.5217 10.2624C32.3071 8.9744 32.0647 7.51403 33.1258 6.90015C34.1606 6.3006 35.234 7.17944 36.2717 8.03085C36.6895 8.37198 37.4659 9.0088 37.7411 9.01863C38.0147 9.0088 38.7911 8.37198 39.2089 8.03085C40.247 7.18026 41.32 6.30142 42.3565 6.90015C43.4176 7.51321 43.1743 8.9744 42.9597 10.2624C42.8688 10.8066 42.7173 11.7186 42.8287 11.9574C42.9736 12.147 43.8041 12.4541 44.3005 12.6376C45.5512 13.1 46.9677 13.625 46.9677 14.8888C46.9677 16.1534 45.5512 16.6776 44.3005 17.1408C43.805 17.3242 42.9745 17.6322 42.8221 17.8329C42.7181 18.0601 42.8696 18.9709 42.9605 19.516C43.1751 20.8044 43.4176 22.2643 42.3565 22.8782C42.1194 23.015 41.8802 23.0756 41.6386 23.0756Z" fill="#1C1C1B"/>
<path d="M28.761 18.4516H28.5161C26.6659 18.4516 25.1613 16.947 25.1613 15.0968C25.1613 13.2465 26.6659 11.7419 28.5161 11.7419H28.761C29.2787 11.7419 29.7975 11.8644 30.2607 12.0958L36.2623 15.0968L30.2615 18.0978C29.7975 18.3292 29.2787 18.4516 28.761 18.4516Z" fill="#2AB1A3"/>
<path d="M5.60681 44.4516H10.0645C10.9904 44.4516 11.7419 43.7001 11.7419 42.7742V41.0968C11.7419 40.1708 12.4934 39.4193 13.4193 39.4193C14.3453 39.4193 15.0968 40.1708 15.0968 41.0968V46.129C15.0968 46.3842 15.1582 46.6229 15.2593 46.8396C17.2808 46.5619 19.2424 45.8104 20.9341 44.6605C23.5264 42.8983 24.1936 39.3673 22.4531 36.6231C22.0304 35.9556 21.8064 35.1824 21.8064 34.3871C21.8064 33.3715 22.1746 32.3927 22.8429 31.6302C24.8578 29.3339 24.8394 25.9672 22.802 23.9663C20.2826 21.4919 16.9511 20.129 13.421 20.129L13.2953 20.1298C6.2985 20.1937 0.34153 25.9246 0.015138 32.9058C-0.199454 37.5065 1.92148 41.813 5.60681 44.4516ZM13.4193 24.3226C14.3453 24.3226 15.0968 25.0741 15.0968 26C15.0968 26.9259 14.3453 27.6774 13.4193 27.6774C12.4934 27.6774 11.7419 26.9259 11.7419 26C11.7419 25.0741 12.4934 24.3226 13.4193 24.3226ZM9.26756 40.0717C8.61273 40.727 7.55083 40.727 6.89518 40.0717C6.23994 39.4169 6.23994 38.3542 6.89518 37.6993C7.55001 37.0449 8.61191 37.0449 9.26756 37.6993C9.92362 38.3542 9.92362 39.4169 9.26756 40.0717ZM6.896 27.025C7.55083 26.3698 8.61273 26.3698 9.26838 27.025C9.92362 27.6799 9.92362 28.7426 9.26838 29.3974C8.61355 30.0518 7.55165 30.0518 6.896 29.3974C6.24076 28.7426 6.24076 27.6799 6.896 27.025ZM5.87095 31.871C6.79689 31.871 7.54837 32.6224 7.54837 33.5484C7.54837 34.4743 6.79689 35.2258 5.87095 35.2258C4.94501 35.2258 4.19353 34.4743 4.19353 33.5484C4.19353 32.6224 4.94501 31.871 5.87095 31.871Z" fill="#2AB1A3"/>
<path d="M13.4194 28.5161C12.0323 28.5161 10.9032 27.3871 10.9032 26C10.9032 24.613 12.0323 23.4839 13.4194 23.4839C14.8064 23.4839 15.9355 24.613 15.9355 26C15.9355 27.3871 14.8064 28.5161 13.4194 28.5161ZM13.4194 25.1613C12.9574 25.1613 12.5806 25.5373 12.5806 26C12.5806 26.4628 12.9574 26.8387 13.4194 26.8387C13.8813 26.8387 14.2581 26.4628 14.2581 26C14.2581 25.5373 13.8813 25.1613 13.4194 25.1613Z" fill="#1C1C1B"/>
<path d="M8.08199 30.7259C7.4378 30.7259 6.79362 30.481 6.30301 29.9912C5.32178 29.0092 5.32178 27.4133 6.30219 26.432C7.28259 25.4508 8.87852 25.45 9.86056 26.432C10.8418 27.4133 10.8418 29.0092 9.86056 29.9904C9.36995 30.4802 8.72576 30.7259 8.08199 30.7259ZM8.08199 27.3731C7.86699 27.3731 7.65158 27.4542 7.48818 27.618C7.16096 27.9448 7.16096 28.4776 7.48818 28.8048C7.81416 29.1308 8.34695 29.1316 8.67457 28.8036C9.00178 28.4768 9.00178 27.9456 8.67457 27.618C8.51117 27.4534 8.29658 27.3731 8.08199 27.3731Z" fill="#1C1C1B"/>
<path d="M5.87096 36.0645C4.48389 36.0645 3.35483 34.9354 3.35483 33.5484C3.35483 32.1613 4.48389 31.0322 5.87096 31.0322C7.25802 31.0322 8.38708 32.1613 8.38708 33.5484C8.38708 34.9354 7.25802 36.0645 5.87096 36.0645ZM5.87096 32.7096C5.40901 32.7096 5.03225 33.0856 5.03225 33.5484C5.03225 34.0111 5.40901 34.3871 5.87096 34.3871C6.3329 34.3871 6.70967 34.0111 6.70967 33.5484C6.70967 33.0856 6.3329 32.7096 5.87096 32.7096Z" fill="#1C1C1B"/>
<path d="M8.082 41.4002C7.43782 41.4002 6.79364 41.1553 6.30302 40.6647C5.32262 39.6835 5.32262 38.0876 6.30302 37.1063L6.30384 37.1055C7.28425 36.1247 8.88099 36.1259 9.8614 37.1055C10.843 38.0876 10.843 39.6835 9.8614 40.6647C9.36996 41.1553 8.72578 41.4002 8.082 41.4002ZM7.48901 38.2919C7.1618 38.6191 7.1618 39.1519 7.48901 39.4787C7.81581 39.8076 8.34779 39.8059 8.67459 39.4787C9.0018 39.1511 9.0018 38.6199 8.67459 38.2919C8.34779 37.9667 7.81499 37.9667 7.48901 38.2919Z" fill="#1C1C1B"/>
<path d="M32.7097 52H22.6452V50.3226H32.7097C33.1716 50.3226 33.5484 49.9467 33.5484 49.4839C33.5484 49.0211 33.1716 48.6452 32.7097 48.6452H16.7742C15.3871 48.6452 14.2581 47.5161 14.2581 46.1291V41.0968C14.2581 40.6341 13.8813 40.2581 13.4194 40.2581C12.9574 40.2581 12.5806 40.6341 12.5806 41.0968V42.7742C12.5806 44.1613 11.4516 45.2904 10.0645 45.2904H2.51613C2.05418 45.2904 1.67742 45.6663 1.67742 46.1291C1.67742 46.5918 2.05418 46.9678 2.51613 46.9678H7.54839C8.93545 46.9678 10.0645 48.0968 10.0645 49.4839C10.0645 49.9467 10.4413 50.3226 10.9032 50.3226H17.6129V52H10.9032C9.51616 52 8.3871 50.871 8.3871 49.4839C8.3871 49.0211 8.01033 48.6452 7.54839 48.6452H2.51613C1.12906 48.6452 0 47.5161 0 46.1291C0 44.742 1.12906 43.6129 2.51613 43.6129H10.0645C10.5265 43.6129 10.9032 43.237 10.9032 42.7742V41.0968C10.9032 39.7098 12.0323 38.5807 13.4194 38.5807C14.8064 38.5807 15.9355 39.7098 15.9355 41.0968V46.1291C15.9355 46.5918 16.3122 46.9678 16.7742 46.9678H32.7097C34.0967 46.9678 35.2258 48.0968 35.2258 49.4839C35.2258 50.871 34.0967 52 32.7097 52Z" fill="#1C1C1B"/>
</svg>
