<svg width="52" height="52" viewBox="0 0 52 52" fill="none" xmlns="http://www.w3.org/2000/svg">
<rect width="52" height="52" fill="white"/>
<path d="M15.9355 23.4839C13.6232 23.4839 11.7419 21.6027 11.7419 19.2903C11.7419 16.978 13.6232 15.0968 15.9355 15.0968C18.2478 15.0968 20.129 16.978 20.129 19.2903C20.129 21.6027 18.2478 23.4839 15.9355 23.4839Z" fill="#2AB1A3"/>
<path d="M25.9999 23.4839C23.6876 23.4839 21.8064 21.6027 21.8064 19.2903C21.8064 16.978 23.6876 15.0968 25.9999 15.0968C28.3123 15.0968 30.1935 16.978 30.1935 19.2903C30.1935 21.6027 28.3123 23.4839 25.9999 23.4839Z" fill="#2AB1A3"/>
<path d="M15.9355 35.2258C13.6232 35.2258 11.7419 33.3446 11.7419 31.0322C11.7419 28.7199 13.6232 26.8387 15.9355 26.8387C18.2478 26.8387 20.129 28.7199 20.129 31.0322C20.129 33.3446 18.2478 35.2258 15.9355 35.2258Z" fill="#2AB1A3"/>
<path d="M25.9999 35.2258C23.6876 35.2258 21.8064 33.3446 21.8064 31.0322C21.8064 28.7199 23.6876 26.8387 25.9999 26.8387C28.3123 26.8387 30.1935 28.7199 30.1935 31.0322C30.1935 33.3446 28.3123 35.2258 25.9999 35.2258Z" fill="#2AB1A3"/>
<path d="M37.9399 27.2807L36.3505 30.4586C36.1752 30.81 35.8163 31.0322 35.4237 31.0322C34.8509 31.0322 34.3871 30.5684 34.3871 29.9956V27.2874L34.1497 27.295L33.9661 27.4006C32.6736 28.1488 31.871 29.5402 31.871 31.0322C31.871 33.3446 33.7522 35.2258 36.0645 35.2258C38.3768 35.2258 40.2581 33.3446 40.2581 31.0322C40.2581 29.4345 39.3699 27.997 37.9399 27.2807Z" fill="#2AB1A3"/>
<path d="M4.1936 31.871H5.87102V33.5484H4.1936V31.871Z" fill="#1C1C1B"/>
<path d="M4.1936 38.5806H5.87102V40.258H4.1936V38.5806Z" fill="#1C1C1B"/>
<path d="M4.1936 35.2258H5.87102V36.9032H4.1936V35.2258Z" fill="#1C1C1B"/>
<path d="M41.0968 20.6205L40.0124 19.5361L38.8264 20.722L41.0968 22.9924L46.722 17.3672L45.5361 16.1812L41.0968 20.6205Z" fill="#1C1C1B"/>
<path d="M49.4839 13.4194H48.6452V7.54839C48.6452 5.23606 46.7639 3.35484 44.4516 3.35484H39.4194V2.51613C39.4194 1.1289 38.2905 0 36.9032 0H35.2258C33.8386 0 32.7097 1.1289 32.7097 2.51613V3.35484H29.3548V2.51613C29.3548 1.1289 28.2259 0 26.8387 0H25.1613C23.7741 0 22.6452 1.1289 22.6452 2.51613V3.35484H19.2903V2.51613C19.2903 1.1289 18.1614 0 16.7742 0H15.0968C13.7095 0 12.5806 1.1289 12.5806 2.51613V3.35484H7.54839C5.23606 3.35484 3.35484 5.23606 3.35484 7.54839V15.3903C1.40316 16.0831 0 17.9425 0 20.129V44.6495L3.068 50.7864C3.4429 51.5345 4.19523 52 5.03226 52C5.86929 52 6.62161 51.5345 6.99652 50.7864L10.0645 44.6495V43.6129H44.4516C46.7639 43.6129 48.6452 41.7317 48.6452 39.4194V25.1613H49.4839C50.8711 25.1613 52 24.0324 52 22.6452V15.9355C52 14.5483 50.8711 13.4194 49.4839 13.4194ZM34.3871 2.51613C34.3871 2.054 34.7628 1.67742 35.2258 1.67742H36.9032C37.3662 1.67742 37.7419 2.054 37.7419 2.51613V5.87097C37.7419 6.3331 37.3662 6.70968 36.9032 6.70968H35.2258C34.7628 6.70968 34.3871 6.3331 34.3871 5.87097V2.51613ZM24.3226 2.51613C24.3226 2.054 24.6983 1.67742 25.1613 1.67742H26.8387C27.3017 1.67742 27.6774 2.054 27.6774 2.51613V5.87097C27.6774 6.3331 27.3017 6.70968 26.8387 6.70968H25.1613C24.6983 6.70968 24.3226 6.3331 24.3226 5.87097V2.51613ZM14.2581 2.51613C14.2581 2.054 14.6338 1.67742 15.0968 1.67742H16.7742C17.2372 1.67742 17.6129 2.054 17.6129 2.51613V5.87097C17.6129 6.3331 17.2372 6.70968 16.7742 6.70968H15.0968C14.6338 6.70968 14.2581 6.3331 14.2581 5.87097V2.51613ZM5.03226 7.54839C5.03226 6.16116 6.16116 5.03226 7.54839 5.03226H12.5806V5.87097C12.5806 7.25819 13.7095 8.3871 15.0968 8.3871H16.7742C18.1614 8.3871 19.2903 7.25819 19.2903 5.87097V5.03226H22.6452V5.87097C22.6452 7.25819 23.7741 8.3871 25.1613 8.3871H26.8387C28.2259 8.3871 29.3548 7.25819 29.3548 5.87097V5.03226H32.7097V5.87097C32.7097 7.25819 33.8386 8.3871 35.2258 8.3871H36.9032C38.2905 8.3871 39.4194 7.25819 39.4194 5.87097V5.03226H44.4516C45.8388 5.03226 46.9677 6.16116 46.9677 7.54839V13.4194H45.2903V11.7419C45.2903 10.8168 44.538 10.0645 43.6129 10.0645H8.3871C7.462 10.0645 6.70968 10.8168 6.70968 11.7419V15.3903C6.18381 15.2041 5.62103 15.0968 5.03226 15.0968V7.54839ZM35.4237 31.871C36.1383 31.871 36.7799 31.4743 37.1012 30.8343L39.9377 25.1613H43.6129V38.5806H10.0645V20.129C10.0645 18.6437 9.41368 17.311 8.3871 16.3884V11.7419H43.6129V13.4194H36.0645C34.6773 13.4194 33.5484 14.5483 33.5484 15.9355V29.9956C33.5484 31.0297 34.3896 31.871 35.4237 31.871ZM1.67742 43.6129V28.5161H8.3871V43.6129H1.67742ZM8.3871 26.8387H1.67742V25.1613H8.3871V26.8387ZM5.03226 16.7742C6.88245 16.7742 8.3871 18.2788 8.3871 20.129V23.4839H1.67742V20.129C1.67742 18.2788 3.18206 16.7742 5.03226 16.7742ZM5.49606 50.0357C5.3191 50.3905 4.74542 50.3897 4.56929 50.0357L2.19574 45.2903H7.86877L5.49606 50.0357ZM46.9677 39.4194C46.9677 40.8066 45.8388 41.9355 44.4516 41.9355H10.0645V40.2581H43.6129C44.538 40.2581 45.2903 39.5057 45.2903 38.5806V25.1613H46.9677V39.4194ZM50.3226 22.6452C50.3226 23.1073 49.9468 23.4839 49.4839 23.4839H38.901L35.6015 30.0837C35.5177 30.2497 35.2258 30.1801 35.2258 29.9956V15.9355C35.2258 15.4734 35.6015 15.0968 36.0645 15.0968H49.4839C49.9468 15.0968 50.3226 15.4734 50.3226 15.9355V22.6452Z" fill="#1C1C1B"/>
</svg>
