<svg width="53" height="52" viewBox="0 0 53 52" fill="none" xmlns="http://www.w3.org/2000/svg">
<rect width="52" height="52" fill="white"/>
<path d="M8.39136 41.8792V41.5041C8.39136 39.4222 10.0789 37.7347 12.1608 37.7347H10.9088C7.20147 37.7347 4.19568 34.7289 4.19568 31.0207V22.9885C4.19568 21.2549 5.26138 19.7008 6.8784 19.0756L8.25458 18.5436C9.11973 19.9861 10.6998 20.9519 12.5048 20.9519H22.6567L22.6558 31.0216C22.6558 34.7289 19.65 37.7347 15.9427 37.7347H14.0748C14.7579 37.7347 15.4376 37.8295 16.0938 38.0175C18.3955 38.6753 20.1745 40.4014 20.9675 42.5798C24.3853 41.807 26.8524 38.7383 26.8524 35.2173V21.7911C26.8524 14.8506 21.2058 9.20404 14.2653 9.20404H12.587C5.64655 9.20404 0 14.8506 0 21.7911V35.2173C0 39.3819 3.38843 42.7695 7.55222 42.7695H8.39639L8.49877 42.7686C8.42828 42.4775 8.39136 42.1796 8.39136 41.8792Z" fill="#2AB1A3"/>
<path d="M33.5654 35.2173H31.8871V46.9652H28.4458C28.0556 45.0528 26.3614 43.6087 24.3349 43.6087H22.1255C21.7059 41.3413 20.3356 39.361 18.414 38.1501C21.3669 37.123 23.4949 34.3194 23.4958 31.0216V21.7911V20.952C23.4958 18.109 21.46 15.7065 18.6556 15.2391L17.7594 15.0898L17.4834 16.7454L18.3796 16.8948C20.0889 17.1792 21.3954 18.4757 21.7319 20.1129H12.5048C10.2366 20.1129 8.39132 18.2676 8.39132 15.9994V15.9172L6.71305 15.9994C6.71305 16.7362 6.85654 17.4385 7.10828 18.0872L6.57543 18.2928C4.65045 19.0371 3.35651 20.9235 3.35651 22.9886V31.0208C3.35651 34.4772 5.6935 37.3923 8.86879 38.286C8.05567 39.1168 7.55219 40.2521 7.55219 41.5041V41.8792C7.55219 42.5916 7.72085 43.3032 8.03889 43.9401L9.98149 47.8253C11.2687 50.3998 13.8575 52 16.7365 52H23.4958H24.3349H33.5654C35.4165 52 36.9219 50.4946 36.9219 48.6435V46.9652V38.5738C36.9219 36.7219 35.4165 35.2173 33.5654 35.2173ZM26.6979 46.9652H23.4958V45.2869H24.3349C25.4275 45.2869 26.3505 45.9901 26.6979 46.9652ZM20.4103 43.6087H17.4372L16.6316 40.3872C16.489 39.8166 16.2364 39.3005 15.9117 38.8424C18.1656 39.5061 19.8808 41.3573 20.4103 43.6087ZM5.03478 31.0208V22.9886C5.03478 21.6124 5.89741 20.3545 7.18129 19.8586L7.94826 19.5624C9.00977 20.9167 10.6553 21.7911 12.5056 21.7911H21.8175V31.0216C21.8175 34.2598 19.1818 36.8956 15.9435 36.8956H14.0748H12.8052H10.9087C7.66967 36.8956 5.03478 34.2598 5.03478 31.0208ZM11.4827 47.0743L9.5401 43.1891C9.33703 42.7846 9.23046 42.3315 9.23046 41.8792V41.5041C9.23046 39.8879 10.5445 38.5738 12.1607 38.5738C13.5075 38.5738 14.6773 39.4868 15.0037 40.7942L15.9175 44.4478L15.1296 47.6013L16.7575 48.0074L17.438 45.2869H21.8175V46.9652C20.8919 46.9652 20.1392 47.7179 20.1392 48.6435C20.1392 49.2577 20.3171 49.8258 20.6058 50.3217H16.7357C14.4969 50.3217 12.4838 49.0773 11.4827 47.0743ZM33.5654 50.3217H24.3349H23.4958C22.5702 50.3217 21.8175 49.569 21.8175 48.6435H31.8871H35.2437C35.2437 49.5682 34.491 50.3217 33.5654 50.3217ZM33.5654 46.9652V36.8956C34.491 36.8956 35.2437 37.6483 35.2437 38.5738V46.9652H33.5654Z" fill="#1C1C1B"/>
<path d="M17.6218 31.0216V30.1825H9.23047V31.0216C9.23047 33.3351 11.1127 35.2173 13.4261 35.2173C15.7396 35.2173 17.6218 33.3343 17.6218 31.0216ZM11.0522 31.8608H15.7992C15.4527 32.8375 14.5195 33.539 13.4253 33.539C12.3311 33.539 11.3988 32.8375 11.0522 31.8608Z" fill="#1C1C1B"/>
<path d="M10.9087 26.8259H12.587C12.587 24.9748 11.0816 23.4694 9.23045 23.4694C7.37931 23.4694 5.8739 24.9748 5.8739 26.8259H7.55217C7.55217 25.9003 8.30488 25.1476 9.23045 25.1476C10.156 25.1476 10.9087 25.9003 10.9087 26.8259Z" fill="#1C1C1B"/>
<path d="M17.6218 25.1476C18.5474 25.1476 19.3001 25.9003 19.3001 26.8259H20.9783C20.9783 24.9748 19.4729 23.4694 17.6218 23.4694C15.7707 23.4694 14.2653 24.9748 14.2653 26.8259H15.9435C15.9435 25.9003 16.6962 25.1476 17.6218 25.1476Z" fill="#1C1C1B"/>
<path d="M52.0264 24.3085C52.0264 22.0303 50.8281 20.1934 48.5717 18.9439C49.1809 17.1708 49.509 15.3004 49.509 13.4023C49.509 8.84659 47.7351 4.56448 44.5136 1.34304L43.9825 0.811864C42.9008 -0.270621 41.0127 -0.270621 39.9311 0.811864L39.3999 1.34304C36.1785 4.56448 34.4046 8.84743 34.4046 13.4023C34.4046 15.2995 34.7327 17.1708 35.3419 18.9431C33.0854 20.1925 31.8871 22.0303 31.8871 24.3085V25.1476H37.9037C37.1175 26.5129 36.0828 28.7417 36.0828 31.0216C36.0828 32.4263 37.261 33.7018 38.2495 34.525C38.9888 35.1409 39.5594 35.7577 39.9949 36.4089C40.5067 37.1758 41.1176 38.3196 41.1176 39.413V40.2521H41.9568C42.0155 40.2521 47.8307 40.1564 47.8307 31.8607C47.8307 29.4482 46.6618 26.711 45.8797 25.1476H52.0264V24.3085ZM40.5865 2.53041L41.1176 1.99924C41.559 1.55786 42.3545 1.55786 42.7959 1.99924L43.3271 2.53041C44.1578 3.36116 44.8677 4.27666 45.4786 5.24754C44.5405 6.16807 43.2851 6.68666 41.9568 6.68666C40.6284 6.68666 39.3731 6.16807 38.4349 5.24754C39.045 4.27666 39.7557 3.36116 40.5865 2.53041ZM37.6075 6.75127C38.8125 7.78257 40.3414 8.36493 41.9568 8.36493C43.5721 8.36493 45.101 7.78257 46.306 6.75127C47.2937 8.80296 47.8307 11.0586 47.8307 13.4023C47.8307 16.9921 46.5653 20.4879 44.2669 23.2453L44.0806 23.4685H39.8321L39.6458 23.2453C37.3482 20.4879 36.0828 16.9921 36.0828 13.4023C36.0828 11.0586 36.6199 8.80296 37.6075 6.75127ZM35.9628 20.5148C36.4395 21.5536 37.0294 22.5396 37.7082 23.4685H33.6451C33.886 22.2686 34.6664 21.2809 35.9628 20.5148ZM42.7003 38.4412C42.5182 37.5022 42.0801 36.5079 41.3895 35.4757C40.8642 34.6886 40.1879 33.9561 39.3236 33.2352C38.3451 32.4204 37.7611 31.5922 37.7611 31.0216C37.7611 28.5696 39.285 26.0396 39.8782 25.1476H43.9841C44.585 26.2469 46.1525 29.3576 46.1525 31.8607C46.1525 36.7596 43.9078 38.0846 42.7003 38.4412ZM46.2045 23.4694C46.8842 22.5405 47.4741 21.5536 47.9499 20.5156C49.2472 21.2817 50.0276 22.2686 50.2667 23.4694H46.2045Z" fill="#1C1C1B"/>
<path d="M46.1525 14.2389C46.1525 11.9254 44.2703 10.0432 41.9568 10.0432C39.6433 10.0432 37.7611 11.9254 37.7611 14.2389C37.7611 16.5524 39.6433 18.4346 41.9568 18.4346C44.2703 18.4346 46.1525 16.5516 46.1525 14.2389ZM39.4394 14.2389C39.4394 12.851 40.5689 11.7215 41.9568 11.7215C43.3447 11.7215 44.4742 12.851 44.4742 14.2389C44.4742 15.6268 43.3447 16.7563 41.9568 16.7563C40.5689 16.7563 39.4394 15.6268 39.4394 14.2389Z" fill="#1C1C1B"/>
<path d="M42.3041 25.9868H40.599L40.3674 26.4509C40.3297 26.5264 39.4393 28.3272 39.4393 30.1825C39.4393 32.2501 42.0348 34.04 42.3302 34.2372L43.1206 34.7642L43.5461 33.9141C43.5838 33.8378 44.4741 32.037 44.4741 30.1825C44.4741 28.213 42.7472 26.429 42.55 26.2327L42.3041 25.9868ZM42.4325 32.1822C41.7856 31.5956 41.1176 30.8093 41.1176 30.1825C41.1176 29.2552 41.4214 28.3012 41.6421 27.7297C42.1128 28.2928 42.7959 29.3031 42.7959 30.1825C42.7959 30.8949 42.6163 31.6241 42.4325 32.1822Z" fill="#1C1C1B"/>
<path d="M42.7959 41.9304H41.1176V43.6086H39.4393V45.2869H41.1176V46.9652H42.7959V45.2869H44.4741V43.6086H42.7959V41.9304Z" fill="#1C1C1B"/>
<path d="M28.7764 7.77083L29.963 8.9582L33.9128 5.00839L29.963 1.05774L28.7764 2.24512L30.7006 4.16926H10.0696V5.84753H30.7006L28.7764 7.77083Z" fill="#1C1C1B"/>
<path d="M3.35651 4.16925H5.03478V5.84752H3.35651V4.16925Z" fill="#1C1C1B"/>
<path d="M6.71307 4.16925H8.39135V5.84752H6.71307V4.16925Z" fill="#1C1C1B"/>
</svg>
