<svg width="52" height="52" viewBox="0 0 52 52" fill="none" xmlns="http://www.w3.org/2000/svg">
<rect width="52" height="52" fill="white"/>
<path d="M35.5067 4.21871C33.6188 4.69006 31.6461 4.29168 30.092 3.12587L29.8857 2.97155C27.3318 1.0551 24.1657 0 20.9735 0C18.9506 0 16.9813 0.404258 15.1227 1.20103L12.0136 2.5329L9.85394 2.74929C5.94723 3.14013 3 6.39516 3 10.3228C3 11.96 3.54097 13.5821 4.52226 14.8896L5.43981 16.1125C5.72413 16.0017 6.0311 15.9355 6.35484 15.9355H8.87097V12.9514C8.87097 10.894 10.5392 9.22581 12.5965 9.22581C13.4428 9.22581 14.263 9.51348 14.9239 10.0419C16.9779 11.6857 19.5301 12.5806 22.1603 12.5806H29V15.9355H31.5161C31.8558 15.9355 32.1787 16.0043 32.4739 16.1267C35.0966 13.3128 36.5484 9.67703 36.5484 5.81142V3.95787L35.5067 4.21871Z" fill="#2AB1A3"/>
<path d="M49.8377 25.9899L48.9051 20.3882L47.1413 21.5641C46.2959 22.1268 45.1871 22.1528 44.3182 21.6312C42.6794 20.649 40.8023 20.129 38.8917 20.129C36.0745 20.129 33.4259 21.2261 31.4348 23.218L30.9819 23.6709L30.763 23.8168C29.1342 24.903 28.1613 26.7204 28.1613 28.678C28.1613 29.8354 28.5001 30.9559 29.1426 31.9196L29.8286 32.9479C30.0777 32.8003 30.3663 32.7097 30.6774 32.7097H32.3548V31.0323C32.3548 30.1055 33.1055 29.3548 34.0323 29.3548H44.0968C44.3425 29.3548 44.574 29.2986 44.7845 29.2039L44.787 29.2064L45.037 29.4563C45.5092 29.9285 45.7742 30.5684 45.7742 31.2361V32.7097H47.4516C47.7628 32.7097 48.0513 32.8003 48.3012 32.9479L48.3658 32.8506C49.4142 31.278 49.9677 29.4479 49.9677 27.5583C49.9677 27.0324 49.9233 26.5041 49.8377 25.9899Z" fill="#2AB1A3"/>
<path d="M13.9032 15.0968C12.516 15.0968 11.3871 16.2257 11.3871 17.6129C11.3871 19.0002 12.516 20.1291 13.9032 20.1291C15.2904 20.1291 16.4193 19.0002 16.4193 17.6129C16.4193 16.2257 15.2904 15.0968 13.9032 15.0968ZM13.9032 18.4516C13.4402 18.4516 13.0645 18.0751 13.0645 17.6129C13.0645 17.1508 13.4402 16.7742 13.9032 16.7742C14.3662 16.7742 14.7419 17.1508 14.7419 17.6129C14.7419 18.0751 14.3662 18.4516 13.9032 18.4516Z" fill="#1C1C1B"/>
<path d="M23.9677 20.1291C25.355 20.1291 26.4839 19.0002 26.4839 17.6129C26.4839 16.2257 25.355 15.0968 23.9677 15.0968C22.5805 15.0968 21.4516 16.2257 21.4516 17.6129C21.4516 19.0002 22.5805 20.1291 23.9677 20.1291ZM23.9677 16.7742C24.4307 16.7742 24.8064 17.1508 24.8064 17.6129C24.8064 18.0751 24.4307 18.4516 23.9677 18.4516C23.5048 18.4516 23.129 18.0751 23.129 17.6129C23.129 17.1508 23.5048 16.7742 23.9677 16.7742Z" fill="#1C1C1B"/>
<path d="M21.6973 22.0522C20.7739 22.9756 19.5469 23.4839 18.241 23.4839H16.4193V25.1613H18.241C19.9956 25.1613 21.6445 24.4786 22.8833 23.2381L21.6973 22.0522Z" fill="#1C1C1B"/>
<path d="M29.8387 10.0645V8.38711H26.8068C23.9174 8.38711 21.0918 7.84279 18.4079 6.77008L17.7856 8.32673C20.6666 9.47995 23.7027 10.0645 26.8068 10.0645H29.8387Z" fill="#1C1C1B"/>
<path d="M36.5484 33.8956L36.7941 34.1414L37.9801 32.9554L37.7343 32.7097C36.6516 31.6286 34.7678 31.6278 33.685 32.7097L33.4393 32.9554L34.6252 34.1414L34.871 33.8965C35.3197 33.4469 36.0997 33.4478 36.5484 33.8956Z" fill="#1C1C1B"/>
<path d="M40.3947 32.7097L40.149 32.9554L41.3349 34.1414L41.5806 33.8965C42.0293 33.4478 42.8093 33.4478 43.2581 33.8965L43.5038 34.1422L44.6897 32.9563L44.444 32.7097C43.3612 31.6278 41.4775 31.6278 40.3947 32.7097Z" fill="#1C1C1B"/>
<path d="M36.1668 37.9952C36.4989 39.328 37.6907 40.2581 39.0645 40.2581C40.4383 40.2581 41.6301 39.328 41.9623 37.9952L42.6542 35.2258H35.4749L36.1668 37.9952ZM40.5071 36.9032L40.336 37.5885C40.1892 38.1731 39.6667 38.5807 39.0645 38.5807C38.4623 38.5807 37.9398 38.1731 37.793 37.5885L37.6219 36.9032H40.5071Z" fill="#1C1C1B"/>
<path d="M46.5634 36.9033H47.4516C48.8388 36.9033 49.9677 35.7743 49.9677 34.3871C49.9677 32.9999 48.8388 31.871 47.4516 31.871H46.6129V31.2361C46.6129 30.5383 46.4007 29.8732 46.0074 29.3129C46.3856 28.8726 46.6129 28.3014 46.6129 27.6774C46.6129 26.2902 45.484 25.1613 44.0968 25.1613H43.9525C43.2807 25.1613 42.6483 25.423 42.1736 25.8985L41.8264 26.2458L43.0123 27.4317L43.3595 27.0845C43.5164 26.9285 43.7319 26.8387 43.9525 26.8387H44.0968C44.5597 26.8387 44.9355 27.2153 44.9355 27.6774C44.9355 28.1396 44.5597 28.5162 44.0968 28.5162H34.0323C32.645 28.5162 31.5161 29.6451 31.5161 31.0323V31.871H30.6774C29.3514 31.871 28.2737 32.9051 28.1797 34.2076C26.9586 32.3969 25.1386 31.0038 22.9454 30.3429L22.6711 29.5209C26.0754 28.2738 28.6855 25.3819 29.5343 21.8065H31.5161C33.3663 21.8065 34.871 20.3018 34.871 18.4516C34.871 16.6014 33.3663 15.0968 31.5161 15.0968H29.8387V13.4194H31.5161V11.742H22.1603C19.7306 11.742 17.3461 10.9058 15.4473 9.38687C14.9399 8.98093 14.3452 8.70499 13.7204 8.5448L13.2683 4.92828L11.6043 5.13628L12.0161 8.42822C9.77258 8.71506 8.03226 10.6323 8.03226 12.9514V15.0968H6.35484C4.50464 15.0968 3 16.6014 3 18.4516C3 20.3018 4.50464 21.8065 6.35484 21.8065H8.33671C9.18632 25.3819 11.7955 28.2729 15.1999 29.5209L14.9256 30.3429C10.8445 31.5724 8.03226 35.3248 8.03226 39.6257V41.9355H9.70968V45.1872C9.70968 47.3813 11.0634 49.3002 13.0645 50.0802V52H24.8065V50.0802C26.8076 49.2994 28.1613 47.3813 28.1613 45.1872V41.9355H29.8387V39.6257C29.8387 38.5379 29.6575 37.4862 29.3229 36.5007C29.7146 36.7531 30.1784 36.9033 30.6774 36.9033H31.5656C31.8726 39.6643 33.6725 41.9816 36.1408 43.0233L35.9001 43.7446C33.2825 44.4684 31.3081 46.6868 30.9198 49.4059L30.5491 52H47.5808L47.2101 49.4059C46.8217 46.6868 44.8483 44.4684 42.2298 43.7446L41.9891 43.0233C44.4566 41.9816 46.2565 39.6651 46.5634 36.9033ZM47.4516 33.5484C47.9146 33.5484 48.2903 33.925 48.2903 34.3871C48.2903 34.8493 47.9146 35.2258 47.4516 35.2258H46.6129V33.5484H47.4516ZM6.35484 20.1291C5.42974 20.1291 4.67742 19.3767 4.67742 18.4516C4.67742 17.5265 5.42974 16.7742 6.35484 16.7742H8.03226V19.2903C8.03226 19.5738 8.05323 19.8514 8.07503 20.1291H6.35484ZM15.4137 31.9549L18.0758 33.9518L16.7439 34.8392L15.3165 31.9834C15.3492 31.9742 15.3819 31.9649 15.4137 31.9549ZM22.4572 31.9549C22.4891 31.9649 22.5218 31.9733 22.5545 31.9834L21.127 34.8392L19.7952 33.9518L22.4572 31.9549ZM31.5161 16.7742C32.4412 16.7742 33.1935 17.5265 33.1935 18.4516C33.1935 19.3767 32.4412 20.1291 31.5161 20.1291H29.7959C29.8177 19.8514 29.8387 19.5738 29.8387 19.2903V16.7742H31.5161ZM9.70968 19.2903V12.9514C9.70968 11.3595 11.0046 10.0645 12.5957 10.0645C13.2482 10.0645 13.889 10.2893 14.3989 10.6969C16.5938 12.4523 19.3498 13.4194 22.1603 13.4194H28.1613V19.2903C28.1613 24.3771 24.0223 28.5162 18.9355 28.5162C13.8487 28.5162 9.70968 24.3771 9.70968 19.2903ZM18.9355 30.1936C19.6618 30.1936 20.3697 30.1189 21.0566 29.9831L21.3032 30.7245L18.9355 32.5L16.567 30.7245L16.8135 29.9831C17.5013 30.1189 18.2092 30.1936 18.9355 30.1936ZM11.3871 45.1872V41.9355H13.0645V48.2208C12.0421 47.5775 11.3871 46.4478 11.3871 45.1872ZM19.7742 50.3226V48.1537C19.7742 47.6127 19.9847 47.1045 20.3672 46.722L19.1812 45.5353C18.4817 46.2347 18.0968 47.164 18.0968 48.1537V50.3226H14.7419V45.2904H23.129V50.3226H19.7742ZM26.4839 45.1872C26.4839 46.4478 25.8288 47.5775 24.8065 48.2208V41.9355H26.4839V45.1872ZM28.1613 40.2581H24.8065V37.2505C24.8065 36.7095 25.017 36.2013 25.3994 35.8188L24.2135 34.632C23.514 35.3315 23.129 36.2608 23.129 37.2505V43.6129H14.7419V37.2505C14.7419 36.2608 14.357 35.3315 13.6575 34.632L12.4715 35.8188C12.854 36.2013 13.0645 36.7095 13.0645 37.2505V40.2581H9.70968V39.6257C9.70968 36.6793 11.3083 34.0474 13.7757 32.6518L16.0948 37.2899L18.9355 35.3953L21.777 37.2899L24.0961 32.6518C26.5627 34.0474 28.1613 36.6793 28.1613 39.6257V40.2581ZM29.8387 34.3871C29.8387 33.925 30.2145 33.5484 30.6774 33.5484H31.5161V35.2258H30.6774C30.2145 35.2258 29.8387 34.8493 29.8387 34.3871ZM41.7266 45.3616C41.8063 45.3826 41.8851 45.4036 41.9631 45.4287L41.1848 47.3737L39.9477 46.5484L41.7266 45.3616ZM38.1814 46.5484L36.9426 47.3737L36.1643 45.4287C36.2423 45.4044 36.3219 45.3826 36.4008 45.3616L38.1814 46.5484ZM45.5477 49.6424L45.6459 50.3226H32.4832L32.5805 49.6424C32.7826 48.2284 33.5567 47.0005 34.6613 46.1886L36.1525 49.9158L39.0645 47.9759L41.9757 49.9167L43.4669 46.1894C44.5715 47.0005 45.3465 48.2284 45.5477 49.6424ZM40.5826 44.1094L39.0645 45.1209L37.5464 44.1086L37.7519 43.4905C38.1797 43.566 38.6166 43.6129 39.0645 43.6129C39.5124 43.6129 39.9494 43.566 40.3763 43.4913L40.5826 44.1094ZM39.0645 41.9355C35.8279 41.9355 33.1935 39.302 33.1935 36.0645V31.0323C33.1935 30.5702 33.5693 30.1936 34.0323 30.1936H44.0968C44.2486 30.1936 44.3962 30.1802 44.5405 30.1542C44.7963 30.4569 44.9355 30.836 44.9355 31.2361V36.0645C44.9355 39.302 42.3011 41.9355 39.0645 41.9355Z" fill="#1C1C1B"/>
</svg>
