<svg width="52" height="52" viewBox="0 0 52 52" fill="none" xmlns="http://www.w3.org/2000/svg">
<rect width="52" height="52" fill="white"/>
<path d="M4.41413 42.2642H4.43426C5.0851 39.3304 7.01413 36.8772 9.6091 35.5235H9.63593C6.4589 34.3292 4.19355 31.2713 4.19355 27.6766L4.19439 18.4516C6.51006 18.4516 8.3871 16.5746 8.3871 14.2589C8.3871 16.5746 10.2641 18.4516 12.5798 18.4516H21.8064C23.1962 18.4516 24.3226 19.578 24.3226 20.9677V26H28.5161V20.9677C28.5161 13.1057 22.1201 6.70966 14.2581 6.70966C6.396 6.70966 0 13.1057 0 20.9677V34.3871C0 37.5205 1.57006 40.414 4.20026 42.125L4.41413 42.2642Z" fill="#2AB1A3"/>
<path d="M18.9012 35.5227H18.9062C20.4184 36.3119 21.7058 37.4735 22.6452 38.8868V32.7105C21.6974 33.9719 20.4016 34.9549 18.9012 35.5227Z" fill="#2AB1A3"/>
<path d="M33.5484 4.19354H48.6452V11.7419H33.5484V4.19354Z" fill="#2AB1A3"/>
<path d="M18.4516 29.3548V28.5161H10.0645V29.3548C10.0645 31.6671 11.9457 33.5484 14.2581 33.5484C16.5704 33.5484 18.4516 31.6671 18.4516 29.3548ZM11.8862 30.1935H16.6308C16.2844 31.1698 15.3517 31.871 14.2581 31.871C13.1644 31.871 12.2317 31.1698 11.8862 30.1935Z" fill="#1C1C1B"/>
<path d="M11.742 24.3226H13.4194C13.4194 22.4724 11.9147 20.9678 10.0646 20.9678C8.21436 20.9678 6.70972 22.4724 6.70972 24.3226H8.38714C8.38714 23.3975 9.13946 22.6452 10.0646 22.6452C10.9897 22.6452 11.742 23.3975 11.742 24.3226Z" fill="#1C1C1B"/>
<path d="M18.4516 22.6452C19.3767 22.6452 20.1291 23.3975 20.1291 24.3226H21.8065C21.8065 22.4724 20.3018 20.9678 18.4516 20.9678C16.6014 20.9678 15.0968 22.4724 15.0968 24.3226H16.7742C16.7742 23.3975 17.5265 22.6452 18.4516 22.6452Z" fill="#1C1C1B"/>
<path d="M49.4839 25.1613H25.1613V20.9678C25.1613 20.072 24.8124 19.2291 24.1792 18.5959C23.5451 17.9618 22.7031 17.6129 21.8065 17.6129H12.5798C10.7305 17.6129 9.22583 16.1083 9.22583 14.2589H7.54841C7.54841 16.1083 6.04376 17.6129 4.19357 17.6129H3.35486V27.6766C3.35486 30.1407 4.31434 32.4581 6.05718 34.2009C6.60989 34.7536 7.2255 35.2174 7.88054 35.6074C5.0566 37.6405 3.35486 40.9039 3.35486 44.4516C3.35486 46.7639 5.23608 48.6452 7.54841 48.6452H13.4194C13.4194 50.4954 14.924 52 16.7742 52H43.6129V51.1613C43.6129 48.8255 42.2383 46.8101 40.2581 45.8648V45.2903H49.4839C50.8711 45.2903 52 44.1614 52 42.7742V27.6774C52 26.2902 50.8711 25.1613 49.4839 25.1613ZM5.03228 27.6766L5.03312 19.2207C6.42957 18.985 7.63228 18.1723 8.38712 17.0376C9.28957 18.3946 10.832 19.2903 12.5798 19.2903H21.8065C22.2552 19.2903 22.6762 19.4648 22.9932 19.7818C23.3094 20.098 23.4839 20.5199 23.4839 20.9678V25.3156C22.5101 25.6628 21.8065 26.5854 21.8065 27.6774V32.4052C20.3647 34.1959 18.2445 35.2258 15.9355 35.2258H12.5807C10.5644 35.2258 8.66892 34.4399 7.24312 33.0141C5.81731 31.5892 5.03228 29.6928 5.03228 27.6766ZM33.5484 45.8648C32.9596 46.1458 32.4203 46.5165 31.959 46.9678H25.1613V45.2903H33.5484V45.8648ZM21.8065 36.608C21.4349 36.2507 21.0441 35.9161 20.6264 35.6141C21.0374 35.3709 21.4358 35.1059 21.8065 34.7981V36.608ZM16.6325 36.863C16.2961 37.8577 15.3643 38.5807 14.2581 38.5807C13.1535 38.5807 12.2234 37.861 11.8862 36.8697C12.1169 36.8865 12.3475 36.9032 12.5807 36.9032H15.9355C16.1703 36.9032 16.401 36.8806 16.6325 36.863ZM7.54841 46.9678C6.16118 46.9678 5.03228 45.8388 5.03228 44.4516C5.03228 41.1136 6.82292 38.0841 9.70976 36.4419C9.84395 36.4856 9.97899 36.525 10.1149 36.5627C10.3648 38.6385 12.1169 40.2581 14.2581 40.2581C16.401 40.2581 18.1531 38.6368 18.4013 36.5602C18.5372 36.5233 18.6714 36.4839 18.8056 36.4403C19.9932 37.1163 21.0214 38.0472 21.8065 39.1669V42.7742C21.8065 43.8662 22.5101 44.7888 23.4839 45.136V46.9678H21.8065V46.129C21.8065 44.7418 20.6776 43.6129 19.2903 43.6129H16.6199C16.2727 42.6392 15.3501 41.9355 14.2581 41.9355H8.8786L6.95544 43.8587L8.14137 45.0446L9.57305 43.6129H14.2581C14.7202 43.6129 15.0968 43.9887 15.0968 44.4516V46.9678H13.4194H7.54841ZM16.7742 45.2903H19.2903C19.7525 45.2903 20.1291 45.6661 20.1291 46.129V46.9678H16.7742V45.2903ZM30.2531 50.3226H16.7742C15.8491 50.3226 15.0968 49.5703 15.0968 48.6452H16.7742H30.7605C30.5123 49.1668 30.3387 49.7305 30.2531 50.3226ZM41.8508 50.3226H31.9557C32.3449 48.4112 34.0399 46.9678 36.0645 46.9678H37.742C39.7674 46.9678 41.4616 48.4112 41.8508 50.3226ZM37.742 45.2903H36.0645C35.7794 45.2903 35.5009 45.318 35.2258 45.3574V39.4194C35.2258 38.9564 35.6024 38.5807 36.0645 38.5807H37.742C38.2041 38.5807 38.5807 38.9564 38.5807 39.4194V45.3574C38.3056 45.318 38.0271 45.2903 37.742 45.2903ZM50.3226 42.7742C50.3226 43.2372 49.946 43.6129 49.4839 43.6129H40.2581V39.4194C40.2581 38.0321 39.1292 36.9032 37.742 36.9032H36.0645C34.6773 36.9032 33.5484 38.0321 33.5484 39.4194V43.6129H24.3226C23.8605 43.6129 23.4839 43.2372 23.4839 42.7742V27.6774C23.4839 27.2145 23.8605 26.8387 24.3226 26.8387H49.4839C49.946 26.8387 50.3226 27.2145 50.3226 27.6774V42.7742Z" fill="#1C1C1B"/>
<path d="M49.4839 0H32.7097C31.3224 0 30.1935 1.1289 30.1935 2.51613V12.5806C30.1935 13.9679 31.3224 15.0968 32.7097 15.0968H39.4193V16.427C39.4193 17.5433 40.3277 18.4516 41.444 18.4516C41.9766 18.4516 42.4983 18.2352 42.8757 17.8586L45.6375 15.0968H49.4839C50.8711 15.0968 52 13.9679 52 12.5806V2.51613C52 1.1289 50.8711 0 49.4839 0ZM50.3226 12.5806C50.3226 13.0436 49.946 13.4194 49.4839 13.4194H44.9431L41.6906 16.6719C41.4884 16.8748 41.0968 16.7096 41.0968 16.427V13.4194H32.7097C32.2475 13.4194 31.871 13.0436 31.871 12.5806V2.51613C31.871 2.05316 32.2475 1.67742 32.7097 1.67742H49.4839C49.946 1.67742 50.3226 2.05316 50.3226 2.51613V12.5806Z" fill="#1C1C1B"/>
<path d="M36.9033 10.0645H38.5807V11.7419H36.9033V10.0645Z" fill="#1C1C1B"/>
<path d="M33.5484 10.0645H35.2258V11.7419H33.5484V10.0645Z" fill="#1C1C1B"/>
<path d="M46.9678 10.0645H48.6452V11.7419H46.9678V10.0645Z" fill="#1C1C1B"/>
<path d="M43.6129 10.0645H45.2903V11.7419H43.6129V10.0645Z" fill="#1C1C1B"/>
<path d="M40.2581 10.0645H41.9355V11.7419H40.2581V10.0645Z" fill="#1C1C1B"/>
<path d="M33.5484 3.35486H48.6452V5.03228H33.5484V3.35486Z" fill="#1C1C1B"/>
<path d="M33.5484 6.70966H48.6452V8.38708H33.5484V6.70966Z" fill="#1C1C1B"/>
</svg>
