<svg width="52" height="52" viewBox="0 0 52 52" fill="none" xmlns="http://www.w3.org/2000/svg">
<rect width="52" height="52" fill="white"/>
<path d="M36.0646 3.35486H32.7097V5.03228H36.0646C37.4518 5.03228 38.5807 6.16118 38.5807 7.54841V10.0645H36.9033V11.742H38.5807V22.88H40.2581V7.54841C40.2581 5.23608 38.3769 3.35486 36.0646 3.35486Z" fill="#1C1C1B"/>
<path d="M33.5483 10.0645H35.2258V11.7419H33.5483V10.0645Z" fill="#1C1C1B"/>
<path d="M26.8387 16.7742H33.5484V18.4516H26.8387V16.7742Z" fill="#1C1C1B"/>
<path d="M22.891 17.0199L21.3343 18.5766C20.1358 17.4619 18.5355 16.7742 16.7743 16.7742C13.0747 16.7742 10.0646 19.7843 10.0646 23.4838C10.0646 27.1834 13.0747 30.1935 16.7743 30.1935C20.4738 30.1935 23.4839 27.1834 23.4839 23.4838C23.4839 22.1511 23.0889 20.9115 22.4163 19.8665L24.0769 18.2058L22.891 17.0199ZM21.8065 23.4838C21.8065 26.2591 19.5495 28.5161 16.7743 28.5161C13.999 28.5161 11.742 26.2591 11.742 23.4838C11.742 20.7086 13.999 18.4516 16.7743 18.4516C18.0734 18.4516 19.2552 18.9506 20.1492 19.7617L15.0968 24.814L14.0124 23.7296L12.8264 24.9155L15.0968 27.1859L21.1976 21.0851C21.5859 21.7989 21.8065 22.6158 21.8065 23.4838Z" fill="#1C1C1B"/>
<path d="M26.8387 20.129H28.5162V21.8064H26.8387V20.129Z" fill="#1C1C1B"/>
<path d="M30.1936 20.129H31.871V21.8064H30.1936V20.129Z" fill="#1C1C1B"/>
<path d="M1.67742 32.7097V11.742H31.871V10.0645H1.67742V7.54841C1.67742 6.16118 2.80632 5.03228 4.19355 5.03228H7.54839V3.35486H4.19355C1.88123 3.35486 0 5.23608 0 7.54841V32.7097C0 35.022 1.88123 36.9032 4.19355 36.9032H22.6879V35.2258H4.19355C2.80632 35.2258 1.67742 34.0969 1.67742 32.7097Z" fill="#1C1C1B"/>
<path d="M35.2258 13.4194H5.03228C4.10718 13.4194 3.35486 14.1717 3.35486 15.0968V31.871C3.35486 32.7961 4.10718 33.5484 5.03228 33.5484H23.2742V31.871H5.03228V15.0968H35.2258V22.6871H36.9032V15.0968C36.9032 14.1717 36.1509 13.4194 35.2258 13.4194Z" fill="#1C1C1B"/>
<path d="M6.70972 28.5161H8.38714V30.1935H6.70972V28.5161Z" fill="#1C1C1B"/>
<path d="M6.70972 25.1613H8.38714V26.8387H6.70972V25.1613Z" fill="#1C1C1B"/>
<path d="M6.70972 21.8065H8.38714V23.4839H6.70972V21.8065Z" fill="#1C1C1B"/>
<path d="M36.9032 52C28.579 52 21.8064 45.2274 21.8064 36.9032C21.8064 28.579 28.579 21.8065 36.9032 21.8065C45.2274 21.8065 51.9999 28.579 51.9999 36.9032C51.9999 45.2274 45.2274 52 36.9032 52ZM36.9032 26C30.8913 26 25.9999 30.8914 25.9999 36.9032C25.9999 42.9151 30.8913 47.8065 36.9032 47.8065C42.915 47.8065 47.8064 42.9151 47.8064 36.9032C47.8064 30.8914 42.915 26 36.9032 26Z" fill="#2AB1A3"/>
<path d="M36.9032 25.1613C30.4284 25.1613 25.1613 30.4284 25.1613 36.9033C25.1613 43.3781 30.4284 48.6452 36.9032 48.6452C43.378 48.6452 48.6451 43.3781 48.6451 36.9033C48.6451 30.4284 43.378 25.1613 36.9032 25.1613ZM46.9249 37.742C46.7463 39.8874 45.8967 41.8424 44.5807 43.3957L42.2399 41.0549L41.054 42.2408L43.3948 44.5816C41.8415 45.8976 39.8865 46.7472 37.7411 46.9258V43.6129H36.0636V46.925C33.9182 46.7463 31.9632 45.8967 30.4099 44.5808L32.7507 42.24L31.5648 41.054L29.224 43.3949C27.908 41.8416 27.0584 39.8865 26.8798 37.7411H30.1935V36.0637H26.8814C27.0601 33.9183 27.9097 31.9633 29.2256 30.41L31.5665 32.7508L32.7524 31.5649L30.4116 29.224C31.9649 27.9081 33.9199 27.0585 36.0653 26.8798V30.1936H37.7427V26.8815C39.8882 27.0602 41.8432 27.9098 43.3965 29.2257L41.0556 31.5665L42.2416 32.7525L44.5824 30.4116C45.8984 31.9649 46.748 33.92 46.9266 36.0654H43.6129V37.7428H46.9249V37.742Z" fill="#1C1C1B"/>
<path d="M36.0645 36.556L32.9554 39.6651L34.1414 40.851L37.742 37.2505V33.5484H36.0645V36.556Z" fill="#1C1C1B"/>
<path d="M22.6451 3.35486H27.6774V5.03228H22.6451V3.35486Z" fill="#1C1C1B"/>
<path d="M12.5807 3.35486H17.6129V5.03228H12.5807V3.35486Z" fill="#1C1C1B"/>
<path d="M31.871 8.3871H28.5162C27.5911 8.3871 26.8387 7.63477 26.8387 6.70968V1.67742C26.8387 0.752322 27.5911 0 28.5162 0H31.871C32.7961 0 33.5484 0.752322 33.5484 1.67742V6.70968C33.5484 7.63477 32.7961 8.3871 31.871 8.3871Z" fill="#2AB1A3"/>
<path d="M21.8066 8.3871H18.4517C17.5266 8.3871 16.7743 7.63477 16.7743 6.70968V1.67742C16.7743 0.752322 17.5266 0 18.4517 0H21.8066C22.7316 0 23.484 0.752322 23.484 1.67742V6.70968C23.484 7.63477 22.7316 8.3871 21.8066 8.3871Z" fill="#2AB1A3"/>
<path d="M11.742 8.3871H8.38714C7.46204 8.3871 6.70972 7.63477 6.70972 6.70968V1.67742C6.70972 0.752322 7.46204 0 8.38714 0H11.742C12.6671 0 13.4194 0.752322 13.4194 1.67742V6.70968C13.4194 7.63477 12.6671 8.3871 11.742 8.3871Z" fill="#2AB1A3"/>
</svg>
