<svg width="52" height="52" viewBox="0 0 52 52" fill="none" xmlns="http://www.w3.org/2000/svg">
<path d="M23.4839 5.03223H36.9032V13.4193H23.4839V5.03223Z" fill="#2AB1A3"/>
<path d="M23.4839 18.4517H36.9032V26.8388H23.4839V18.4517Z" fill="#2AB1A3"/>
<path d="M18.4517 15.0967H8.38721V5.03223H18.4517V15.0967Z" fill="#2AB1A3"/>
<path d="M18.4517 26.8389H8.38721V16.7744H18.4517V26.8389Z" fill="#2AB1A3"/>
<path d="M10.0645 41.9355H11.7419V43.613H10.0645V41.9355Z" fill="#1C1C1B"/>
<path d="M6.70947 41.9355H8.38689V43.613H6.70947V41.9355Z" fill="#1C1C1B"/>
<path d="M3.35498 41.9355H5.0324V43.613H3.35498V41.9355Z" fill="#1C1C1B"/>
<path d="M47.8064 11.7419H40.2581V0H5.03226V11.7419H4.19355C1.88136 11.7419 0 13.6233 0 15.9355V42.7742C0 45.0864 1.88136 46.9677 4.19355 46.9677H15.0968V50.3226H11.7419V52H40.2581V50.3226H36.9032V46.9677H47.8064C50.1186 46.9677 52 45.0864 52 42.7742V15.9355C52 13.6233 50.1186 11.7419 47.8064 11.7419ZM47.8064 13.4194C49.1935 13.4194 50.3226 14.5484 50.3226 15.9355V40.2581H40.2581V36.9032H46.3268L46.5037 36.8152C46.591 36.7714 48.6452 35.7099 48.6452 32.7097C48.6452 29.7095 46.591 28.648 46.5037 28.6042L46.3268 28.5161H40.2581V13.4194H47.8064ZM13.4194 34.4977L10.7382 32.7097L13.4194 30.9217V34.4977ZM15.0968 33.5484H31.871V31.871H15.0968V30.1935H36.9032V31.871H33.5484V33.5484H36.9032V35.2258H15.0968V33.5484ZM38.5806 30.1935H40.2581V35.2258H38.5806V30.1935ZM41.9355 30.1935H45.8858C46.2105 30.4343 46.9677 31.1613 46.9677 32.7097C46.9677 34.2638 46.2044 34.9911 45.8874 35.2258H41.9355V30.1935ZM4.19355 13.4194H5.03226V38.5806H1.67742V15.9355C1.67742 14.5484 2.80648 13.4194 4.19355 13.4194ZM47.8064 45.2903H18.4516V46.9677H35.2258V50.3226H16.7742V45.2903H4.19355C2.80648 45.2903 1.67742 44.1613 1.67742 42.7742V40.2581H6.70968V1.67742H38.5806V28.5161H14.0037L7.71343 32.7097L14.0037 36.9032H38.5806V40.2581H14.5124L11.9963 38.5806H8.3871V40.2581H11.4876L14.0037 41.9355H50.3226V42.7742C50.3226 44.1613 49.1935 45.2903 47.8064 45.2903Z" fill="#1C1C1B"/>
<path d="M21.5606 4.78657L20.3746 3.60059L13.549 10.4262L12.4396 8.76021L11.0439 9.69147L13.2894 13.0578L21.5606 4.78657Z" fill="#1C1C1B"/>
<path d="M21.5606 16.5283L20.3746 15.3423L13.549 22.1679L12.4396 20.5019L11.0439 21.4332L13.2894 24.7995L21.5606 16.5283Z" fill="#1C1C1B"/>
<path d="M23.4839 5.03223H25.1613V6.70965H23.4839V5.03223Z" fill="#1C1C1B"/>
<path d="M26.8389 5.03223H36.9034V6.70965H26.8389V5.03223Z" fill="#1C1C1B"/>
<path d="M23.4839 8.38721H25.1613V10.0646H23.4839V8.38721Z" fill="#1C1C1B"/>
<path d="M26.8389 8.38721H36.9034V10.0646H26.8389V8.38721Z" fill="#1C1C1B"/>
<path d="M23.4839 11.7417H25.1613V13.4191H23.4839V11.7417Z" fill="#1C1C1B"/>
<path d="M26.8389 11.7417H36.9034V13.4191H26.8389V11.7417Z" fill="#1C1C1B"/>
<path d="M23.4839 18.4517H25.1613V20.1291H23.4839V18.4517Z" fill="#1C1C1B"/>
<path d="M26.8389 18.4517H36.9034V20.1291H26.8389V18.4517Z" fill="#1C1C1B"/>
<path d="M23.4839 21.8066H25.1613V23.4841H23.4839V21.8066Z" fill="#1C1C1B"/>
<path d="M26.8389 21.8066H36.9034V23.4841H26.8389V21.8066Z" fill="#1C1C1B"/>
<path d="M23.4839 25.1611H25.1613V26.8386H23.4839V25.1611Z" fill="#1C1C1B"/>
<path d="M26.8389 25.1611H36.9034V26.8386H26.8389V25.1611Z" fill="#1C1C1B"/>
</svg>
