<svg width="53" height="52" viewBox="0 0 53 52" fill="none" xmlns="http://www.w3.org/2000/svg">
<path d="M8.39136 41.8792V41.5041C8.39136 39.4222 10.0789 37.7347 12.1608 37.7347H10.9088C7.20147 37.7347 4.19568 34.7289 4.19568 31.0208V22.9886C4.19568 21.2549 5.26138 19.7009 6.8784 19.0757L8.25458 18.5437C9.11973 19.9862 10.6998 20.952 12.5048 20.952H22.6567L22.6558 31.0216C22.6558 34.7289 19.65 37.7347 15.9427 37.7347H14.0748C14.7579 37.7347 15.4376 37.8295 16.0938 38.0175C18.3955 38.6754 20.1745 40.4015 20.9675 42.5799C24.3853 41.8071 26.8524 38.7383 26.8524 35.2173V21.7911C26.8524 14.8506 21.2058 9.2041 14.2653 9.2041H12.587C5.64655 9.2041 0 14.8506 0 21.7911V35.2173C0 39.3819 3.38843 42.7695 7.55222 42.7695H8.39639L8.49877 42.7687C8.42828 42.4775 8.39136 42.1796 8.39136 41.8792Z" fill="#2AB1A3"/>
<path d="M33.5653 35.2174H31.8871V46.9653H28.4458C28.0556 45.0529 26.3614 43.6087 24.3348 43.6087H22.1254C21.7058 41.3414 20.3355 39.361 18.4139 38.1501C21.3668 37.123 23.4949 34.3195 23.4957 31.0217V21.7912V20.952C23.4957 18.1091 21.46 15.7066 18.6556 15.2392L17.7594 15.0898L17.4833 16.7455L18.3795 16.8948C20.0888 17.1793 21.3954 18.4758 21.7318 20.1129H12.5047C10.2365 20.1129 8.39126 18.2677 8.39126 15.9995V15.9172L6.71299 15.9995C6.71299 16.7362 6.85648 17.4386 7.10822 18.0872L6.57537 18.2928C4.65039 19.0371 3.35645 20.9235 3.35645 22.9886V31.0208C3.35645 34.4772 5.69344 37.3924 8.86873 38.2861C8.05561 39.1168 7.55213 40.2522 7.55213 41.5042V41.8793C7.55213 42.5917 7.72079 43.3033 8.03882 43.9402L9.98142 47.8254C11.2687 50.3998 13.8574 52.0001 16.7365 52.0001H23.4957H24.3348H33.5653C35.4165 52.0001 36.9219 50.4947 36.9219 48.6435V46.9653V38.5739C36.9219 36.7219 35.4165 35.2174 33.5653 35.2174ZM26.6979 46.9653H23.4957V45.287H24.3348C25.4274 45.287 26.3505 45.9902 26.6979 46.9653ZM20.4102 43.6087H17.4371L16.6316 40.3873C16.4889 39.8167 16.2363 39.3006 15.9116 38.8424C18.1655 39.5062 19.8807 41.3573 20.4102 43.6087ZM5.03472 31.0208V22.9886C5.03472 21.6124 5.89735 20.3546 7.18123 19.8587L7.9482 19.5624C9.0097 20.9168 10.6553 21.7912 12.5055 21.7912H21.8174V31.0217C21.8174 34.2599 19.1817 36.8956 15.9435 36.8956H14.0747H12.8051H10.9087C7.6696 36.8956 5.03472 34.2599 5.03472 31.0208ZM11.4826 47.0744L9.54004 43.1892C9.33697 42.7847 9.2304 42.3316 9.2304 41.8793V41.5042C9.2304 39.888 10.5445 38.5739 12.1607 38.5739C13.5075 38.5739 14.6772 39.4869 15.0037 40.7943L15.9175 44.4479L15.1295 47.6013L16.7574 48.0075L17.438 45.287H21.8174V46.9653C20.8919 46.9653 20.1392 47.718 20.1392 48.6435C20.1392 49.2578 20.3171 49.8259 20.6057 50.3218H16.7356C14.4968 50.3218 12.4837 49.0774 11.4826 47.0744ZM33.5653 50.3218H24.3348H23.4957C22.5701 50.3218 21.8174 49.5691 21.8174 48.6435H31.8871H35.2436C35.2436 49.5683 34.4909 50.3218 33.5653 50.3218ZM33.5653 46.9653V36.8956C34.4909 36.8956 35.2436 37.6483 35.2436 38.5739V46.9653H33.5653Z" fill="#1C1C1B"/>
<path d="M17.6218 31.0218V30.1826H9.23047V31.0218C9.23047 33.3353 11.1127 35.2174 13.4261 35.2174C15.7396 35.2174 17.6218 33.3344 17.6218 31.0218ZM11.0522 31.8609H15.7992C15.4527 32.8376 14.5195 33.5392 13.4253 33.5392C12.3311 33.5392 11.3988 32.8376 11.0522 31.8609Z" fill="#1C1C1B"/>
<path d="M10.9088 26.8258H12.5871C12.5871 24.9746 11.0817 23.4692 9.23057 23.4692C7.37943 23.4692 5.87402 24.9746 5.87402 26.8258H7.5523C7.5523 25.9002 8.305 25.1475 9.23057 25.1475C10.1561 25.1475 10.9088 25.9002 10.9088 26.8258Z" fill="#1C1C1B"/>
<path d="M17.6217 25.1475C18.5472 25.1475 19.3 25.9002 19.3 26.8258H20.9782C20.9782 24.9746 19.4728 23.4692 17.6217 23.4692C15.7705 23.4692 14.2651 24.9746 14.2651 26.8258H15.9434C15.9434 25.9002 16.6961 25.1475 17.6217 25.1475Z" fill="#1C1C1B"/>
<path d="M52.0265 24.3085C52.0265 22.0303 50.8282 20.1934 48.5717 18.9439C49.181 17.1708 49.5091 15.3004 49.5091 13.4023C49.5091 8.84659 47.7351 4.56448 44.5137 1.34304L43.9825 0.811864C42.9009 -0.270621 41.0128 -0.270621 39.9312 0.811864L39.4 1.34304C36.1785 4.56448 34.4046 8.84743 34.4046 13.4023C34.4046 15.2995 34.7327 17.1708 35.3419 18.9431C33.0855 20.1925 31.8872 22.0303 31.8872 24.3085V25.1476H37.9038C37.1175 26.5129 36.0829 28.7417 36.0829 31.0216C36.0829 32.4263 37.261 33.7018 38.2495 34.525C38.9888 35.1409 39.5594 35.7577 39.9949 36.4089C40.5068 37.1758 41.1177 38.3196 41.1177 39.413V40.2521H41.9568C42.0156 40.2521 47.8308 40.1564 47.8308 31.8607C47.8308 29.4482 46.6619 26.711 45.8798 25.1476H52.0265V24.3085ZM40.5865 2.53041L41.1177 1.99924C41.5591 1.55786 42.3546 1.55786 42.796 1.99924L43.3271 2.53041C44.1579 3.36116 44.8678 4.27666 45.4787 5.24754C44.5405 6.16807 43.2852 6.68666 41.9568 6.68666C40.6285 6.68666 39.3731 6.16807 38.435 5.24754C39.045 4.27666 39.7558 3.36116 40.5865 2.53041ZM37.6076 6.75127C38.8126 7.78257 40.3415 8.36493 41.9568 8.36493C43.5722 8.36493 45.1011 7.78257 46.3061 6.75127C47.2937 8.80296 47.8308 11.0586 47.8308 13.4023C47.8308 16.9921 46.5654 20.4879 44.267 23.2453L44.0807 23.4685H39.8321L39.6459 23.2453C37.3483 20.4879 36.0829 16.9921 36.0829 13.4023C36.0829 11.0586 36.6199 8.80296 37.6076 6.75127ZM35.9629 20.5148C36.4395 21.5536 37.0294 22.5396 37.7083 23.4685H33.6452C33.886 22.2686 34.6664 21.2809 35.9629 20.5148ZM42.7003 38.4412C42.5182 37.5022 42.0802 36.5079 41.3896 35.4757C40.8643 34.6886 40.1879 33.9561 39.3236 33.2352C38.3452 32.4204 37.7612 31.5922 37.7612 31.0216C37.7612 28.5696 39.285 26.0396 39.8783 25.1476H43.9842C44.585 26.2469 46.1525 29.3576 46.1525 31.8607C46.1525 36.7596 43.9078 38.0846 42.7003 38.4412ZM46.2045 23.4694C46.8842 22.5405 47.4742 21.5536 47.9499 20.5156C49.2472 21.2817 50.0276 22.2686 50.2668 23.4694H46.2045Z" fill="#1C1C1B"/>
<path d="M46.1526 14.2386C46.1526 11.9252 44.2704 10.043 41.9569 10.043C39.6434 10.043 37.7612 11.9252 37.7612 14.2386C37.7612 16.5521 39.6434 18.4343 41.9569 18.4343C44.2704 18.4343 46.1526 16.5513 46.1526 14.2386ZM39.4395 14.2386C39.4395 12.8507 40.569 11.7212 41.9569 11.7212C43.3448 11.7212 44.4743 12.8507 44.4743 14.2386C44.4743 15.6266 43.3448 16.7561 41.9569 16.7561C40.569 16.7561 39.4395 15.6266 39.4395 14.2386Z" fill="#1C1C1B"/>
<path d="M42.3043 25.9868H40.5991L40.3675 26.4509C40.3298 26.5264 39.4395 28.3272 39.4395 30.1825C39.4395 32.2501 42.0349 34.04 42.3303 34.2372L43.1207 34.7642L43.5462 33.9141C43.5839 33.8378 44.4743 32.037 44.4743 30.1825C44.4743 28.213 42.7473 26.429 42.5501 26.2327L42.3043 25.9868ZM42.4327 32.1822C41.7857 31.5956 41.1177 30.8093 41.1177 30.1825C41.1177 29.2552 41.4215 28.3012 41.6422 27.7297C42.1129 28.2928 42.796 29.3031 42.796 30.1825C42.796 30.8949 42.6164 31.6241 42.4327 32.1822Z" fill="#1C1C1B"/>
<path d="M42.796 41.9307H41.1177V43.6089H39.4395V45.2872H41.1177V46.9655H42.796V45.2872H44.4743V43.6089H42.796V41.9307Z" fill="#1C1C1B"/>
<path d="M28.7762 7.7707L29.9627 8.95808L33.9125 5.00827L29.9627 1.05762L28.7762 2.24499L30.7003 4.16913H10.0693V5.84741H30.7003L28.7762 7.7707Z" fill="#1C1C1B"/>
<path d="M3.35645 4.16895H5.03472V5.84722H3.35645V4.16895Z" fill="#1C1C1B"/>
<path d="M6.71289 4.16895H8.39116V5.84722H6.71289V4.16895Z" fill="#1C1C1B"/>
</svg>
