<svg width="218" height="50" viewBox="0 0 218 50" fill="none" xmlns="http://www.w3.org/2000/svg">
<path d="M217.011 21.0121V38.0228C217.011 39.8651 216.017 40.8609 214.162 40.8609H209.303C204.449 40.8609 203.378 37.8825 203.378 33.3469C203.378 28.8113 204.462 25.8284 209.303 25.8284H212.557V21.0121H217.011ZM212.557 36.4657V29.092H210.534C208.077 29.092 207.936 31.1923 207.936 33.3469C207.936 35.6735 208.077 37.6018 210.588 37.6018H211.418C212.275 37.6018 212.557 37.3167 212.557 36.4657Z" fill="#BB1523"/>
<path d="M200.748 31.233V40.8609H196.294V32.3828C196.294 30.2281 195.693 29.092 193.523 29.092H192.953C192.238 29.092 191.95 29.3771 191.95 30.0833V40.8609H187.497V28.6665C187.497 26.6839 188.5 25.8284 190.355 25.8284H193.865C197.967 25.8284 200.748 26.9374 200.748 31.2602" fill="#BB1523"/>
<path d="M184.325 30.5948V38.0228C184.325 39.8651 183.322 40.8609 181.467 40.8609H175.213C172.501 40.8609 171.476 39.2721 171.476 36.1534C171.476 33.3198 172.501 31.4729 175.213 31.4729H179.867V30.8483C179.867 29.6623 179.183 29.092 177.957 29.092H172.533V25.8284H179.639C182.638 25.8284 184.325 27.7567 184.325 30.5948ZM179.867 36.7192V34.5374H177.524C176.471 34.5374 176.043 35.1304 176.043 36.1805C176.043 37.1447 176.385 37.801 177.501 37.801H178.869C179.58 37.801 179.867 37.4253 179.867 36.7192Z" fill="#BB1523"/>
<path d="M169.639 36.8912V40.8609H159.479C157.619 40.8609 156.452 39.9556 156.452 37.8236V21.0121H161.416V35.5604C161.416 36.5517 161.758 36.8912 162.761 36.8912H169.639Z" fill="#BB1523"/>
<path d="M152.965 31.233V40.8609H148.512V32.3828C148.512 30.2281 147.911 29.092 145.745 29.092H145.171C144.46 29.092 144.173 29.3771 144.173 30.0833V40.8609H139.715V28.6665C139.715 26.6839 140.718 25.8284 142.573 25.8284H146.087C150.167 25.8284 152.965 26.9374 152.965 31.2602" fill="#1C1C1B"/>
<path d="M136.224 25.8284H131.77V40.8609H136.224V25.8284Z" fill="#1C1C1B"/>
<path d="M136.224 21.0121H131.77V24.3572H136.224V21.0121Z" fill="#1C1C1B"/>
<path d="M129.605 25.8284L127.094 38.5026C126.725 40.3766 125.781 41.0239 123.666 41.0239C121.551 41.0239 120.612 40.1774 120.325 38.815L118.671 31.1199C118.611 30.8664 118.584 30.6355 118.443 30.6355C118.301 30.6355 118.269 30.8664 118.21 31.1199L116.556 38.815C116.273 40.1729 115.33 41.0239 113.242 41.0239C111.154 41.0239 110.161 40.3766 109.792 38.5026L107.275 25.8284H111.533L113.274 35.7279C113.301 35.927 113.415 36.1805 113.561 36.1805C113.707 36.1805 113.789 35.9587 113.816 35.7596L115.617 27.3085C115.899 26.0004 116.925 25.6609 118.443 25.6609C119.961 25.6609 120.982 26.0004 121.269 27.3085L123.078 35.7596C123.11 35.9587 123.192 36.1805 123.338 36.1805C123.484 36.1805 123.593 35.9587 123.625 35.7279L125.357 25.8284H129.605Z" fill="#1C1C1B"/>
<path d="M105.452 25.8284V29.092H104.996C102.371 29.092 101.596 30.4499 101.596 33.0617V40.8609H97.1429V31.8079C97.1429 27.381 99.3171 25.8465 103.77 25.8465L105.452 25.8284Z" fill="#1C1C1B"/>
<path d="M94.0343 30.5948V38.0228C94.0343 39.8651 93.0315 40.8609 91.1764 40.8609H84.9227C82.2107 40.8609 81.1851 39.2721 81.1851 36.1534C81.1851 33.3198 82.2107 31.4729 84.9227 31.4729H89.5811V30.8483C89.5811 29.6623 88.8928 29.092 87.6621 29.092H82.238V25.8284H89.3486C92.3478 25.8284 94.0343 27.7567 94.0343 30.5948ZM89.5811 36.7192V34.5374H87.2382C86.1808 34.5374 85.7523 35.1304 85.7523 36.1805C85.7523 37.1447 86.0942 37.801 87.2063 37.801H88.5737C89.2893 37.801 89.5765 37.4253 89.5765 36.7192" fill="#1C1C1B"/>
<path d="M78.7648 30.9343C78.7648 36.7463 77.7073 40.8609 71.285 40.8609H65.5738C63.7187 40.8609 62.5472 39.9556 62.5472 37.8236V24.0721C62.5472 21.9446 63.7187 21.0121 65.5738 21.0121H71.0435C77.7256 21.0121 78.7922 25.1222 78.7922 30.9343M69.9951 36.8912C72.9989 36.8912 73.6416 35.1892 73.6416 30.9343C73.6416 26.6793 72.9031 24.9819 69.9951 24.9819H68.9422C67.8574 24.9819 67.5155 25.3214 67.5155 26.3987V35.4744C67.5155 36.5517 67.8574 36.8912 68.9422 36.8912H69.9951Z" fill="#1C1C1B"/>
<path d="M54.6618 24.2577C54.8076 26.9736 53.6225 30.0516 51.8403 31.5001C51.3025 31.9527 49.9898 32.8852 48.6087 32.8852C48.4407 32.8851 48.273 32.8715 48.1073 32.8445C47.8861 32.8017 47.6716 32.7302 47.4692 32.6317V32.8037C47.4713 32.8233 47.4713 32.843 47.4692 32.8626C47.4692 33.0753 47.4692 33.2835 47.4692 33.5008C47.2823 40.0598 44.0187 46.8224 32.4914 49.226L32.2908 49.2667C30.6841 49.6583 29.0433 49.8963 27.3909 49.9774C25.6289 49.8907 23.881 49.6191 22.1765 49.1671L21.7891 49.0811C12.1944 46.9039 7.05743 41.0013 7.22608 32.6272C7.02211 32.7305 6.80407 32.8037 6.57884 32.8445C6.41463 32.8715 6.24846 32.8851 6.08201 32.8852C4.71459 32.8852 3.3882 31.9437 2.85034 31.5001C1.06359 30.0561 -0.126067 26.9962 0.0106749 24.2531C0.0828856 23.1502 0.349797 22.0685 0.799219 21.0574C1.1312 20.1506 1.65068 19.3228 2.32423 18.6274C2.99779 17.932 3.81049 17.3844 4.71003 17.0197C6.79306 16.2004 9.14958 16.4449 10.8816 16.9066C14.9793 8.19301 26.0873 11.2892 29.205 0C30.1987 1.35796 31.8168 3.80228 30.4585 6.50009C31.9991 5.07876 31.7803 3.36774 31.7621 2.57559C33.1295 3.58501 34.4149 6.10176 32.9928 7.96216C33.321 7.67246 34.3055 6.73094 35.5179 6.51367C34.9345 8.2247 35.4541 9.7954 37.5508 11.1036C38.2887 11.4659 38.996 11.8867 39.6658 12.3619C41.3445 13.595 42.7747 15.1305 43.882 16.8885C45.6095 16.4358 47.9295 16.214 49.9852 17.0197C50.8843 17.3851 51.6966 17.933 52.3701 18.6283C53.0436 19.3236 53.5633 20.151 53.896 21.0574C54.3455 22.0701 54.6124 23.1533 54.6846 24.2577M52.5286 24.7691C52.607 24.0181 52.516 23.2592 52.2621 22.5474C52.0083 21.8357 51.5979 21.1891 51.0609 20.6545C50.1493 19.6859 48.6224 19.4278 47.3871 19.5817C46.8001 19.649 46.2375 19.8534 45.7455 20.1784C45.2534 20.5034 44.846 20.9396 44.5566 21.4512C44.2983 21.943 44.1707 22.4922 44.1859 23.0466C44.201 23.6011 44.3584 24.1426 44.6432 24.6198C44.9996 23.8941 45.5726 23.295 46.2841 22.9042C46.8857 22.5195 47.615 22.6055 48.2805 22.6915C47.5687 23.1372 47.0341 23.8137 46.7672 24.6062C47.0418 24.5547 47.3247 24.569 47.5926 24.6477C47.8605 24.7264 48.1057 24.8673 48.3079 25.0588C48.0846 25.0456 47.8614 25.087 47.658 25.1793C47.4546 25.2716 47.277 25.4121 47.141 25.5884L48.2349 25.9642C47.9045 26.1979 47.6336 26.5049 47.4437 26.8609C47.2538 27.2169 47.1501 27.6119 47.141 28.0147C47.1438 28.0599 47.1438 28.1052 47.141 28.1505C47.4666 28.382 47.8412 28.5366 48.2362 28.6025C48.6312 28.6684 49.0361 28.6438 49.42 28.5307C50.2463 28.2662 50.9781 27.7707 51.5279 27.1035C52.0776 26.4363 52.4219 25.6258 52.5195 24.7691M42.4371 43.1016C44.9896 40.5124 46.6077 36.7916 46.2476 31.4367C46.1782 31.2307 46.1218 31.0206 46.079 30.8075C45.0488 29.4224 43.3122 29.2459 42.3641 29.2776V28.4402C42.3597 27.96 42.2226 27.4902 41.9676 27.0822C42.1499 24.6334 41.7351 22.0442 40.8235 20.2924C40.1397 19.0695 39.1748 18.0242 38.0073 17.2416C36.8398 16.4589 35.5028 15.9611 34.1049 15.7885C31.3701 15.5305 28.5897 17.1465 27.6234 19.5184C27.601 19.559 27.568 19.5929 27.5279 19.6165C27.4878 19.6401 27.4421 19.6525 27.3955 19.6525C27.3489 19.6525 27.3031 19.6401 27.263 19.6165C27.2229 19.5929 27.19 19.559 27.1676 19.5184C26.2013 17.1374 23.4163 15.5305 20.686 15.7885C19.2801 15.9621 17.9344 16.4588 16.7555 17.239C15.5766 18.0192 14.597 19.0616 13.8945 20.2834C12.9829 22.0351 12.559 24.6605 12.7504 27.1275C12.5189 27.5269 12.3964 27.9793 12.3949 28.4402V29.3002C11.1825 29.3002 9.54613 29.608 8.59806 30.9343C8.57032 31.0718 8.53532 31.2078 8.49322 31.3417C8.11946 35.6917 9.21339 39.3808 11.6383 42.237C13.7532 44.4188 17.0077 46.2475 21.9213 47.2434L22.8329 47.438C24.3261 47.8115 25.8529 48.0374 27.3909 48.1124C28.6273 48.0536 29.8564 47.89 31.0647 47.6236C31.5205 47.533 31.9763 47.447 32.3957 47.3791C36.6848 46.6911 40.0487 45.2426 42.4234 43.1016M27.7692 7.69509C28.2318 6.86171 28.4865 5.93042 28.5122 4.97918C28.1732 5.81753 27.7041 6.598 27.122 7.29223C26.5186 7.96275 25.8069 8.52876 25.0162 8.96705C24.647 9.19337 24.255 9.36991 23.8174 9.58718C22.4806 10.1603 21.2986 11.038 20.367 12.1492C21.1646 11.5426 22.1902 11.1669 24.1593 10.4744C26.4383 9.78182 27.2861 8.57777 27.7692 7.69509ZM10.1204 24.7103C10.435 24.2293 10.6144 23.6735 10.64 23.1005C10.6657 22.5275 10.5366 21.9581 10.2663 21.4512C9.97675 20.9388 9.56868 20.502 9.07574 20.177C8.58281 19.8519 8.01913 19.6479 7.43119 19.5817C6.20508 19.4278 4.69636 19.6859 3.78475 20.6545C3.25532 21.1931 2.85244 21.8413 2.605 22.5526C2.35755 23.264 2.27167 24.0209 2.35352 24.7691C2.45229 25.6205 2.79455 26.4259 3.33979 27.0901C3.88503 27.7543 4.61045 28.2495 5.43021 28.5171C5.79802 28.6224 6.18441 28.6473 6.56285 28.5903C6.9413 28.5333 7.30283 28.3956 7.62263 28.1867C7.60519 28.1263 7.59599 28.0639 7.59528 28.0011C7.58335 27.5989 7.4785 27.2048 7.28883 26.8493C7.09915 26.4937 6.82972 26.1863 6.50135 25.9506L7.59528 25.5749C7.45924 25.3986 7.28171 25.2581 7.07828 25.1657C6.87484 25.0734 6.6517 25.032 6.42842 25.0453C6.62989 24.8541 6.87428 24.7134 7.14139 24.6347C7.4085 24.556 7.69065 24.5415 7.96449 24.5926C7.6988 23.8008 7.16584 23.1244 6.45577 22.6779C7.11669 22.5919 7.84598 22.5059 8.44764 22.8906C8.90345 23.1939 9.81506 23.7959 10.1204 24.7013" fill="#1C1C1B"/>
<path d="M51.0609 20.6545C51.5914 21.1923 51.995 21.8404 52.2425 22.552C52.49 23.2636 52.5753 24.0209 52.4921 24.7692C52.3946 25.6258 52.0503 26.4363 51.5005 27.1035C50.9508 27.7707 50.2189 28.2662 49.3927 28.5307C49.0087 28.6438 48.6038 28.6684 48.2088 28.6025C47.8139 28.5366 47.4393 28.382 47.1136 28.1505C47.1161 28.1052 47.1161 28.0599 47.1136 28.0147C47.1228 27.6119 47.2264 27.2169 47.4163 26.8609C47.6062 26.5049 47.8772 26.1979 48.2076 25.9642L47.1136 25.5884C47.254 25.4054 47.4389 25.2608 47.651 25.1681C47.8631 25.0755 48.0954 25.0379 48.3261 25.0588C48.1233 24.8683 47.8781 24.7279 47.6104 24.6493C47.3426 24.5706 47.06 24.5559 46.7855 24.6062C47.0523 23.8137 47.5869 23.1372 48.2987 22.6915C47.6333 22.6055 46.904 22.5195 46.3023 22.9042C45.5948 23.3027 45.0282 23.9081 44.6796 24.6379C44.3949 24.1607 44.2375 23.6192 44.2223 23.0648C44.2072 22.5103 44.3348 21.9611 44.593 21.4693C44.8794 20.9555 45.2845 20.5164 45.775 20.1883C46.2654 19.8601 46.8273 19.6523 47.4145 19.5818C48.6497 19.4278 50.1493 19.6859 51.0883 20.6545" fill="white"/>
<path d="M46.2476 31.4367C46.6077 36.7916 44.9896 40.4898 42.4371 43.1016C40.0441 45.2426 36.6802 46.6911 32.4093 47.3791C32.0037 47.447 31.5479 47.533 31.0738 47.6236C29.8745 47.889 28.6546 48.0526 27.4274 48.1124C25.8894 48.0374 24.3626 47.8114 22.8693 47.438L21.9577 47.2433C17.0441 46.243 13.7897 44.4188 11.6747 42.237C9.24985 39.3808 8.15592 35.6916 8.52968 31.3417C8.57178 31.2078 8.60677 31.0718 8.63451 30.9343C9.58259 29.608 11.2189 29.3138 12.4359 29.3002V31.31C12.4357 32.0059 12.709 32.6744 13.1976 33.1733C13.6863 33.6721 14.3517 33.9618 15.0523 33.9806H22.3953C23.1077 33.9794 23.7906 33.6975 24.2939 33.1968C24.7973 32.6961 25.08 32.0175 25.08 31.31V30.4952C25.1233 30.4591 25.169 30.4258 25.2167 30.3956C25.4274 30.2607 25.656 30.1556 25.8959 30.0833C26.3713 29.9459 26.8639 29.8758 27.359 29.8751C27.8544 29.8674 28.348 29.9361 28.8221 30.0788C29.1237 30.176 29.4038 30.3296 29.6472 30.5314V31.3417C29.6472 32.0492 29.9299 32.7278 30.4332 33.2285C30.9366 33.7292 31.6194 34.0111 32.3319 34.0123H39.6658C40.3786 34.0111 41.062 33.7294 41.566 33.2288C42.0701 32.7282 42.3538 32.0496 42.355 31.3417V29.2776C43.3077 29.2459 45.0397 29.4134 46.0698 30.8075C46.1127 31.0206 46.169 31.2307 46.2385 31.4367M44.7617 36.4838C44.7617 36.0728 44.5976 35.6786 44.3054 35.3875C44.0132 35.0965 43.6167 34.9324 43.2028 34.9312H39.447C39.0323 34.9312 38.6347 35.0948 38.3415 35.3859C38.0483 35.6771 37.8836 36.072 37.8836 36.4838C37.8836 36.8956 38.0483 37.2905 38.3415 37.5816C38.6347 37.8728 39.0323 38.0364 39.447 38.0364H43.2028C43.6167 38.0352 44.0132 37.8711 44.3054 37.58C44.5976 37.289 44.7617 36.8948 44.7617 36.4838ZM34.342 36.9364C34.3456 36.8603 34.3342 36.7843 34.3082 36.7126C34.2822 36.6409 34.2423 36.575 34.1906 36.5186C34.139 36.4623 34.0766 36.4166 34.0072 36.3842C33.9377 36.3518 33.8625 36.3334 33.7859 36.3299C33.5534 36.3299 33.3984 36.3299 33.2389 36.3299C33.0871 36.3384 32.9349 36.3384 32.7831 36.3299C32.6993 36.3259 32.6156 36.3392 32.5372 36.3688C32.4587 36.3984 32.3873 36.4437 32.3273 36.5019C32.2679 36.5606 32.2223 36.6316 32.1939 36.7099C32.1656 36.7882 32.1551 36.8717 32.1632 36.9546C32.1904 37.6876 32.0693 38.4186 31.807 39.1044C31.5447 39.7901 31.1466 40.4167 30.6363 40.9469C29.6153 41.9473 27.9014 42.4135 26.1055 42.1736C25.302 42.0642 24.5429 41.7422 23.9077 41.2412C23.2726 40.7403 22.7848 40.0789 22.4956 39.3264C22.4656 39.2557 22.422 39.1915 22.3671 39.1375C22.3122 39.0836 22.2471 39.0409 22.1755 39.0119C22.104 38.9829 22.0274 38.9681 21.9502 38.9685C21.8729 38.9689 21.7965 38.9844 21.7253 39.0141C21.654 39.0438 21.5894 39.0872 21.535 39.1417C21.4807 39.1963 21.4377 39.2609 21.4085 39.3319C21.3793 39.403 21.3644 39.479 21.3648 39.5557C21.3652 39.6325 21.3808 39.7084 21.4107 39.7791C21.7754 40.7223 22.3888 41.5508 23.1868 42.1776C23.9847 42.8043 24.9378 43.2064 25.946 43.3415C26.3009 43.3902 26.6589 43.4144 27.0172 43.4139C28.6592 43.4473 30.2509 42.8506 31.4613 41.7481C32.5851 40.5953 33.2505 39.0774 33.3346 37.4751H33.7403C33.8171 37.4794 33.8939 37.4684 33.9664 37.4428C34.0389 37.4173 34.1055 37.3776 34.1623 37.3262C34.2192 37.2748 34.2652 37.2127 34.2976 37.1434C34.33 37.0741 34.3482 36.9992 34.3511 36.9229M29.205 34.0576C29.3153 33.9583 29.4013 33.8353 29.4566 33.6981C29.5119 33.5608 29.535 33.4129 29.5241 33.2654C29.5204 33.1755 29.4898 33.0887 29.4362 33.0162C29.3826 32.9436 29.3085 32.8886 29.2233 32.858C29.152 32.8451 29.0788 32.8469 29.0082 32.8633C28.9376 32.8796 28.8712 32.9102 28.813 32.9531C28.3572 33.2202 27.6416 34.3111 27.8513 34.7637C28.102 34.9312 28.7994 34.4785 29.2187 34.0666M26.8759 34.7637C27.0764 34.3111 26.3426 33.2292 25.9096 32.9531C25.8514 32.9102 25.785 32.8796 25.7144 32.8633C25.6438 32.8469 25.5706 32.8451 25.4993 32.858C25.4141 32.8886 25.3399 32.9436 25.2864 33.0162C25.2328 33.0887 25.2022 33.1755 25.1985 33.2654C25.1876 33.4129 25.2107 33.5608 25.266 33.6981C25.3212 33.8353 25.4073 33.9583 25.5176 34.0576C25.9232 34.4695 26.6206 34.9221 26.885 34.7547M16.7934 36.4838C16.7922 36.0724 16.6271 35.6782 16.3342 35.3873C16.0413 35.0963 15.6443 34.9324 15.23 34.9312H11.5152C11.1006 34.9312 10.7029 35.0948 10.4097 35.3859C10.1165 35.6771 9.95179 36.072 9.95179 36.4838C9.95179 36.8956 10.1165 37.2905 10.4097 37.5816C10.7029 37.8728 11.1006 38.0364 11.5152 38.0364H15.23C15.6443 38.0352 16.0413 37.8712 16.3342 37.5803C16.6271 37.2894 16.7922 36.8952 16.7934 36.4838Z" fill="white"/>
<path d="M43.2028 34.9312C43.6175 34.9312 44.0151 35.0948 44.3083 35.3859C44.6015 35.6771 44.7662 36.072 44.7662 36.4838C44.7662 36.8956 44.6015 37.2905 44.3083 37.5816C44.0151 37.8728 43.6175 38.0364 43.2028 38.0364H39.447C39.0323 38.0364 38.6347 37.8728 38.3415 37.5816C38.0483 37.2905 37.8836 36.8956 37.8836 36.4838C37.8836 36.072 38.0483 35.6771 38.3415 35.3859C38.6347 35.0948 39.0323 34.9312 39.447 34.9312H43.2028Z" fill="#BB1523"/>
<path d="M42.3641 29.2776V31.31C42.3629 32.0179 42.0792 32.6965 41.5751 33.1971C41.0711 33.6977 40.3878 33.9794 39.6749 33.9806H32.341C31.9867 33.9824 31.6355 33.9147 31.3076 33.7812C30.9798 33.6478 30.6817 33.4514 30.4305 33.2032C30.1794 32.9551 29.9801 32.66 29.8441 32.3351C29.7081 32.0102 29.638 31.6618 29.638 31.31V30.4997C29.3947 30.2979 29.1146 30.1443 28.813 30.0471C28.3401 29.9161 27.8497 29.8581 27.359 29.8751C26.8601 29.879 26.3644 29.9537 25.8868 30.0969C25.6469 30.1692 25.4183 30.2743 25.2076 30.4092C25.1599 30.4394 25.1142 30.4727 25.0709 30.5088V31.3236C25.0709 32.0311 24.7882 32.7097 24.2848 33.2104C23.7815 33.7111 23.0986 33.993 22.3862 33.9942H15.0523C14.3394 33.993 13.6561 33.7113 13.152 33.2107C12.6479 32.7101 12.3642 32.0315 12.363 31.3236V28.4402C12.3738 27.7381 12.6615 27.0683 13.1644 26.5748C13.6674 26.0813 14.3452 25.8035 15.0523 25.8012H22.3953C23.1026 25.8012 23.7814 26.0783 24.2841 26.5725C24.7868 27.0666 25.0728 27.7378 25.08 28.4402V29.6171C25.1974 29.491 25.3289 29.3786 25.472 29.2821C26.0278 28.9039 26.6853 28.7005 27.359 28.6982C28.0385 28.6864 28.7053 28.8823 29.2688 29.2595C29.4085 29.3602 29.5382 29.4739 29.6563 29.5989V28.4402C29.6635 27.7378 29.9495 27.0666 30.4522 26.5725C30.9549 26.0783 31.6337 25.8012 32.341 25.8012H39.6658C40.1248 25.8033 40.5755 25.9227 40.9746 26.1478C41.3738 26.373 41.7079 26.6963 41.9448 27.0867C42.1998 27.4948 42.3369 27.9645 42.3414 28.4447L42.3641 29.2776ZM41.1927 31.31V28.4402C41.1921 28.242 41.1521 28.046 41.0749 27.8633C40.9978 27.6806 40.885 27.5149 40.7431 27.3756C40.6011 27.2364 40.4329 27.1264 40.248 27.0519C40.0631 26.9775 39.8653 26.9401 39.6658 26.9419H32.341C32.1422 26.9413 31.9453 26.9796 31.7615 27.0545C31.5777 27.1295 31.4105 27.2397 31.2696 27.3788C31.1286 27.518 31.0167 27.6833 30.9401 27.8654C30.8635 28.0475 30.8237 28.2428 30.8231 28.4402V31.31C30.8231 31.7097 30.9831 32.0931 31.2677 32.3758C31.5524 32.6585 31.9384 32.8173 32.341 32.8173H39.6658C40.068 32.8161 40.4533 32.6569 40.7377 32.3745C41.0221 32.0921 41.1824 31.7094 41.1836 31.31M23.8995 31.31V28.4402C23.8982 28.0424 23.7383 27.6613 23.4546 27.3804C23.171 27.0996 22.7867 26.9419 22.3862 26.9419H15.0523C14.8535 26.9413 14.6566 26.9796 14.4728 27.0545C14.289 27.1295 14.1218 27.2397 13.9809 27.3788C13.8399 27.518 13.728 27.6833 13.6514 27.8654C13.5748 28.0475 13.535 28.2428 13.5344 28.4402V31.31C13.5356 31.7094 13.6959 32.0921 13.9803 32.3745C14.2647 32.6569 14.6501 32.8161 15.0523 32.8173H22.3953C22.7971 32.8161 23.182 32.6568 23.4656 32.3742C23.7493 32.0917 23.9086 31.709 23.9086 31.31" fill="#BB1523"/>
<path d="M40.8235 20.2834C41.7351 22.0261 42.1499 24.6152 41.9676 27.0731C41.727 26.682 41.3886 26.3593 40.9852 26.1364C40.5819 25.9135 40.1273 25.798 39.6658 25.8012H32.341C31.6305 25.7964 30.9471 26.0714 30.4404 26.5661C29.9338 27.0607 29.6453 27.7346 29.638 28.4402V29.5989C29.52 29.4739 29.3903 29.3602 29.2506 29.2595C28.6922 28.8858 28.0323 28.6901 27.359 28.6982C26.6853 28.7005 26.0278 28.9039 25.472 29.2821C25.328 29.3773 25.1963 29.4898 25.08 29.6171V28.4402C25.0728 27.7378 24.7868 27.0666 24.2841 26.5725C23.7814 26.0783 23.1026 25.8012 22.3953 25.8012H15.0523C14.5769 25.8012 14.1101 25.9271 13.6999 26.1657C13.2897 26.4044 12.951 26.7473 12.7185 27.1592C12.5271 24.6922 12.9419 22.0668 13.8626 20.315C14.5651 19.0933 15.5446 18.0509 16.7235 17.2707C17.9024 16.4905 19.2482 15.9938 20.6541 15.8202C23.3889 15.5622 26.1694 17.1782 27.1357 19.5501C27.158 19.5907 27.191 19.6245 27.2311 19.6481C27.2712 19.6717 27.317 19.6842 27.3636 19.6842C27.4102 19.6842 27.4559 19.6717 27.496 19.6481C27.5361 19.6245 27.5691 19.5907 27.5915 19.5501C28.5578 17.1691 31.3473 15.5622 34.073 15.8202C35.47 15.9918 36.8065 16.4883 37.9739 17.2693C39.1413 18.0503 40.1067 19.0938 40.7916 20.315M36.6347 24.8642C36.7159 24.8713 36.7978 24.8616 36.875 24.8356C36.9523 24.8096 37.0233 24.7679 37.0834 24.7132C37.1436 24.6585 37.1917 24.592 37.2245 24.5178C37.2574 24.4437 37.2744 24.3636 37.2744 24.2825C37.2744 24.2015 37.2574 24.1214 37.2245 24.0473C37.1917 23.9731 37.1436 23.9066 37.0834 23.8519C37.0233 23.7972 36.9523 23.7555 36.875 23.7295C36.7978 23.7035 36.7159 23.6938 36.6347 23.7009H33.9819C33.8355 23.7137 33.6992 23.7806 33.5999 23.8882C33.5007 23.9959 33.4456 24.1366 33.4456 24.2825C33.4456 24.4285 33.5007 24.5692 33.5999 24.6769C33.6992 24.7845 33.8355 24.8514 33.9819 24.8642H36.6347ZM20.6541 23.7643C20.8093 23.7607 20.9567 23.6964 21.0643 23.5853C21.1719 23.4742 21.2309 23.3254 21.2284 23.1713C21.2285 23.0948 21.213 23.0192 21.183 22.9488C21.153 22.8784 21.1091 22.8147 21.0538 22.7614C20.9985 22.7082 20.9331 22.6666 20.8613 22.639C20.7895 22.6115 20.7128 22.5985 20.6359 22.6009L18.1335 22.6326H17.9831C17.8367 22.6455 17.7004 22.7123 17.6011 22.82C17.5019 22.9276 17.4468 23.0683 17.4468 23.2143C17.4468 23.3603 17.5019 23.5009 17.6011 23.6086C17.7004 23.7163 17.8367 23.7831 17.9831 23.7959H18.1381L20.6541 23.7643Z" fill="white"/>
<path d="M41.1927 28.4402V31.31C41.1921 31.5085 41.1522 31.705 41.0751 31.8882C40.998 32.0714 40.8854 32.2377 40.7436 32.3777C40.6018 32.5177 40.4337 32.6285 40.2487 32.704C40.0638 32.7794 39.8657 32.8179 39.6658 32.8173H32.341C31.9384 32.8173 31.5524 32.6585 31.2677 32.3758C30.9831 32.0931 30.8232 31.7097 30.8232 31.31V28.4402C30.8237 28.2428 30.8635 28.0475 30.9401 27.8654C31.0167 27.6833 31.1287 27.518 31.2696 27.3788C31.4105 27.2397 31.5777 27.1295 31.7615 27.0545C31.9454 26.9796 32.1423 26.9413 32.341 26.9419H39.6658C39.8645 26.9413 40.0614 26.9796 40.2452 27.0545C40.4291 27.1295 40.5962 27.2397 40.7372 27.3788C40.8781 27.518 40.9901 27.6833 41.0667 27.8654C41.1433 28.0475 41.183 28.2428 41.1836 28.4402M36.7896 29.7574C36.7939 29.5392 36.7548 29.3224 36.6746 29.1192C36.5944 28.916 36.4747 28.7306 36.3223 28.5733C36.17 28.4161 35.9879 28.2903 35.7865 28.203C35.5852 28.1156 35.3684 28.0686 35.1487 28.0645C34.8164 28.0678 34.4928 28.1706 34.2204 28.3596C33.9479 28.5486 33.7393 28.8149 33.6218 29.1237C33.5449 29.3232 33.5048 29.5347 33.5033 29.7483C33.501 29.783 33.501 29.8178 33.5033 29.8524C33.5346 30.2728 33.7282 30.6649 34.0438 30.9469C34.3594 31.2288 34.7725 31.3787 35.1967 31.3652C35.621 31.3518 36.0236 31.1761 36.3205 30.8747C36.6173 30.5734 36.7854 30.1698 36.7896 29.7483" fill="white"/>
<path d="M37.2181 24.2803C37.2169 24.434 37.1552 24.5812 37.0462 24.6903C36.9372 24.7994 36.7895 24.8618 36.6347 24.8642H33.9728C33.8263 24.8514 33.6901 24.7845 33.5908 24.6769C33.4915 24.5692 33.4365 24.4285 33.4365 24.2825C33.4365 24.1366 33.4915 23.9959 33.5908 23.8882C33.6901 23.7806 33.8263 23.7137 33.9728 23.7009H36.6256C36.7808 23.702 36.9295 23.7632 37.0401 23.8713C37.1507 23.9795 37.2145 24.1262 37.2181 24.2803Z" fill="#1C1C1B"/>
<path d="M35.1487 28.0645C35.4808 28.0539 35.8086 28.1404 36.0915 28.3132C36.3745 28.4861 36.6001 28.7377 36.7403 29.0368C36.8805 29.3358 36.9291 29.6692 36.8802 29.9955C36.8313 30.3218 36.6869 30.6267 36.465 30.8722C36.2431 31.1177 35.9535 31.2931 35.6321 31.3765C35.3107 31.46 34.9717 31.4479 34.6572 31.3417C34.3427 31.2355 34.0665 31.0398 33.863 30.7791C33.6595 30.5184 33.5376 30.204 33.5124 29.8751H34.424V29.1327H33.6218C33.7378 28.8223 33.9458 28.5541 34.2184 28.3634C34.491 28.1727 34.8153 28.0685 35.1487 28.0645Z" fill="#1C1C1B"/>
<path d="M34.4468 29.1327V29.8751H33.5352C33.5329 29.8404 33.5329 29.8056 33.5352 29.771C33.5367 29.5574 33.5768 29.3458 33.6537 29.1463L34.4468 29.1327Z" fill="white"/>
<path d="M33.7859 36.3208C33.8625 36.3243 33.9377 36.3428 34.0072 36.3752C34.0766 36.4076 34.139 36.4532 34.1906 36.5096C34.2423 36.5659 34.2822 36.6318 34.3082 36.7035C34.3342 36.7752 34.3456 36.8513 34.342 36.9274C34.339 37.0029 34.3211 37.0771 34.2893 37.1457C34.2575 37.2144 34.2123 37.2761 34.1564 37.3274C34.1005 37.3787 34.035 37.4185 33.9636 37.4447C33.8922 37.4708 33.8163 37.4827 33.7403 37.4796H33.3301C33.2461 39.0798 32.5824 40.5958 31.4613 41.7481C30.2458 42.8348 28.6566 43.4165 27.0217 43.3732C26.6634 43.3736 26.3055 43.3494 25.9506 43.3007C24.9456 43.1626 23.9963 42.7592 23.2018 42.1326C22.4073 41.506 21.7967 40.6792 21.4335 39.7384C21.3731 39.5955 21.3723 39.4346 21.4313 39.2912C21.4902 39.1477 21.6042 39.0334 21.748 38.9734C21.8919 38.9134 22.0539 38.9125 22.1983 38.9711C22.3428 39.0297 22.4579 39.1429 22.5184 39.2857C22.8076 40.0382 23.2954 40.6996 23.9305 41.2005C24.5657 41.7014 25.3248 42.0235 26.1283 42.1329C27.9014 42.3728 29.638 41.9066 30.659 40.9062C31.1694 40.3759 31.5675 39.7494 31.8298 39.0636C32.092 38.3779 32.2132 37.6469 32.186 36.9138C32.1779 36.831 32.1884 36.7474 32.2167 36.6691C32.2451 36.5909 32.2907 36.5198 32.3501 36.4612C32.4101 36.4029 32.4815 36.3576 32.56 36.328C32.6384 36.2984 32.7221 36.2852 32.8059 36.2892C32.9577 36.2977 33.1099 36.2977 33.2617 36.2892C33.4212 36.2892 33.5762 36.2892 33.8087 36.2892" fill="#BB1523"/>
<path d="M29.5241 33.2654C29.535 33.4129 29.5119 33.5608 29.4566 33.6981C29.4013 33.8353 29.3153 33.9583 29.205 34.0576C28.7994 34.465 28.102 34.9221 27.8376 34.7547C27.6279 34.302 28.3618 33.2202 28.7994 32.944C28.8575 32.9011 28.924 32.8706 28.9945 32.8542C29.0651 32.8378 29.1383 32.8361 29.2096 32.849C29.2948 32.8795 29.369 32.9346 29.4226 33.0071C29.4761 33.0797 29.5067 33.1665 29.5104 33.2564" fill="#1C1C1B"/>
<path d="M28.5122 4.97918C28.4866 5.93042 28.2318 6.86171 27.7693 7.69509C27.2861 8.55513 26.4474 9.75919 24.1684 10.4517C22.1993 11.1443 21.1737 11.52 20.3806 12.1266C21.3111 11.016 22.4915 10.1384 23.8265 9.56455C24.2823 9.34727 24.6561 9.17074 25.0253 8.94441C25.816 8.50613 26.5277 7.94011 27.1311 7.2696C27.708 6.58166 28.1739 5.80899 28.5122 4.97918Z" fill="white"/>
<path d="M25.8959 32.9531C26.3517 33.2202 27.0628 34.3111 26.8622 34.7637C26.607 34.9312 25.9096 34.4785 25.4948 34.0666C25.3845 33.9673 25.2985 33.8444 25.2432 33.7071C25.1879 33.5699 25.1648 33.4219 25.1757 33.2745C25.1794 33.1846 25.21 33.0978 25.2636 33.0252C25.3172 32.9527 25.3913 32.8976 25.4766 32.8671C25.5478 32.8539 25.6211 32.8555 25.6917 32.8719C25.7623 32.8883 25.8287 32.919 25.8868 32.9622" fill="#1C1C1B"/>
<path d="M23.9086 28.4402V31.31C23.9086 31.709 23.7493 32.0917 23.4656 32.3742C23.1819 32.6568 22.7971 32.8161 22.3953 32.8173H15.0523C14.6501 32.8161 14.2647 32.6569 13.9803 32.3745C13.6959 32.0921 13.5356 31.7094 13.5344 31.31V28.4402C13.535 28.2428 13.5748 28.0475 13.6514 27.8654C13.728 27.6833 13.8399 27.518 13.9809 27.3788C14.1218 27.2397 14.289 27.1295 14.4728 27.0545C14.6566 26.9796 14.8535 26.9413 15.0523 26.9419H22.3953C22.7958 26.9419 23.1801 27.0996 23.4637 27.3804C23.7474 27.6613 23.9074 28.0424 23.9086 28.4402ZM21.2056 29.7574C21.2099 29.5385 21.1705 29.3209 21.0897 29.1171C21.009 28.9134 20.8885 28.7275 20.7351 28.5702C20.5818 28.4128 20.3986 28.2872 20.1962 28.2004C19.9938 28.1136 19.7761 28.0674 19.5556 28.0645C19.2231 28.0671 18.8993 28.1698 18.6267 28.3589C18.3541 28.5479 18.1456 28.8146 18.0287 29.1237C17.9496 29.3225 17.9094 29.5345 17.9102 29.7483C17.9102 29.7845 17.9102 29.8162 17.9102 29.8524C17.9414 30.2728 18.1351 30.6649 18.4507 30.9469C18.7663 31.2288 19.1793 31.3787 19.6036 31.3652C20.0279 31.3518 20.4305 31.1761 20.7273 30.8747C21.0242 30.5734 21.1923 30.1698 21.1965 29.7483" fill="white"/>
<path d="M21.2284 23.1713C21.2309 23.3254 21.1719 23.4742 21.0643 23.5853C20.9567 23.6964 20.8093 23.7607 20.6541 23.7643L18.1381 23.7914H17.9831C17.8367 23.7786 17.7004 23.7117 17.6012 23.6041C17.5019 23.4964 17.4468 23.3557 17.4468 23.2098C17.4468 23.0638 17.5019 22.9231 17.6012 22.8154C17.7004 22.7078 17.8367 22.6409 17.9831 22.6281H18.1335L20.6359 22.6009C20.7128 22.5985 20.7895 22.6115 20.8613 22.639C20.9331 22.6666 20.9986 22.7082 21.0538 22.7615C21.1091 22.8147 21.1531 22.8784 21.1831 22.9488C21.213 23.0192 21.2285 23.0948 21.2284 23.1713Z" fill="#1C1C1B"/>
<path d="M19.5556 28.0645C19.8875 28.0548 20.2149 28.142 20.4973 28.3155C20.7797 28.4889 21.0046 28.7408 21.1441 29.04C21.2836 29.3392 21.3316 29.6725 21.2821 29.9985C21.2327 30.3245 21.0879 30.629 20.8658 30.874C20.6437 31.1191 20.354 31.294 20.0327 31.3771C19.7114 31.4602 19.3726 31.4478 19.0584 31.3414C18.7441 31.235 18.4682 31.0394 18.2649 30.7787C18.0616 30.518 17.9399 30.2038 17.9147 29.8751H18.8902V29.1327H18.0287C18.1442 28.8219 18.352 28.5534 18.6247 28.3626C18.8974 28.1718 19.2221 28.0678 19.5556 28.0645Z" fill="#1C1C1B"/>
<path d="M18.8902 29.1327V29.8751H17.9193C17.9193 29.8389 17.9193 29.8072 17.9193 29.771C17.9185 29.5572 17.9587 29.3452 18.0378 29.1463L18.8902 29.1327Z" fill="white"/>
<path d="M15.23 34.9312C15.6447 34.9312 16.0423 35.0948 16.3355 35.3859C16.6287 35.6771 16.7935 36.072 16.7935 36.4838C16.7935 36.8956 16.6287 37.2905 16.3355 37.5816C16.0423 37.8728 15.6447 38.0364 15.23 38.0364H11.5152C11.1006 38.0364 10.7029 37.8728 10.4097 37.5816C10.1165 37.2905 9.95181 36.8956 9.95181 36.4838C9.95181 36.072 10.1165 35.6771 10.4097 35.3859C10.7029 35.0948 11.1006 34.9312 11.5152 34.9312H15.23Z" fill="#BB1523"/>
<path d="M10.2663 21.4512C10.5366 21.9581 10.6657 22.5275 10.64 23.1005C10.6144 23.6735 10.435 24.2293 10.1205 24.7103C9.81962 23.805 8.92624 23.2256 8.44764 22.8997C7.84598 22.5149 7.11669 22.6009 6.45577 22.6869C7.16585 23.1334 7.69881 23.8098 7.96449 24.6017C7.69066 24.5495 7.40822 24.5633 7.14091 24.6421C6.87361 24.7209 6.62926 24.8622 6.42843 25.0543C6.65171 25.0411 6.87484 25.0825 7.07828 25.1748C7.28172 25.2671 7.45924 25.4076 7.59529 25.5839L6.50135 25.9596C6.82972 26.1953 7.09915 26.5028 7.28883 26.8583C7.47851 27.2139 7.58336 27.608 7.59529 28.0101C7.596 28.0729 7.6052 28.1354 7.62264 28.1957C7.30247 28.4038 6.94095 28.541 6.56265 28.598C6.18435 28.655 5.79813 28.6305 5.43021 28.5262C4.60427 28.2612 3.87269 27.7655 3.32302 27.0984C2.77334 26.4313 2.42884 25.6211 2.33073 24.7646C2.24889 24.0164 2.33477 23.2595 2.58221 22.5481C2.82966 21.8367 3.23254 21.1885 3.76196 20.65C4.67357 19.6813 6.20508 19.4233 7.4312 19.5772C8.01914 19.6434 8.58281 19.8474 9.07575 20.1725C9.56868 20.4975 9.97675 20.9342 10.2663 21.4467" fill="white"/>
</svg>
