<svg width="50" height="32" viewBox="0 0 50 32" fill="none" xmlns="http://www.w3.org/2000/svg">
<g clip-path="url(#clip0_93_1866)">
<rect width="50" height="32" rx="3" fill="#0F3560"/>
<path d="M29.3632 23.8644H20.614V8.14062H29.3632V23.8644Z" fill="#FF5F00"/>
<path d="M21.1745 16.001C21.1745 12.8113 22.6679 9.97008 24.9936 8.13906C23.2929 6.80014 21.1465 6.00098 18.8139 6.00098C13.2916 6.00098 8.81519 10.4781 8.81519 16.001C8.81519 21.5239 13.2916 26.001 18.8139 26.001C21.1465 26.001 23.2929 25.2018 24.9936 23.8629C22.6679 22.0319 21.1745 19.1906 21.1745 16.001Z" fill="#EB001B"/>
<path d="M41.163 16.001C41.163 21.5239 36.6866 26.001 31.1643 26.001C28.8317 26.001 26.6853 25.2018 24.984 23.8629C27.3103 22.0319 28.8037 19.1906 28.8037 16.001C28.8037 12.8113 27.3103 9.97008 24.984 8.13906C26.6853 6.80014 28.8317 6.00098 31.1643 6.00098C36.6866 6.00098 41.163 10.4781 41.163 16.001Z" fill="#F79E1B"/>
<path d="M16.3392 16.0641C16.3392 15.6273 16.6254 15.2685 17.0932 15.2685C17.5401 15.2685 17.8418 15.6118 17.8418 16.0641C17.8418 16.5164 17.5401 16.8597 17.0932 16.8597C16.6254 16.8597 16.3392 16.5009 16.3392 16.0641ZM18.3512 16.0641V14.8216H17.8109V15.1233C17.6395 14.8995 17.3794 14.7591 17.0259 14.7591C16.3291 14.7591 15.7828 15.3054 15.7828 16.0641C15.7828 16.8234 16.3291 17.3691 17.0259 17.3691C17.3794 17.3691 17.6395 17.2287 17.8109 17.0049V17.3067H18.3512V16.0641ZM36.611 16.0641C36.611 15.6273 36.8972 15.2685 37.365 15.2685C37.8125 15.2685 38.1136 15.6118 38.1136 16.0641C38.1136 16.5164 37.8125 16.8597 37.365 16.8597C36.8972 16.8597 36.611 16.5009 36.611 16.0641ZM38.6236 16.0641V13.8236H38.0827V15.1233C37.9113 14.8995 37.6512 14.7591 37.2977 14.7591C36.6009 14.7591 36.0546 15.3054 36.0546 16.0641C36.0546 16.8234 36.6009 17.3691 37.2977 17.3691C37.6512 17.3691 37.9113 17.2287 38.0827 17.0049V17.3067H38.6236V16.0641ZM25.0585 15.2429C25.4066 15.2429 25.6304 15.4613 25.6875 15.8457H24.3979C24.4557 15.4869 24.6735 15.2429 25.0585 15.2429ZM25.0692 14.7591C24.3408 14.7591 23.8314 15.2893 23.8314 16.0641C23.8314 16.8544 24.3616 17.3691 25.1055 17.3691C25.4798 17.3691 25.8226 17.2757 26.1243 17.021L25.8595 16.6205C25.6512 16.7865 25.3858 16.8806 25.1364 16.8806C24.7883 16.8806 24.4711 16.7193 24.3932 16.2718H26.2386C26.2439 16.2045 26.2493 16.1367 26.2493 16.0641C26.2439 15.2893 25.7655 14.7591 25.0692 14.7591ZM31.5938 16.0641C31.5938 15.6273 31.88 15.2685 32.3478 15.2685C32.7947 15.2685 33.0964 15.6118 33.0964 16.0641C33.0964 16.5164 32.7947 16.8597 32.3478 16.8597C31.88 16.8597 31.5938 16.5009 31.5938 16.0641ZM33.6058 16.0641V14.8216H33.0654V15.1233C32.8935 14.8995 32.634 14.7591 32.2805 14.7591C31.5837 14.7591 31.0374 15.3054 31.0374 16.0641C31.0374 16.8234 31.5837 17.3691 32.2805 17.3691C32.634 17.3691 32.8935 17.2287 33.0654 17.0049V17.3067H33.6058V16.0641ZM28.5422 16.0641C28.5422 16.8181 29.067 17.3691 29.868 17.3691C30.2423 17.3691 30.4917 17.2858 30.7618 17.0728L30.5024 16.636C30.2995 16.7818 30.0864 16.8597 29.852 16.8597C29.4205 16.8544 29.1033 16.5426 29.1033 16.0641C29.1033 15.5857 29.4205 15.2738 29.852 15.2685C30.0864 15.2685 30.2995 15.3464 30.5024 15.4922L30.7618 15.0554C30.4917 14.8424 30.2423 14.7591 29.868 14.7591C29.067 14.7591 28.5422 15.3101 28.5422 16.0641ZM35.5089 14.7591C35.1971 14.7591 34.9941 14.9049 34.8537 15.1233V14.8216H34.3181V17.3067H34.8591V15.9135C34.8591 15.5023 35.0358 15.2738 35.3893 15.2738C35.4988 15.2738 35.613 15.2893 35.7273 15.3363L35.8939 14.8269C35.7743 14.7799 35.6184 14.7591 35.5089 14.7591ZM21.0238 15.0191C20.7637 14.8477 20.4055 14.7591 20.0103 14.7591C19.3807 14.7591 18.9755 15.0608 18.9755 15.5547C18.9755 15.96 19.2772 16.2099 19.833 16.2879L20.0883 16.3242C20.3846 16.3658 20.5245 16.4438 20.5245 16.5842C20.5245 16.7764 20.3269 16.8859 19.958 16.8859C19.5836 16.8859 19.3135 16.7663 19.1314 16.6259L18.8767 17.0466C19.173 17.265 19.5473 17.3691 19.9526 17.3691C20.6703 17.3691 21.0863 17.0311 21.0863 16.558C21.0863 16.1212 20.759 15.8927 20.218 15.8148L19.9633 15.7779C19.7294 15.7469 19.542 15.7005 19.542 15.5339C19.542 15.3518 19.7187 15.2429 20.0151 15.2429C20.3323 15.2429 20.6393 15.3625 20.7899 15.4559L21.0238 15.0191ZM27.9959 14.7591C27.684 14.7591 27.4811 14.9049 27.3413 15.1233V14.8216H26.8057V17.3067H27.346V15.9135C27.346 15.5023 27.5228 15.2738 27.8762 15.2738C27.9857 15.2738 28.1 15.2893 28.2143 15.3363L28.3809 14.8269C28.2613 14.7799 28.1054 14.7591 27.9959 14.7591ZM23.3845 14.8216H22.5008V14.0676H21.9545V14.8216H21.4505V15.3155H21.9545V16.4491C21.9545 17.0258 22.1782 17.3691 22.8174 17.3691C23.0518 17.3691 23.322 17.2965 23.4934 17.1769L23.3375 16.7139C23.1762 16.8074 22.9995 16.8544 22.859 16.8544C22.5889 16.8544 22.5008 16.6878 22.5008 16.4384V15.3155H23.3845V14.8216ZM15.3049 17.3067V15.7469C15.3049 15.1596 14.9306 14.7644 14.3272 14.7591C14.01 14.7537 13.6827 14.8525 13.4536 15.2012C13.2822 14.9257 13.0121 14.7591 12.6324 14.7591C12.367 14.7591 12.1075 14.837 11.9046 15.128V14.8216H11.3636V17.3067H11.9093V15.929C11.9093 15.4976 12.1486 15.2685 12.5181 15.2685C12.877 15.2685 13.0585 15.5023 13.0585 15.9237V17.3067H13.6048V15.929C13.6048 15.4976 13.8541 15.2685 14.2129 15.2685C14.5819 15.2685 14.7586 15.5023 14.7586 15.9237V17.3067H15.3049Z" fill="white"/>
</g>
<defs>
<clipPath id="clip0_93_1866">
<rect width="50" height="32" fill="white"/>
</clipPath>
</defs>
</svg>
