<svg width="52" height="52" viewBox="0 0 52 52" fill="none" xmlns="http://www.w3.org/2000/svg">
<rect width="52" height="52" fill="white"/>
<path d="M13.3913 51.1629C8.77631 51.1629 5.02173 47.4083 5.02173 42.7934C5.02173 38.1784 8.77631 34.4238 13.3913 34.4238C18.0062 34.4238 21.7608 38.1784 21.7608 42.7934C21.7608 47.4083 18.0062 51.1629 13.3913 51.1629Z" fill="#2AB1A3"/>
<path d="M35.1521 23.5435C29.1427 23.5435 24.2717 28.4145 24.2717 34.4239H32.6412V45.0013C33.4489 45.1921 34.2867 45.3043 35.1521 45.3043C41.1614 45.3043 46.0325 40.4332 46.0325 34.4239C46.0325 28.4145 41.1614 23.5435 35.1521 23.5435Z" fill="#2AB1A3"/>
<path d="M20.0886 31.8996L21.7625 31.9255C21.7708 31.4049 21.8144 30.8785 21.893 30.3621L20.2375 30.1118C20.148 30.7027 20.0978 31.3036 20.0886 31.8996Z" fill="#1C1C1B"/>
<path d="M26.144 21.0202C23.4916 22.7251 21.5365 25.3179 20.6401 28.3193L22.2437 28.798C23.0263 26.1792 24.7328 23.9177 27.0495 22.4279L28.1167 21.7425L27.2119 20.3347L26.144 21.0202Z" fill="#1C1C1B"/>
<path d="M44.2967 18.2046L41.9139 16.673C42.8521 16.3089 43.5216 15.4025 43.5216 14.337C43.5216 13.0598 42.56 12.0145 41.3255 11.858L45.1956 7.9879V7.6414C45.1956 5.78922 43.8096 4.21825 41.9708 3.98893L40.4299 3.79643L41.2334 1.18596L36.4904 0L34.3553 2.84565L33.0262 0.85202L27.3617 1.98526L27.9752 3.82488L26.6587 3.98893C24.8207 4.21825 23.4347 5.78922 23.4347 7.6414V7.9879L27.3048 11.858C26.0703 12.0145 25.1086 13.0598 25.1086 14.337C25.1086 15.4025 25.7782 16.3089 26.7164 16.673L24.3336 18.2046C19.578 21.2603 16.7391 26.4612 16.7391 32.1148C16.7391 32.6061 16.7684 33.0974 16.8111 33.587H10.0435V26.8914H4.18477C1.87729 26.8914 0 28.7686 0 31.0761V47.8152C0 50.1227 1.87729 52 4.18477 52H33.4782V48.6522H35.3538C44.4724 48.6522 51.8912 41.2343 51.8912 32.1148C51.8912 26.4612 49.0522 21.2603 44.2967 18.2046ZM41.7632 5.64944C42.6571 5.7616 43.3559 6.45543 43.4957 7.32001L38.9904 11.8262H37.9592L39.9303 5.42012L41.7632 5.64944ZM32.2562 2.71341L34.2758 5.74151L37.1633 1.89152L39.1151 2.37946L36.2083 11.8262H32.4077L29.5504 3.25492L32.2562 2.71341ZM26.8671 5.64944L28.515 5.44355L30.6426 11.8262H29.6399L25.1346 7.32001C25.2744 6.45543 25.9732 5.7616 26.8671 5.64944ZM27.6195 13.5001H41.0108C41.4719 13.5001 41.8477 13.875 41.8477 14.337C41.8477 14.799 41.4719 15.174 41.0108 15.174H27.6195C27.1583 15.174 26.7826 14.799 26.7826 14.337C26.7826 13.875 27.1583 13.5001 27.6195 13.5001ZM4.18477 28.5653H8.36955V33.587H4.18477C2.80045 33.587 1.67391 32.4605 1.67391 31.0761C1.67391 29.6918 2.80045 28.5653 4.18477 28.5653ZM31.8043 50.3261H4.18477C2.80045 50.3261 1.67391 49.1996 1.67391 47.8152V34.4223C2.3736 34.9487 3.2432 35.2609 4.18477 35.2609H31.8043V50.3261ZM33.4782 34.906C33.9921 35.132 34.5562 35.2609 35.1521 35.2609C36.5364 35.2609 37.663 36.3874 37.663 37.7718C37.663 39.1561 36.5364 40.2826 35.1521 40.2826H33.4782V34.906ZM35.3538 46.9783H33.4782V41.9565H35.1521C37.4596 41.9565 39.3369 40.0793 39.3369 37.7718C39.3369 35.4643 37.4596 33.587 35.1521 33.587C33.7678 33.587 32.6412 32.4605 32.6412 31.0761C32.6412 29.6918 33.7678 28.5653 35.1521 28.5653H37.663V31.0761H39.3369V26.8914H35.9891V25.2174H34.3151V26.9759C32.4077 27.3651 30.9673 29.0549 30.9673 31.0761C30.9673 32.0219 31.2946 32.8856 31.826 33.587H18.4942C18.4465 33.0982 18.413 32.6069 18.413 32.1148C18.413 27.0336 20.9649 22.3601 25.2384 19.6124L29.5386 16.8479H39.0916L43.3919 19.6124C47.6654 22.3601 50.2173 27.0336 50.2173 32.1148C50.2173 40.3103 43.5493 46.9783 35.3538 46.9783Z" fill="#1C1C1B"/>
<path d="M12.5543 48.6522H14.2282V46.9783C15.6126 46.9783 16.7391 45.8517 16.7391 44.4674C16.7391 43.0831 15.6126 41.9565 14.2282 41.9565H12.5543C12.0932 41.9565 11.7174 41.5816 11.7174 41.1196C11.7174 40.6576 12.0932 40.2826 12.5543 40.2826H15.0652V41.1196H16.7391V38.6087H14.2282V36.9348H12.5543V38.6087C11.17 38.6087 10.0435 39.7353 10.0435 41.1196C10.0435 42.5039 11.17 43.6305 12.5543 43.6305H14.2282C14.6894 43.6305 15.0652 44.0054 15.0652 44.4674C15.0652 44.9294 14.6894 45.3044 14.2282 45.3044H11.7174V44.4674H10.0435V46.9783H12.5543V48.6522Z" fill="#1C1C1B"/>
<path d="M48.5417 31.8972L46.8678 31.9282L46.8694 32.1148C46.8694 32.5559 46.8443 33.0028 46.7933 33.4414L48.4563 33.6331C48.5141 33.1309 48.5433 32.6203 48.5433 32.1157L48.5417 31.8972Z" fill="#1C1C1B"/>
<path d="M39.0665 43.017L39.6072 44.6013C43.7895 43.1735 46.964 39.7738 48.0998 35.5095L46.4819 35.0776C45.4918 38.8012 42.719 41.7691 39.0665 43.017Z" fill="#1C1C1B"/>
<path d="M28.4565 41.1196H30.1304V36.9348H25.9456V38.6087H28.4565V41.1196Z" fill="#1C1C1B"/>
<path d="M30.1304 44.4673H28.4565V46.9781H25.9456V48.6521H30.1304V44.4673Z" fill="#1C1C1B"/>
</svg>
