<svg width="52" height="52" viewBox="0 0 52 52" fill="none" xmlns="http://www.w3.org/2000/svg">
<path d="M0 27.1415C0 31.4139 2.37355 35.2543 6.19471 37.1649L7.54839 37.8418V32.7097L6.36245 31.5238C6.04794 31.2092 5.87097 30.7823 5.87097 30.3378V30.1936C5.87097 29.2668 6.62161 28.5161 7.54839 28.5161V26.8387V24.3226V23.4839H0V27.1415Z" fill="#2AB1A3"/>
<path d="M44.4516 23.4839V24.3226V26.8387V28.5161C45.3784 28.5161 46.129 29.2668 46.129 30.1936V30.3378C46.129 30.7823 45.9521 31.2092 45.6375 31.5238L44.4516 32.7097V37.8418L45.8053 37.1649C49.6264 35.2543 52 31.4139 52 27.1415V23.4839H44.4516Z" fill="#2AB1A3"/>
<path d="M26 16.7741C29.7057 16.7741 32.7097 13.7701 32.7097 10.0644C32.7097 6.35876 29.7057 3.35474 26 3.35474C22.2944 3.35474 19.2903 6.35876 19.2903 10.0644C19.2903 13.7701 22.2944 16.7741 26 16.7741Z" fill="#2AB1A3"/>
<path d="M29.3549 31.0322H27.6774C27.6774 31.4944 27.3009 31.8709 26.8387 31.8709H23.4839V33.5484H26.8387C28.226 33.5484 29.3549 32.4195 29.3549 31.0322Z" fill="#1C1C1B"/>
<path d="M45.2903 38.7928V33.0569L46.2305 32.1167C46.7061 31.642 46.9677 31.0096 46.9677 30.337V30.1935C46.9677 29.0999 46.2666 28.1672 45.2903 27.8208V23.4839H35.4598L33.701 28.7594C33.6004 29.0646 33.5484 29.3825 33.5484 29.7037C33.5484 30.8427 34.1808 31.8676 35.1998 32.3767L35.2258 34.0399C35.2258 35.0287 35.6108 35.9588 36.3103 36.6583C36.9259 37.2739 37.7243 37.6287 38.5806 37.7084V41.3123C37.7847 41.8868 37.0668 42.5503 36.4403 43.2866C34.8509 41.2343 32.5646 39.8806 29.9839 39.4814L29.6366 38.4389C31.8735 37.9273 33.5484 35.9261 33.5484 33.5366V29.7037V23.4839H31.0323V20.5232C31.0323 19.5109 31.5044 18.5481 32.3272 17.8821C34.7024 15.9606 36.0645 13.1115 36.0645 10.0645C36.0645 7.20452 34.8417 4.46948 32.708 2.56142C30.5768 0.655032 27.7126 -0.252452 24.8443 0.0645807C20.4285 0.557742 16.7339 4.09206 16.0588 8.46929C15.5044 12.0598 16.8396 15.5656 19.63 17.8477C20.4796 18.543 20.9677 19.5184 20.9677 20.5257V23.4839H18.4516V29.7037V33.5366C18.4516 35.9261 20.1265 37.9273 22.3634 38.4389L22.0153 39.4823C19.4631 39.8832 17.1457 41.262 15.5623 43.2908C14.9349 42.5528 14.2161 41.8885 13.4185 41.3123V37.7084C14.2748 37.6287 15.0733 37.2739 15.6889 36.6575C16.3892 35.9588 16.7742 35.0295 16.7742 34.0399V32.3893L16.8002 32.3767C17.8192 31.8676 18.4516 30.8427 18.4516 29.7037C18.4516 29.3825 18.3996 29.0646 18.2981 28.7585L16.5402 23.4839H14.2581V9.02787L10.3514 1.21445C9.97729 0.465484 9.22497 0 8.3871 0C7.54923 0 6.7969 0.465484 6.42284 1.21361L2.51613 9.02787V23.4839H4.19355V10.0645H7.54839V23.4839H6.70968V27.8208C5.73342 28.1672 5.03226 29.0999 5.03226 30.1935V30.337C5.03226 31.0088 5.29394 31.6412 5.76948 32.1167L6.70968 33.0569V38.7928C2.72916 40.0794 0 43.7773 0 48.0128V52H52V48.0128C52 43.7781 49.2708 40.0794 45.2903 38.7928ZM40.2581 37.7419H41.9355V36.0645H38.9279H38.927C38.3869 36.0645 37.8795 35.854 37.497 35.4715C37.1196 35.095 36.9032 34.5733 36.9032 34.0399V31.3526L35.9505 30.8754C35.5034 30.6532 35.2258 30.2036 35.2258 29.7037C35.2258 29.5628 35.2485 29.4228 35.2929 29.2894L36.6692 25.1613H43.6129V29.3548H44.4516C44.9137 29.3548 45.2903 29.7314 45.2903 30.1935V30.337C45.2903 30.5609 45.2031 30.7723 45.0446 30.9308L43.6129 32.3624V38.8599L41.0322 39.9352C40.7688 40.045 40.5105 40.1633 40.2581 40.2899V37.7419ZM26 42.4244L23.6046 40.0199L24.0886 38.5681H27.9114L28.3954 40.0199L26 42.4244ZM22.3533 41.1421L24.8149 43.6121L23.1325 45.2945L22.2149 41.1639C22.261 41.1563 22.3072 41.1488 22.3533 41.1421ZM29.6475 41.1404C29.6937 41.1471 29.7398 41.1546 29.7859 41.1622L28.8675 45.2937L27.1851 43.6112L29.6475 41.1404ZM20.6918 16.5494C18.3661 14.6472 17.2539 11.7218 17.7161 8.72426C18.278 5.08342 21.3535 2.14206 25.0296 1.7311C27.4577 1.46271 29.7868 2.1991 31.5892 3.8111C33.3672 5.40213 34.3871 7.6809 34.3871 10.0645C34.3871 12.6025 33.2515 14.9768 31.273 16.5779C30.16 17.4779 29.4874 18.7561 29.3775 20.129H27.7353L28.2385 12.5806H29.3548C30.7421 12.5806 31.871 11.4517 31.871 10.0645C31.871 8.67729 30.7421 7.54839 29.3548 7.54839H29.2466C27.9274 7.54839 26.8244 8.58 26.7364 9.89761L26.6693 10.9032H25.3307L25.2636 9.89677C25.1755 8.58 24.0726 7.54839 22.7534 7.54839H22.6452C21.2579 7.54839 20.129 8.67729 20.129 10.0645C20.129 11.4517 21.2579 12.5806 22.6452 12.5806H23.7615L24.2647 20.129H22.6217C22.5093 18.7628 21.8241 17.4745 20.6918 16.5494ZM25.9455 20.129L25.4423 12.5806H26.5569L26.0537 20.129H25.9455ZM28.3501 10.9032L28.4096 10.0092C28.439 9.56968 28.8072 9.22581 29.2466 9.22581H29.3548C29.817 9.22581 30.1935 9.60239 30.1935 10.0645C30.1935 10.5266 29.817 10.9032 29.3548 10.9032H28.3501ZM23.6499 10.9032H22.6452C22.183 10.9032 21.8065 10.5266 21.8065 10.0645C21.8065 9.60239 22.183 9.22581 22.6452 9.22581H22.7534C23.1928 9.22581 23.561 9.56968 23.5904 10.0092L23.6499 10.9032ZM22.6452 21.8065H29.3548V23.4839H22.6452V21.8065ZM20.129 33.5366V25.1613H31.871V33.5366C31.871 35.3868 30.3663 36.8915 28.5161 36.8915H23.4839C21.6337 36.8915 20.129 35.386 20.129 33.5366ZM12.813 42.9503L12.2351 44.1052L9.11594 42.2341L8.76619 40.8359L10.322 41.4843C11.232 41.8625 12.0665 42.359 12.813 42.9503ZM7.92329 1.96342C8.10026 1.61032 8.67393 1.61032 8.85006 1.96342L12.0623 8.3871H4.71187L7.92329 1.96342ZM9.22581 10.0645H12.5806V23.4839H9.22581V10.0645ZM6.70968 30.1935C6.70968 29.7314 7.08626 29.3548 7.54839 29.3548H8.3871V25.1613H15.3308L16.7071 29.2886C16.7515 29.4228 16.7742 29.562 16.7742 29.7037C16.7742 30.2036 16.4966 30.6532 16.0495 30.8763L15.0968 31.3535V34.0407C15.0968 34.5817 14.8863 35.0899 14.503 35.4732C14.1214 35.8548 13.6131 36.0645 13.073 36.0645H13.0721H10.0645V37.7419H11.7419V40.2908C11.4895 40.1641 11.2312 40.0459 10.9678 39.936L8.3871 38.8599V32.3624L6.95542 30.9308C6.7969 30.7723 6.70968 30.5609 6.70968 30.337V30.1935ZM6.70968 50.3226V45.2903H5.03226V50.3226H1.67742V48.0128C1.67742 44.6093 3.80774 41.6243 6.94955 40.482L7.65742 43.3143L12.9254 46.4754L14.0861 44.153C15.6025 45.8372 16.5561 47.991 16.7406 50.3226H6.70968ZM18.4231 50.3226C18.2847 48.2954 17.6473 46.379 16.609 44.7166C17.5944 43.2917 18.9909 42.2055 20.5928 41.5966L22.1579 48.641L26 44.7988L29.8421 48.641L31.4088 41.5899C33.0141 42.1913 34.3963 43.2699 35.3919 44.715C34.3535 46.3773 33.7145 48.2946 33.5769 50.3226H18.4231ZM50.3226 50.3226H46.9677V45.2903H45.2903V50.3226H35.2594C35.568 46.4209 38.0187 43.0082 41.678 41.4834L44.5112 40.3034C47.9474 41.2846 50.3234 44.4172 50.3234 48.0128V50.3226H50.3226Z" fill="#1C1C1B"/>
<path d="M40.2581 19.2903C40.2581 20.6775 41.387 21.8064 42.7742 21.8064C44.1614 21.8064 45.2903 20.6775 45.2903 19.2903C45.2903 17.9031 44.1614 16.7742 42.7742 16.7742C41.387 16.7742 40.2581 17.9031 40.2581 19.2903ZM43.6129 19.2903C43.6129 19.7524 43.2363 20.129 42.7742 20.129C42.3121 20.129 41.9355 19.7524 41.9355 19.2903C41.9355 18.8282 42.3121 18.4516 42.7742 18.4516C43.2363 18.4516 43.6129 18.8282 43.6129 19.2903Z" fill="#1C1C1B"/>
<path d="M39.4194 6.48162C39.4194 4.75723 40.8217 3.35491 42.5461 3.35491H43.0032C44.7267 3.35491 46.129 4.75723 46.129 6.48162C46.129 7.43691 45.7013 8.32678 44.9557 8.9231L41.9355 11.3394V15.0968H43.6129V12.1446L46.0032 10.2323C47.1489 9.31646 47.8065 7.94936 47.8065 6.48162C47.8065 3.83214 45.6518 1.67749 43.0023 1.67749H42.5452C39.8966 1.67749 37.7419 3.83214 37.7419 6.48162V6.70975H39.4194V6.48162Z" fill="#1C1C1B"/>
</svg>
