<svg width="52" height="52" viewBox="0 0 52 52" fill="none" xmlns="http://www.w3.org/2000/svg">
<rect width="52" height="52" fill="white"/>
<path d="M18.4515 42.7742H13.4193C12.9563 42.7742 12.5806 42.3985 12.5806 41.9355V38.5807C12.5806 38.1177 12.9563 37.7419 13.4193 37.7419H18.4515C18.9145 37.7419 19.2902 38.1177 19.2902 38.5807V41.9355C19.2902 42.3985 18.9145 42.7742 18.4515 42.7742Z" fill="#2AB1A3"/>
<path d="M26.8386 11.7419H17.0299C15.282 14.3898 14.2579 17.5576 14.2579 20.9678C14.2579 21.8232 14.3242 22.6628 14.4475 23.4839H25.1612C26.5484 23.4839 27.6773 22.355 27.6773 20.9678C27.6773 19.5805 26.5484 18.4516 25.1612 18.4516H23.4837C23.0208 18.4516 22.645 18.075 22.645 17.6129C22.645 17.1508 23.0208 16.7742 23.4837 16.7742H26.8386C28.2258 16.7742 29.3547 15.6453 29.3547 14.2581C29.3547 12.8708 28.2258 11.7419 26.8386 11.7419Z" fill="#2AB1A3"/>
<path d="M39.8369 6.70972H32.7096C31.3223 6.70972 30.1934 7.83862 30.1934 9.22585C30.1934 10.6131 31.3223 11.742 32.7096 11.742H36.9031C37.3661 11.742 37.7418 12.1186 37.7418 12.5807C37.7418 13.0428 37.3661 13.4194 36.9031 13.4194H35.2257C33.8385 13.4194 32.7096 14.5483 32.7096 15.9355C32.7096 17.3227 33.8385 18.4517 35.2257 18.4517H41.9354C42.3983 18.4517 42.7741 18.8282 42.7741 19.2904C42.7741 19.7525 42.3983 20.1291 41.9354 20.1291H31.8709C30.4836 20.1291 29.3547 21.258 29.3547 22.6452C29.3547 24.0324 30.4836 25.1613 31.8709 25.1613H47.2562C47.6025 23.8186 47.8063 22.4187 47.8063 20.9678C47.8063 14.9375 44.6134 9.66617 39.8369 6.70972Z" fill="#2AB1A3"/>
<path d="M46.2288 28.0365C44.9246 27.2557 43.4434 26.8389 41.9354 26.8389C37.3108 26.8389 33.5483 30.6013 33.5483 35.226C33.5483 35.9791 33.6591 36.7382 33.8671 37.4846C39.3665 36.5461 43.9433 32.9396 46.2288 28.0365Z" fill="#2AB1A3"/>
<path d="M5.03228 43.6128H3.35486V48.6451H11.742V46.9676H5.03228V43.6128Z" fill="#1C1C1B"/>
<path d="M13.4193 46.9678H15.0967V48.6452H13.4193V46.9678Z" fill="#1C1C1B"/>
<path d="M50.3226 20.9678C50.3226 27.5491 47.0173 33.6122 41.481 37.1859L42.3901 38.5958C48.4079 34.7109 52.0001 28.1211 52.0001 20.9678H50.3226Z" fill="#1C1C1B"/>
<path d="M38.2661 38.8565L38.8951 40.4114C39.4881 40.1716 40.076 39.9015 40.643 39.6088L39.8731 38.1184C39.3514 38.3868 38.8104 38.6351 38.2661 38.8565Z" fill="#1C1C1B"/>
<path d="M35.0522 39.8386L35.3995 41.48C35.9857 41.3559 36.5737 41.2041 37.1482 41.0288L36.6584 39.4243C36.1308 39.5853 35.5907 39.7246 35.0522 39.8386Z" fill="#1C1C1B"/>
<path d="M11.7588 20.1635C12.0833 12.2436 17.124 5.41818 24.6019 2.77541L24.0434 1.1936C15.9154 4.06618 10.4344 11.4854 10.0822 20.1208L10.0646 21.7982L11.742 21.8158L11.7588 20.1635Z" fill="#1C1C1B"/>
<path d="M27.8158 1.94408L27.539 0.289307C26.9561 0.387436 26.3682 0.511565 25.7911 0.660016L26.2088 2.2846C26.7397 2.14873 27.2798 2.03382 27.8158 1.94408Z" fill="#1C1C1B"/>
<path d="M31.0322 1.67742V0C30.4518 0 29.8639 0.0243226 29.286 0.0712904L29.4236 1.74284C29.9561 1.69923 30.4971 1.67742 31.0322 1.67742Z" fill="#1C1C1B"/>
<path d="M48.6452 20.9676C48.6452 11.2554 40.7437 3.35474 31.0323 3.35474C21.3208 3.35474 13.4194 11.2554 13.4194 20.9676C13.4194 22.3901 13.5946 23.7949 13.9285 25.1612H12.5806C10.2683 25.1612 8.3871 27.0424 8.3871 29.3547V30.1934H2.51613C1.1289 30.1934 0 31.3223 0 32.7096V49.4838C0 50.871 1.1289 51.9999 2.51613 51.9999H29.3548C30.7421 51.9999 31.871 50.871 31.871 49.4838V38.5378C41.1915 38.0958 48.6452 30.3964 48.6452 20.9676ZM15.0968 20.9676C15.0968 12.1805 22.2451 5.03216 31.0323 5.03216C39.8194 5.03216 46.9677 12.1805 46.9677 20.9676C46.9677 29.4713 40.2673 36.42 31.871 36.8603V32.7096C31.871 31.3223 30.7421 30.1934 29.3548 30.1934H23.4839V29.3547C23.4839 27.0424 21.6026 25.1612 19.2903 25.1612H15.6663C15.2955 23.8008 15.0968 22.3951 15.0968 20.9676ZM10.0645 29.3547C10.0645 27.9675 11.1934 26.8386 12.5806 26.8386H19.2903C20.6775 26.8386 21.8065 27.9675 21.8065 29.3547V30.1934H10.0645V29.3547ZM29.3548 50.3225H2.51613C2.05316 50.3225 1.67742 49.9459 1.67742 49.4838V38.4874C2.74426 39.5786 4.22877 40.258 5.87097 40.258H12.5806V38.5805H5.87097C3.55865 38.5805 1.67742 36.6993 1.67742 34.387V32.7096C1.67742 32.2474 2.05316 31.8709 2.51613 31.8709H29.3548C29.8178 31.8709 30.1935 32.2474 30.1935 32.7096V34.387C30.1935 36.6993 28.3123 38.5805 26 38.5805H19.2903V40.258H26C27.6422 40.258 29.1267 39.5786 30.1935 38.4874V49.4838C30.1935 49.9459 29.8178 50.3225 29.3548 50.3225Z" fill="#1C1C1B"/>
</svg>
