<svg width="52" height="52" viewBox="0 0 52 52" fill="none" xmlns="http://www.w3.org/2000/svg">
<rect width="52" height="52" fill="white"/>
<path d="M24.2043 0C23.5154 0 22.8415 0.279097 22.3546 0.766049C20.6875 2.43392 18.469 3.35251 16.1105 3.35251H11.5787C8.23964 3.35251 5.06397 4.79326 2.86472 7.30596C1.01749 9.41805 0 12.126 0 14.9313V15.031C0 20.5543 3.07006 25.521 8.01251 27.9918L10.8957 29.4334V22.6295H9.98211C8.63524 22.6295 7.54316 21.5374 7.54316 20.1905V20.1277C7.54316 18.7263 8.67044 17.6007 10.0592 17.6007H10.8957C10.8957 15.7493 12.3968 14.2482 14.2482 14.2482H20.9532C21.4418 14.2482 21.8777 14.4611 22.1844 14.7946C23.1977 14.4845 24.128 13.9347 24.8983 13.1645C26.1379 11.9249 26.8201 10.2771 26.8201 8.5246V2.6158C26.8201 1.17338 25.6467 0 24.2043 0Z" fill="#2AB1A3"/>
<path d="M36.0395 41.0684H38.5539V44.4209H36.0395V41.0684Z" fill="#2AB1A3"/>
<path d="M33.5251 32.687H38.5539V36.0395H33.5251V32.687Z" fill="#2AB1A3"/>
<path d="M48.6114 25.1438H31.8489V20.115H48.6114V25.1438Z" fill="#2AB1A3"/>
<path d="M17.6007 20.1152C18.987 20.1152 20.1151 18.9871 20.1151 17.6008V16.7627H18.4388V17.6008C18.4388 18.0626 18.0633 18.439 17.6007 18.439C17.138 18.439 16.7626 18.0626 16.7626 17.6008V16.7627H15.0863V17.6008C15.0863 18.9871 16.2144 20.1152 17.6007 20.1152Z" fill="#1C1C1B"/>
<path d="M50.2877 16.7626H30.1726C29.2482 16.7626 28.4964 17.5144 28.4964 18.4389V40.3132C28.312 40.2646 28.1217 40.2302 27.9222 40.2302C26.888 40.2302 25.9895 40.9309 25.7398 41.9349L25.3282 43.5827H23.4676V41.9064C23.4676 37.8063 21.4854 34.1688 18.4388 31.8724V30.1408C18.6073 30.1542 18.7749 30.1726 18.9459 30.1726C21.4393 30.1726 23.4676 28.1444 23.4676 25.6509V23.4676H24.8647C25.9426 23.4676 26.8201 22.5901 26.8201 21.5123C26.8201 20.8996 26.5268 20.3146 26.0373 19.9475L24.4733 18.7741C23.8431 18.3022 23.4676 17.5496 23.4676 16.7626V15.9245C23.4676 15.6294 23.4072 15.3495 23.3134 15.0863H40.6727C41.054 15.0863 41.4253 15.0059 41.7765 14.8475L49.8711 11.1672C50.633 10.8211 51.1258 10.0567 51.1258 9.21944C51.1258 8.38215 50.633 7.61777 49.872 7.27163L41.7748 3.59057C41.4253 3.433 41.0532 3.35254 40.6719 3.35254H26.8201V5.0288H40.2302V8.38131H26.8201V8.52463C26.8201 9.04846 26.7522 9.56056 26.6332 10.0576H40.2302V13.4101H24.6209C24.1297 13.8493 23.5816 14.1996 22.9957 14.4686C22.5389 13.83 21.7955 13.4101 20.9532 13.4101H14.2482C12.2241 13.4101 10.5311 14.8525 10.1422 16.7626H10.0592C8.20946 16.7626 6.70502 18.2721 6.70502 20.1905C6.70502 21.0655 7.0453 21.8886 7.66552 22.508C8.28406 23.1265 9.10626 23.4676 9.98127 23.4676H9.9821H10.0575V29.6086C6.02362 31.3712 3.35251 35.4302 3.35251 39.8882V40.1112C3.35251 43.2944 4.59378 46.2848 6.84918 48.5319C9.09369 50.7688 12.0724 52 15.2405 52H15.2816L25.982 51.964H31.0107H50.2877C51.2122 51.964 51.964 51.2122 51.964 50.2877V18.4389C51.964 17.5144 51.2122 16.7626 50.2877 16.7626ZM46.9352 7.77786L49.1789 8.79786C49.3431 8.87245 49.4496 9.0384 49.4496 9.21944C49.4496 9.40047 49.3431 9.56642 49.178 9.64102L46.9352 10.661V7.77786ZM41.9064 5.49228L45.2589 7.016V11.4229L41.9064 12.9466V5.49228ZM21.6614 40.3132L16.9277 37.3554L17.822 34.6717L14.9748 33.7221L14.5616 31.6595C18.2854 32.9955 21.0689 36.2977 21.6614 40.3132ZM9.9821 21.7914C9.98127 21.7914 9.98127 21.7914 9.9821 21.7914C9.55382 21.7914 9.15236 21.6246 8.84979 21.3229C8.54723 21.0203 8.38128 20.618 8.38128 20.1277C8.38128 19.1965 9.13392 18.4389 10.0592 18.4389H11.7338V17.6007C11.7338 16.2145 12.8619 15.0863 14.2482 15.0863H20.9532C21.4159 15.0863 21.7913 15.4627 21.7913 15.9245V16.7626C21.7913 18.0743 22.4174 19.3281 23.4676 20.1151L25.0324 21.2885C25.1019 21.3413 25.1438 21.4243 25.1438 21.5123C25.1438 21.6665 25.019 21.7914 24.8647 21.7914H21.7913V25.1439H20.3129C19.4764 25.1439 18.7238 24.6787 18.35 23.9311L16.8506 24.6812C17.5118 26.0004 18.8386 26.8201 20.3129 26.8201H21.5332C21.0856 27.8058 20.0975 28.4964 18.9459 28.4964C17.3342 28.4964 15.8389 27.696 14.9455 26.355L13.5509 27.2845C14.3362 28.4629 15.4693 29.3236 16.7626 29.7863V30.7954C15.2439 29.9899 13.54 29.4963 11.7338 29.3764V21.7914H9.9821ZM25.1438 50.2902L15.2766 50.3238C15.264 50.3238 15.2531 50.3238 15.2414 50.3238C12.52 50.3238 9.96031 49.2669 8.03178 47.3451C6.09486 45.4149 5.02877 42.846 5.02877 40.1112V39.8882C5.02877 35.9189 7.38642 32.4565 11.0449 31.0183C11.6282 31.0267 12.199 31.0854 12.7571 31.1818L13.5215 35.0045L15.7032 35.7311L14.9212 38.0762L21.7913 42.3716V43.5827L14.8852 43.5835H14.8843C14.2666 43.5835 13.6858 43.3422 13.25 42.9038C12.8125 42.4646 12.5719 41.8788 12.5719 41.1907C12.5719 39.76 11.7774 38.4752 10.4976 37.8373L10.4322 37.8046L10.0575 38.5539L9.7491 39.3367C10.4565 39.6896 10.8957 40.4003 10.8957 41.2544C10.8957 42.3255 11.3097 43.3313 12.0615 44.0864C12.8141 44.8433 13.8174 45.2598 14.8843 45.2598H14.8852L25.1438 45.259V50.2902ZM26.8201 50.2877V44.5222L27.3649 42.3414C27.4303 42.085 27.6582 41.9064 27.9222 41.9064C28.2391 41.9064 28.4964 42.1638 28.4964 42.4806V44.4208V45.259H31.0107C32.397 45.259 33.5251 46.3871 33.5251 47.7733C33.5251 49.1596 32.397 50.2877 31.0107 50.2877H26.8201ZM50.2877 50.2877H34.3415C34.8737 49.5854 35.2014 48.7204 35.2014 47.7733C35.2014 45.4626 33.3215 43.5827 31.0107 43.5827H30.1726V42.4806V18.4389H50.2877V50.2877Z" fill="#1C1C1B"/>
<path d="M48.857 39.6377L48.2645 40.2303H40.2302V48.6115H48.6114V42.2535L50.0421 40.8228L48.857 39.6377ZM46.9352 46.9353H41.9064V41.9065H46.5882L44.4208 44.0739L43.3371 42.9902L42.152 44.1753L44.4208 46.4441L46.9352 43.9298V46.9353Z" fill="#1C1C1B"/>
<path d="M36.0395 43.5828H38.5539V45.259H36.0395V43.5828Z" fill="#1C1C1B"/>
<path d="M31.8489 40.2302H38.5539V41.9065H31.8489V40.2302Z" fill="#1C1C1B"/>
<path d="M40.2302 30.1726V38.5539H48.6114V32.1959L50.0421 30.7652L48.857 29.5801L48.2645 30.1726H40.2302ZM46.9352 36.8777H41.9064V31.8489H46.5882L44.4208 34.0163L43.3371 32.9326L42.152 34.1177L44.4208 36.3865L46.9352 33.8721V36.8777Z" fill="#1C1C1B"/>
<path d="M33.5251 35.2014H38.5539V36.8777H33.5251V35.2014Z" fill="#1C1C1B"/>
<path d="M31.8489 31.8489H38.5539V33.5251H31.8489V31.8489Z" fill="#1C1C1B"/>
<path d="M31.8489 26.8201H36.8776V28.4963H31.8489V26.8201Z" fill="#1C1C1B"/>
<path d="M38.5539 26.8201H48.6114V28.4963H38.5539V26.8201Z" fill="#1C1C1B"/>
</svg>
