<svg width="52" height="52" viewBox="0 0 52 52" fill="none" xmlns="http://www.w3.org/2000/svg">
<path d="M30.1926 8.38672V23.483H37.7407V22.6443C37.7407 21.7176 38.4913 20.967 39.4181 20.967C40.3448 20.967 41.0954 21.7176 41.0954 22.6443V23.483H48.6436V8.38672H30.1926Z" fill="#2AB1A3"/>
<path d="M17.1427 10.0642H16.4046C12.909 10.0642 10.0642 12.9082 10.0642 16.4038C10.0642 17.3834 10.2948 18.363 10.7326 19.2369L10.9641 19.7007H10.9649C11.1545 18.9828 11.8028 18.451 12.5802 18.451H13.4189V18.3286C13.4189 17.3758 13.9573 16.5045 14.8094 16.0784L15.0963 15.935H16.8609C17.0412 16.9288 17.5947 18.451 19.2897 18.451H20.1284H20.9671C21.7445 18.451 22.392 18.9828 22.5824 19.6998H22.584L22.8155 19.236C23.2525 18.3621 23.4831 17.3826 23.4831 16.4038C23.4831 12.9082 20.6383 10.0642 17.1427 10.0642Z" fill="#2AB1A3"/>
<path d="M35.8176 15.342L34.6317 16.5279L37.7407 19.6369L44.2044 13.1732L43.0185 11.9873L37.7407 17.2651L35.8176 15.342Z" fill="#1C1C1B"/>
<path d="M49.4823 31.8699C49.151 31.8699 48.8365 31.9379 48.5463 32.0545C48.257 30.9851 47.2874 30.1926 46.1275 30.1926C45.4809 30.1926 44.8964 30.445 44.4502 30.8467C44.004 30.4442 43.4194 30.1926 42.7728 30.1926C42.4776 30.1926 42.1975 30.253 41.9341 30.3469V22.6444C41.9341 21.2572 40.8053 20.1284 39.4181 20.1284C38.0309 20.1284 36.902 21.2572 36.902 22.6444V33.7628C36.4215 33.2571 35.8562 32.8336 35.2247 32.5124V23.4831H33.5473V31.9446C33.1716 31.875 32.7858 31.8347 32.3882 31.8347C31.178 31.8347 30.1926 32.8193 30.1926 34.0304C30.1926 34.3692 30.2731 34.7089 30.4241 35.0133L31.4011 36.9683C31.7081 37.5805 31.8699 38.2657 31.8699 38.9501V40.2568H5.0321V5.0321H11.9252L12.2884 6.48134C12.5677 7.60266 13.5724 8.38683 14.7289 8.38683H23.8513C25.0078 8.38683 26.0117 7.60266 26.2919 6.48134L26.6542 5.0321H33.5473V8.38683H35.2247V5.0321C35.2247 4.10703 34.4724 3.35473 33.5473 3.35473H25.3442L24.6648 6.07374C24.5709 6.44779 24.2363 6.70946 23.8505 6.70946H14.7289C14.3432 6.70946 14.0094 6.44779 13.9146 6.07374L13.2353 3.35473H5.0321C4.10703 3.35473 3.35473 4.10703 3.35473 5.0321V40.2568C3.35473 41.1818 4.10703 41.9341 5.0321 41.9341H31.8699V42.3954C31.8699 43.2978 32.0821 44.2003 32.4822 45.0062L34.386 48.8398V50.321H4.19341C2.80623 50.321 1.67737 49.1921 1.67737 47.8049V4.19341C1.67737 2.80623 2.80623 1.67737 4.19341 1.67737H34.386C35.7732 1.67737 36.902 2.80623 36.902 4.19341V8.38683H38.5794V4.19341C38.5794 1.88117 36.6982 0 34.386 0H4.19341C1.88117 0 0 1.88117 0 4.19341V47.8049C0 50.1172 1.88117 51.9983 4.19341 51.9983H35.2247V51.9631L49.4823 52V48.9229L50.8242 47.134C51.5815 46.1242 51.9983 44.8737 51.9983 43.6115V34.386C51.9983 32.9988 50.8695 31.8699 49.4823 31.8699ZM50.321 43.6115C50.321 44.5131 50.0232 45.4071 49.4823 46.1275L47.8049 48.3643V50.3193L36.0634 50.2874V48.4465L33.9843 44.2598C33.6991 43.6845 33.5473 43.0395 33.5473 42.3954V38.9501C33.5473 38.0066 33.3234 37.0614 32.9015 36.2168L31.9245 34.2627C31.8884 34.1914 31.8699 34.1101 31.8699 34.0304C31.8699 33.7444 32.1023 33.5121 32.4688 33.5121C34.9135 33.5121 36.902 35.5014 36.902 37.9462V39.3829V41.0602H38.5794V39.3829V37.9462V22.6444C38.5794 22.1823 38.9551 21.8057 39.4181 21.8057C39.881 21.8057 40.2568 22.1823 40.2568 22.6444V32.7086V36.902H41.9341V32.7086C41.9341 32.2465 42.3099 31.8699 42.7728 31.8699C43.2358 31.8699 43.6115 32.2465 43.6115 32.7086V36.902H45.2889V32.7086C45.2889 32.2465 45.6646 31.8699 46.1275 31.8699C46.5905 31.8699 46.9662 32.2465 46.9662 32.7086V34.386V36.902H48.6436V34.386C48.6436 33.9239 49.0193 33.5473 49.4823 33.5473C49.9452 33.5473 50.321 33.9239 50.321 34.386V43.6115Z" fill="#1C1C1B"/>
<path d="M15.935 5.0321C16.3982 5.0321 16.7736 4.65661 16.7736 4.19342C16.7736 3.73023 16.3982 3.35474 15.935 3.35474C15.4718 3.35474 15.0963 3.73023 15.0963 4.19342C15.0963 4.65661 15.4718 5.0321 15.935 5.0321Z" fill="#1C1C1B"/>
<path d="M18.451 3.35474H23.4831V5.0321H18.451V3.35474Z" fill="#1C1C1B"/>
<path d="M21.8057 48.6437C23.6559 48.6437 25.1605 47.1391 25.1605 45.2889C25.1605 44.3639 24.4082 43.6116 23.4831 43.6116H15.0963C14.1712 43.6116 13.4189 44.3639 13.4189 45.2889C13.4189 47.1391 14.9235 48.6437 16.7736 48.6437H21.8057ZM15.0963 45.2889H23.4831C23.4831 46.214 22.7308 46.9663 21.8057 46.9663H16.7736C15.8486 46.9663 15.0963 46.214 15.0963 45.2889Z" fill="#1C1C1B"/>
<path d="M26.8379 33.5473C26.8379 29.4772 23.9201 26.0017 19.9238 25.2494L19.5388 24.0945C19.9925 23.6936 20.3649 23.2055 20.6115 22.6444H20.9671C22.3543 22.6444 23.4831 21.5155 23.4831 20.1284C23.4831 18.7412 22.3543 17.6123 20.9671 17.6123H20.1284H19.2897C17.6467 17.6123 17.6132 15.1969 17.6123 15.0938L16.7737 15.0963H15.935C15.935 16.5463 16.6361 19.2897 19.2897 19.2897V20.967C19.2897 22.3542 18.1608 23.4831 16.7737 23.4831C15.3865 23.4831 14.2576 22.3542 14.2576 20.967V18.3285C14.2576 17.6895 14.6132 17.1141 15.1844 16.8281L15.4712 16.6847L14.7206 15.1843L14.4337 15.3277C13.5103 15.7907 12.8763 16.6319 12.6641 17.6123H12.5803C11.1931 17.6123 10.0642 18.7412 10.0642 20.1284C10.0642 21.5155 11.1931 22.6444 12.5803 22.6444H12.9359C13.1824 23.2063 13.5556 23.6936 14.0085 24.0945L13.6244 25.2468C9.64989 25.9757 6.70947 29.4621 6.70947 33.5473V35.2246H26.8379V33.5473ZM11.7416 20.1284C11.7416 19.6662 12.1173 19.2897 12.5803 19.2897V20.967C12.1173 20.967 11.7416 20.5905 11.7416 20.1284ZM21.8058 20.1284C21.8058 20.5905 21.43 20.967 20.9671 20.967V19.2897C21.43 19.2897 21.8058 19.6662 21.8058 20.1284ZM16.7737 25.1605C17.2224 25.1605 17.6467 25.0707 18.0527 24.9399L18.451 26.1342V26.8378C18.451 27.7629 17.6987 28.5152 16.7737 28.5152C15.8486 28.5152 15.0963 27.7629 15.0963 26.8378V26.135L15.4947 24.9399C15.9006 25.0707 16.325 25.1605 16.7737 25.1605ZM8.38684 33.5473C8.38684 30.4593 10.4861 27.8057 13.4374 27.019C13.533 28.7827 14.9856 30.1926 16.7737 30.1926C18.5643 30.1926 20.0177 28.7802 20.1108 27.0131C23.042 27.7813 25.1605 30.4458 25.1605 33.5473H8.38684Z" fill="#1C1C1B"/>
<path d="M6.70947 36.9021H8.38684V38.5795H6.70947V36.9021Z" fill="#1C1C1B"/>
<path d="M10.0642 36.9021H26.8378V38.5795H10.0642V36.9021Z" fill="#1C1C1B"/>
</svg>
