<svg width="22" height="18" viewBox="0 0 22 18" fill="none" xmlns="http://www.w3.org/2000/svg">
<path fill-rule="evenodd" clip-rule="evenodd" d="M16.6734 17.8522C17.9229 18.3988 18.3914 17.2534 18.3914 17.2534L21.6974 0.64532C21.6714 -0.474036 20.1616 0.202784 20.1616 0.202784L1.65317 7.46558C1.65317 7.46558 0.768094 7.77796 0.846189 8.32462C0.924283 8.87129 1.62713 9.1316 1.62713 9.1316L6.28678 10.6935C6.28678 10.6935 7.69248 15.3011 7.97883 16.1861C8.23914 17.0452 8.47343 17.0712 8.47343 17.0712C8.73374 17.1753 8.96803 16.9931 8.96803 16.9931L11.9877 14.2598L16.6734 17.8522ZM17.4804 3.5868C17.4804 3.5868 18.1312 3.19633 18.1052 3.5868C18.1052 3.5868 18.2093 3.63886 17.8709 4.00331C17.5585 4.31568 10.1916 10.9277 9.20238 11.8128C9.12429 11.8648 9.07222 11.9429 9.07222 12.0471L8.78588 14.494C8.73382 14.7543 8.39541 14.7804 8.31731 14.5461L7.09383 10.5372C7.04177 10.381 7.09383 10.1988 7.25002 10.0947L17.4804 3.5868Z" fill="white"/>
</svg>
