<svg width="24" height="25" viewBox="0 0 24 25" fill="none" xmlns="http://www.w3.org/2000/svg">
<path d="M20.564 2.38369C19.9578 1.82644 17.5039 0.0422385 12.034 0.0177974C12.034 0.0177974 5.58648 -0.373259 2.44336 2.51078C0.693382 4.26076 0.0774679 6.8173 0.0139211 9.99464C-0.0496256 13.1671 -0.132726 19.116 5.60115 20.7291H5.60603L5.60115 23.1879C5.60115 23.1879 5.56693 24.1851 6.22195 24.3855C7.01384 24.6299 7.48311 23.8723 8.24078 23.0559C8.65628 22.6062 9.2282 21.9512 9.66325 21.4477C13.5836 21.7752 16.5996 21.0224 16.9418 20.91C17.7337 20.6509 22.2162 20.079 22.9445 14.1301C23.6973 8.01002 22.5779 4.13367 20.564 2.38369ZM21.2288 13.6999C20.6128 18.6663 16.9809 18.9792 16.3112 19.1942C16.0277 19.2871 13.3783 19.947 10.0445 19.7271C10.0445 19.7271 7.56132 22.7235 6.78898 23.5008C6.66678 23.623 6.52502 23.6718 6.43214 23.6474C6.30016 23.6132 6.26105 23.4568 6.26594 23.227C6.26594 22.8946 6.28549 19.1356 6.28549 19.1356C6.28061 19.1356 6.28061 19.1356 6.28549 19.1356C1.4315 17.7913 1.71502 12.7271 1.76879 10.0777C1.82256 7.42832 2.32116 5.25307 3.80228 3.7915C6.45658 1.3865 11.9363 1.74334 11.9363 1.74334C16.5605 1.76289 18.7749 3.15603 19.2881 3.62041C20.9941 5.08687 21.8642 8.58194 21.2288 13.6999Z" fill="white"/>
<path d="M14.2876 10.1703C14.1262 10.1703 13.9894 10.0432 13.9796 9.877C13.9258 8.82604 13.4321 8.31278 12.4252 8.25901C12.2541 8.24923 12.1221 8.10259 12.1319 7.9315C12.1416 7.76041 12.2883 7.62843 12.4594 7.63821C13.789 7.71153 14.532 8.47409 14.6004 9.84279C14.6102 10.0139 14.4782 10.1605 14.3071 10.1654C14.2973 10.1703 14.2924 10.1703 14.2876 10.1703Z" fill="white"/>
<path d="M15.8713 10.6987H15.8664C15.6953 10.6939 15.5584 10.5521 15.5633 10.381C15.5878 9.32516 15.2847 8.46972 14.6394 7.76582C13.9991 7.06191 13.1143 6.68063 11.946 6.59754C11.775 6.58287 11.6479 6.43622 11.6625 6.26514C11.6772 6.09405 11.8238 5.96696 11.9949 5.98162C13.3147 6.07938 14.3559 6.53888 15.0989 7.35032C15.8468 8.16665 16.2086 9.18829 16.1841 10.3957C16.1792 10.5668 16.0375 10.6987 15.8713 10.6987Z" fill="white"/>
<path d="M17.4942 11.3339C17.3231 11.3339 17.1863 11.197 17.1863 11.0259C17.1716 9.13417 16.629 7.69215 15.5243 6.61185C14.4342 5.54622 13.0508 5.00363 11.4231 4.98897C11.252 4.98897 11.1151 4.84721 11.1151 4.67612C11.1151 4.50503 11.2569 4.36816 11.4231 4.36816C13.217 4.38283 14.7422 4.98408 15.9496 6.16703C17.1618 7.34997 17.7826 8.98264 17.8022 11.0161C17.8071 11.1921 17.6702 11.3339 17.4942 11.3339C17.4991 11.3339 17.4991 11.3339 17.4942 11.3339Z" fill="white"/>
<path d="M12.4984 13.9983C12.4984 13.9983 12.9335 14.0374 13.1681 13.749L13.6227 13.1771C13.8427 12.8936 14.3755 12.7127 14.8936 13.0011C15.182 13.1625 15.7051 13.4851 16.0277 13.7246C16.3748 13.9788 17.0787 14.5654 17.0835 14.5703C17.4208 14.8538 17.499 15.2693 17.2693 15.7141C17.2693 15.7141 17.2693 15.719 17.2693 15.7239C17.0347 16.1394 16.7169 16.5304 16.321 16.8922C16.3161 16.8922 16.3161 16.897 16.3112 16.897C15.9837 17.1708 15.6611 17.3272 15.3482 17.3614C15.3091 17.3712 15.2651 17.3712 15.2065 17.3712C15.0696 17.3712 14.9327 17.3517 14.7959 17.3077L14.7861 17.293C14.2973 17.1561 13.4858 16.8139 12.1367 16.0661C11.2568 15.5821 10.5285 15.0884 9.90765 14.5947C9.58014 14.3356 9.24774 14.0472 8.90557 13.705C8.89579 13.6953 8.88113 13.6806 8.87135 13.6708C8.86157 13.6611 8.84691 13.6464 8.83713 13.6366C8.82736 13.6268 8.81269 13.6122 8.80291 13.6024C8.79314 13.5926 8.77847 13.578 8.7687 13.5682C8.43141 13.226 8.13812 12.8936 7.87904 12.5661C7.38533 11.9502 6.89162 11.2169 6.40769 10.3371C5.65979 8.98303 5.31762 8.17159 5.18075 7.68766L5.16609 7.67788C5.12209 7.54101 5.10254 7.40414 5.10254 7.26727C5.10254 7.20861 5.10254 7.16462 5.11232 7.12551C5.15142 6.80778 5.30784 6.49005 5.5767 6.16254C5.5767 6.15765 5.58158 6.15765 5.58158 6.15276C5.94331 5.75193 6.33437 5.43908 6.74987 5.20445C6.74987 5.20445 6.75475 5.20445 6.75964 5.20445C7.19958 4.9747 7.61508 5.05291 7.90348 5.3902C7.90348 5.3902 8.49496 6.09899 8.74914 6.44605C8.98867 6.77356 9.31129 7.29171 9.4726 7.58012C9.761 8.09827 9.58014 8.63108 9.29662 8.85105L8.7247 9.30566C8.4363 9.54029 8.4754 9.97534 8.4754 9.97534C8.4754 9.97534 9.32106 13.1918 12.4984 13.9983Z" fill="white"/>
</svg>
