<svg width="50" height="32" viewBox="0 0 50 32" fill="none" xmlns="http://www.w3.org/2000/svg">
<g clip-path="url(#clip0_93_1867)">
<rect width="50" height="32" rx="3" fill="#00579F"/>
<path d="M22.4667 21.5355H19.3884L21.3138 10.5H24.3919L22.4667 21.5355Z" fill="white"/>
<path d="M33.6256 10.7696C33.0184 10.5463 32.0554 10.2998 30.8646 10.2998C27.8247 10.2998 25.684 11.8024 25.6709 13.9507C25.6457 15.5358 27.2036 16.4161 28.3688 16.9446C29.5597 17.4846 29.9645 17.8371 29.9645 18.3185C29.9524 19.0578 29.0022 19.3986 28.1159 19.3986C26.8869 19.3986 26.2284 19.2229 25.2277 18.8116L24.8224 18.6353L24.3916 21.1125C25.1136 21.4174 26.4437 21.6879 27.8247 21.6998C31.0546 21.6998 33.1574 20.2204 33.1823 17.9311C33.1946 16.6748 32.372 15.7122 30.5985 14.9257C29.5218 14.4207 28.8625 14.0802 28.8625 13.5636C28.8751 13.0939 29.4201 12.6129 30.6355 12.6129C31.6362 12.5893 32.3715 12.8123 32.9285 13.0354L33.2069 13.1526L33.6256 10.7696Z" fill="white"/>
<path d="M37.7169 17.626C37.9704 16.992 38.9459 14.5384 38.9459 14.5384C38.9331 14.5619 39.1989 13.8927 39.3509 13.4819L39.566 14.4327C39.566 14.4327 40.149 17.0743 40.2756 17.626C39.7945 17.626 38.3249 17.626 37.7169 17.626ZM41.5167 10.5H39.1356C38.4014 10.5 37.8435 10.6994 37.5267 11.4156L32.9543 21.5353H36.1843C36.1843 21.5353 36.716 20.1733 36.8303 19.88C37.1847 19.88 40.3267 19.88 40.7826 19.88C40.8709 20.2674 41.1499 21.5353 41.1499 21.5353H44L41.5167 10.5Z" fill="white"/>
<path d="M16.8173 10.5L13.8026 18.0252L13.4732 16.499C12.9158 14.7379 11.1679 12.8246 9.21729 11.8733L11.9786 21.5238H15.2338L20.0723 10.5H16.8173Z" fill="white"/>
<path d="M11.0033 10.5H6.05067L6 10.723C9.86336 11.6388 12.422 13.8462 13.4732 16.4994L12.3966 11.4276C12.2193 10.7228 11.6746 10.5232 11.0033 10.5Z" fill="#FAA61A"/>
</g>
<defs>
<clipPath id="clip0_93_1867">
<rect width="50" height="32" fill="white"/>
</clipPath>
</defs>
</svg>
